<?xml version="1.0" encoding="UTF-8"?><svg xmlns="http://www.w3.org/2000/svg" xmlns:xlink="http://www.w3.org/1999/xlink" fill-opacity="1" color-rendering="auto" color-interpolation="auto" text-rendering="auto" stroke="black" stroke-linecap="square" width="1296" stroke-miterlimit="10" shape-rendering="auto" stroke-opacity="1" fill="black" stroke-dasharray="none" font-weight="normal" stroke-width="1" height="709" font-family="'Dialog'" font-style="normal" stroke-linejoin="miter" font-size="12px" stroke-dashoffset="0" image-rendering="auto">
  <!--Generated by ySVG 2.5-->
  <defs id="genericDefs"/>
  <g>
    <defs id="defs1">
      <linearGradient x1="312.3366" gradientUnits="userSpaceOnUse" x2="549.9456" y1="-54.3555" y2="60.6445" id="linearGradient1" spreadMethod="reflect">
        <stop stop-opacity="1" stop-color="rgb(232,238,247)" offset="0%"/>
        <stop stop-opacity="1" stop-color="rgb(183,201,227)" offset="100%"/>
      </linearGradient>
      <linearGradient x1="66.168" gradientUnits="userSpaceOnUse" x2="684" y1="130.0404" y2="255.457" id="linearGradient2" spreadMethod="reflect">
        <stop stop-opacity="1" stop-color="rgb(232,238,247)" offset="0%"/>
        <stop stop-opacity="1" stop-color="rgb(183,201,227)" offset="100%"/>
      </linearGradient>
      <linearGradient x1="-94.5" gradientUnits="userSpaceOnUse" x2="292.5" y1="-54.3555" y2="60.6445" id="linearGradient3" spreadMethod="reflect">
        <stop stop-opacity="1" stop-color="rgb(232,238,247)" offset="0%"/>
        <stop stop-opacity="1" stop-color="rgb(183,201,227)" offset="100%"/>
      </linearGradient>
      <linearGradient x1="-273" gradientUnits="userSpaceOnUse" x2="-160" y1="120.3014" y2="160.3014" id="linearGradient4" spreadMethod="reflect">
        <stop stop-opacity="1" stop-color="rgb(232,238,247)" offset="0%"/>
        <stop stop-opacity="1" stop-color="rgb(183,201,227)" offset="100%"/>
      </linearGradient>
      <linearGradient x1="-39" gradientUnits="userSpaceOnUse" x2="106" y1="-22.3555" y2="17.6445" id="linearGradient5" spreadMethod="reflect">
        <stop stop-opacity="1" stop-color="rgb(232,238,247)" offset="0%"/>
        <stop stop-opacity="1" stop-color="rgb(183,201,227)" offset="100%"/>
      </linearGradient>
      <linearGradient x1="128" gradientUnits="userSpaceOnUse" x2="273" y1="-22.3555" y2="17.6445" id="linearGradient6" spreadMethod="reflect">
        <stop stop-opacity="1" stop-color="rgb(232,238,247)" offset="0%"/>
        <stop stop-opacity="1" stop-color="rgb(183,201,227)" offset="100%"/>
      </linearGradient>
      <linearGradient x1="357.7533" gradientUnits="userSpaceOnUse" x2="502.7533" y1="-22.3555" y2="17.6445" id="linearGradient7" spreadMethod="reflect">
        <stop stop-opacity="1" stop-color="rgb(232,238,247)" offset="0%"/>
        <stop stop-opacity="1" stop-color="rgb(183,201,227)" offset="100%"/>
      </linearGradient>
      <linearGradient x1="-101.7917" gradientUnits="userSpaceOnUse" x2="21.7083" y1="120.3014" y2="160.3014" id="linearGradient8" spreadMethod="reflect">
        <stop stop-opacity="1" stop-color="rgb(232,238,247)" offset="0%"/>
        <stop stop-opacity="1" stop-color="rgb(183,201,227)" offset="100%"/>
      </linearGradient>
      <linearGradient x1="762.7566" gradientUnits="userSpaceOnUse" x2="875.7566" y1="153.2742" y2="193.2742" id="linearGradient9" spreadMethod="reflect">
        <stop stop-opacity="1" stop-color="rgb(232,238,247)" offset="0%"/>
        <stop stop-opacity="1" stop-color="rgb(183,201,227)" offset="100%"/>
      </linearGradient>
      <linearGradient x1="762.7566" gradientUnits="userSpaceOnUse" x2="875.7566" y1="223.2742" y2="263.2742" id="linearGradient10" spreadMethod="reflect">
        <stop stop-opacity="1" stop-color="rgb(232,238,247)" offset="0%"/>
        <stop stop-opacity="1" stop-color="rgb(183,201,227)" offset="100%"/>
      </linearGradient>
      <linearGradient x1="545.9639" gradientUnits="userSpaceOnUse" x2="617.9639" y1="307.082" y2="355.082" id="linearGradient11" spreadMethod="reflect">
        <stop stop-opacity="1" stop-color="rgb(232,238,247)" offset="0%"/>
        <stop stop-opacity="1" stop-color="rgb(183,201,227)" offset="100%"/>
      </linearGradient>
      <linearGradient x1="556.9823" gradientUnits="userSpaceOnUse" x2="701.9823" y1="-27.41" y2="33.6991" id="linearGradient12" spreadMethod="reflect">
        <stop stop-opacity="1" stop-color="rgb(232,238,247)" offset="0%"/>
        <stop stop-opacity="1" stop-color="rgb(183,201,227)" offset="100%"/>
      </linearGradient>
      <linearGradient x1="300.5" gradientUnits="userSpaceOnUse" x2="429.5" y1="343.832" y2="419.832" id="linearGradient13" spreadMethod="reflect">
        <stop stop-opacity="1" stop-color="rgb(232,238,247)" offset="0%"/>
        <stop stop-opacity="1" stop-color="rgb(183,201,227)" offset="100%"/>
      </linearGradient>
      <linearGradient x1="300.5" gradientUnits="userSpaceOnUse" x2="429.5" y1="293.082" y2="369.082" id="linearGradient14" spreadMethod="reflect">
        <stop stop-opacity="1" stop-color="rgb(232,238,247)" offset="0%"/>
        <stop stop-opacity="1" stop-color="rgb(183,201,227)" offset="100%"/>
      </linearGradient>
      <linearGradient x1="-257.8749" gradientUnits="userSpaceOnUse" x2="-144.875" y1="368.5084" y2="408.5084" id="linearGradient15" spreadMethod="reflect">
        <stop stop-opacity="1" stop-color="rgb(232,238,247)" offset="0%"/>
        <stop stop-opacity="1" stop-color="rgb(183,201,227)" offset="100%"/>
      </linearGradient>
      <linearGradient x1="-254.599" gradientUnits="userSpaceOnUse" x2="-141.599" y1="205.862" y2="236.112" id="linearGradient16" spreadMethod="reflect">
        <stop stop-opacity="1" stop-color="rgb(232,238,247)" offset="0%"/>
        <stop stop-opacity="1" stop-color="rgb(183,201,227)" offset="100%"/>
      </linearGradient>
      <linearGradient x1="-43.4282" gradientUnits="userSpaceOnUse" x2="1.4445" y1="436.1366" y2="484.7457" id="linearGradient17" spreadMethod="reflect">
        <stop stop-opacity="1" stop-color="rgb(232,238,247)" offset="0%"/>
        <stop stop-opacity="1" stop-color="rgb(183,201,227)" offset="100%"/>
      </linearGradient>
      <linearGradient x1="-100.1591" gradientUnits="userSpaceOnUse" x2="-49.9918" y1="436.1366" y2="480.3547" id="linearGradient18" spreadMethod="reflect">
        <stop stop-opacity="1" stop-color="rgb(232,238,247)" offset="0%"/>
        <stop stop-opacity="1" stop-color="rgb(183,201,227)" offset="100%"/>
      </linearGradient>
      <linearGradient x1="-92.6609" gradientUnits="userSpaceOnUse" x2="27.1609" y1="357.5275" y2="406.1366" id="linearGradient19" spreadMethod="reflect">
        <stop stop-opacity="1" stop-color="rgb(232,238,247)" offset="0%"/>
        <stop stop-opacity="1" stop-color="rgb(183,201,227)" offset="100%"/>
      </linearGradient>
      <linearGradient x1="-92.6609" gradientUnits="userSpaceOnUse" x2="27.1609" y1="205.6802" y2="249.8984" id="linearGradient20" spreadMethod="reflect">
        <stop stop-opacity="1" stop-color="rgb(232,238,247)" offset="0%"/>
        <stop stop-opacity="1" stop-color="rgb(183,201,227)" offset="100%"/>
      </linearGradient>
      <linearGradient x1="-254.599" gradientUnits="userSpaceOnUse" x2="-141.599" y1="241.7263" y2="271.9763" id="linearGradient21" spreadMethod="reflect">
        <stop stop-opacity="1" stop-color="rgb(232,238,247)" offset="0%"/>
        <stop stop-opacity="1" stop-color="rgb(183,201,227)" offset="100%"/>
      </linearGradient>
      <linearGradient x1="8.0082" gradientUnits="userSpaceOnUse" x2="62.7136" y1="436.4411" y2="480.3547" id="linearGradient22" spreadMethod="reflect">
        <stop stop-opacity="1" stop-color="rgb(232,238,247)" offset="0%"/>
        <stop stop-opacity="1" stop-color="rgb(183,201,227)" offset="100%"/>
      </linearGradient>
      <linearGradient x1="-92.8773" gradientUnits="userSpaceOnUse" x2="-38.1718" y1="279.8984" y2="319.8984" id="linearGradient23" spreadMethod="reflect">
        <stop stop-opacity="1" stop-color="rgb(232,238,247)" offset="0%"/>
        <stop stop-opacity="1" stop-color="rgb(183,201,227)" offset="100%"/>
      </linearGradient>
      <linearGradient x1="-27.5445" gradientUnits="userSpaceOnUse" x2="27.1609" y1="279.8984" y2="319.8984" id="linearGradient24" spreadMethod="reflect">
        <stop stop-opacity="1" stop-color="rgb(232,238,247)" offset="0%"/>
        <stop stop-opacity="1" stop-color="rgb(183,201,227)" offset="100%"/>
      </linearGradient>
      <clipPath clipPathUnits="userSpaceOnUse" id="clipPath1">
        <path d="M0 0 L1296 0 L1296 709 L0 709 L0 0 Z"/>
      </clipPath>
      <clipPath clipPathUnits="userSpaceOnUse" id="clipPath2">
        <path d="M-374 -190 L922 -190 L922 519 L-374 519 L-374 -190 Z"/>
      </clipPath>
    </defs>
    <g fill="white" text-rendering="geometricPrecision" shape-rendering="geometricPrecision" transform="translate(374,190)" stroke="white">
      <rect x="-374" width="1296" height="709" y="-190" clip-path="url(#clipPath2)" stroke="none"/>
    </g>
    <g text-rendering="geometricPrecision" stroke-miterlimit="1.45" shape-rendering="geometricPrecision" transform="matrix(1,0,0,1,374,190)" stroke-linecap="butt">
      <rect fill="none" x="-115" width="829.9823" height="601.5" y="-97.668" clip-path="url(#clipPath2)"/>
      <text x="-109" xml:space="preserve" y="-79.6035" clip-path="url(#clipPath2)" font-family="sans-serif" stroke="none">StudyBuilder System</text>
    </g>
    <g fill="url(#linearGradient1)" text-rendering="geometricPrecision" shape-rendering="geometricPrecision" transform="matrix(1,0,0,1,374,190)" stroke="url(#linearGradient1)">
      <rect x="312.3366" y="-54.3555" clip-path="url(#clipPath2)" width="237.609" rx="57.5" ry="57.5" height="115" stroke="none"/>
    </g>
    <g text-rendering="geometricPrecision" stroke-miterlimit="1.45" shape-rendering="geometricPrecision" transform="matrix(1,0,0,1,374,190)" stroke-linecap="butt">
      <rect x="312.3366" y="-54.3555" clip-path="url(#clipPath2)" fill="none" width="237.609" rx="57.5" ry="57.5" height="115"/>
      <text x="363.889" xml:space="preserve" y="-36.291" clip-path="url(#clipPath2)" font-family="sans-serif" stroke="none">Documentation Portal </text>
      <text x="344.1031" xml:space="preserve" y="42.0006" clip-path="url(#clipPath2)" font-family="sans-serif" stroke="none">[VuePress using markdown files]</text>
    </g>
    <g text-rendering="geometricPrecision" stroke-miterlimit="1.45" shape-rendering="geometricPrecision" transform="matrix(1,0,0,1,374,190)" stroke-linecap="butt">
      <rect fill="none" x="-346.3333" width="1252.814" height="40" y="-174.168" clip-path="url(#clipPath2)"/>
      <path fill="none" d="M-336.3333 -174.168 L-336.3333 -134.168 M896.4807 -174.168 L896.4807 -134.168 M-336.3333 -174.168 Z" clip-path="url(#clipPath2)"/>
      <text x="30.7045" font-size="22px" y="-145.5259" clip-path="url(#clipPath2)" font-family="sans-serif" stroke="none" font-weight="bold" xml:space="preserve">StudyBuilder: System Component Architecture </text>
    </g>
    <g fill="url(#linearGradient2)" text-rendering="geometricPrecision" shape-rendering="geometricPrecision" transform="matrix(1,0,0,1,374,190)" stroke="url(#linearGradient2)">
      <rect x="66.168" width="617.832" height="125.4167" y="130.0404" clip-path="url(#clipPath2)" stroke="none"/>
    </g>
    <g text-rendering="geometricPrecision" stroke-miterlimit="1.45" shape-rendering="geometricPrecision" transform="matrix(1,0,0,1,374,190)" stroke-linecap="butt">
      <rect fill="none" x="66.168" width="617.832" height="125.4167" y="130.0404" clip-path="url(#clipPath2)"/>
      <path fill="none" d="M76.168 130.0404 L76.168 255.457 M674 130.0404 L674 255.457 M76.168 130.0404 Z" clip-path="url(#clipPath2)"/>
      <text x="329.0762" xml:space="preserve" y="160.7096" clip-path="url(#clipPath2)" font-family="sans-serif" stroke="none">Clinical MDR API</text>
      <text x="271.7188" xml:space="preserve" y="175.4108" clip-path="url(#clipPath2)" font-family="sans-serif" stroke="none">(Access control, versioning, workflows)</text>
      <text x="284.3809" xml:space="preserve" y="190.112" clip-path="url(#clipPath2)" font-family="sans-serif" stroke="none">[Python using FastAPI framework]</text>
      <text x="373.417" xml:space="preserve" y="204.8131" clip-path="url(#clipPath2)" font-family="sans-serif" stroke="none"> </text>
      <text x="144.6172" xml:space="preserve" y="219.5143" clip-path="url(#clipPath2)" font-family="sans-serif" stroke="none">[Packages: requests, py2neo, neomodel, openpyxl, dict2xml, gitpython, enforce-typing,</text>
      <text x="210.6582" xml:space="preserve" y="234.2155" clip-path="url(#clipPath2)" font-family="sans-serif" stroke="none">hypothesis, okta-jw, python-jose, fastapi-etag, python-dateutil]</text>
    </g>
    <g fill="url(#linearGradient3)" text-rendering="geometricPrecision" shape-rendering="geometricPrecision" transform="matrix(1,0,0,1,374,190)" stroke="url(#linearGradient3)">
      <rect x="-94.5" y="-54.3555" clip-path="url(#clipPath2)" width="387" rx="57.5" ry="57.5" height="115" stroke="none"/>
    </g>
    <g text-rendering="geometricPrecision" stroke-miterlimit="1.45" shape-rendering="geometricPrecision" transform="matrix(1,0,0,1,374,190)" stroke-linecap="butt">
      <rect x="-94.5" y="-54.3555" clip-path="url(#clipPath2)" fill="none" width="387" rx="57.5" ry="57.5" height="115"/>
      <text x="36.8877" xml:space="preserve" y="-36.291" clip-path="url(#clipPath2)" font-family="sans-serif" stroke="none">StudyBuilder App</text>
    </g>
    <g fill="white" text-rendering="geometricPrecision" shape-rendering="geometricPrecision" transform="matrix(1,0,0,1,374,190)" stroke="white">
      <rect x="-346.3333" width="221.8333" height="111.125" y="57.7695" clip-path="url(#clipPath2)" stroke="none"/>
    </g>
    <g text-rendering="geometricPrecision" stroke-miterlimit="1.45" shape-rendering="geometricPrecision" transform="matrix(1,0,0,1,374,190)" stroke-linecap="butt">
      <rect fill="none" x="-346.3333" width="221.8333" height="111.125" y="57.7695" clip-path="url(#clipPath2)"/>
      <text x="-340.3333" xml:space="preserve" y="75.834" clip-path="url(#clipPath2)" font-family="sans-serif" stroke="none">Internal Master Data System *</text>
    </g>
    <g fill="url(#linearGradient4)" text-rendering="geometricPrecision" shape-rendering="geometricPrecision" transform="matrix(1,0,0,1,374,190)" stroke="url(#linearGradient4)">
      <rect x="-273" width="113" height="40" y="120.3014" clip-path="url(#clipPath2)" stroke="none"/>
    </g>
    <g text-rendering="geometricPrecision" stroke-miterlimit="1.45" shape-rendering="geometricPrecision" transform="matrix(1,0,0,1,374,190)" stroke-linecap="butt">
      <rect fill="none" x="-273" width="113" height="40" y="120.3014" clip-path="url(#clipPath2)"/>
      <path fill="none" d="M-263 120.3014 L-263 160.3014 M-170 120.3014 L-170 160.3014 M-263 120.3014 Z" clip-path="url(#clipPath2)"/>
      <text x="-242.167" xml:space="preserve" y="145.0153" clip-path="url(#clipPath2)" font-family="sans-serif" stroke="none">MDM API</text>
    </g>
    <g fill="white" text-rendering="geometricPrecision" shape-rendering="geometricPrecision" transform="matrix(1,0,0,1,374,190)" stroke="white">
      <rect x="-339.8158" width="154.5" height="12" y="78.3014" clip-path="url(#clipPath2)" stroke="none"/>
    </g>
    <g font-size="9px" stroke-linecap="butt" transform="matrix(1,0,0,1,374,190)" text-rendering="geometricPrecision" font-family="sans-serif" shape-rendering="geometricPrecision" stroke-miterlimit="1.45">
      <text x="-341.3891" xml:space="preserve" y="93.3497" clip-path="url(#clipPath2)" stroke="none">* Scope will be limited in inital release</text>
    </g>
    <g fill="url(#linearGradient5)" text-rendering="geometricPrecision" shape-rendering="geometricPrecision" transform="matrix(1,0,0,1,374,190)" stroke="url(#linearGradient5)">
      <rect x="-39" y="-22.3555" clip-path="url(#clipPath2)" width="145" rx="20" ry="20" height="40" stroke="none"/>
    </g>
    <g text-rendering="geometricPrecision" stroke-miterlimit="1.45" shape-rendering="geometricPrecision" transform="matrix(1,0,0,1,374,190)" stroke-linecap="butt">
      <rect x="-39" y="-22.3555" clip-path="url(#clipPath2)" fill="none" width="145" rx="20" ry="20" height="40"/>
      <text x="-8.5234" xml:space="preserve" y="2.3584" clip-path="url(#clipPath2)" font-family="sans-serif" stroke="none">Study Definition</text>
    </g>
    <g fill="url(#linearGradient6)" text-rendering="geometricPrecision" shape-rendering="geometricPrecision" transform="matrix(1,0,0,1,374,190)" stroke="url(#linearGradient6)">
      <rect x="128" y="-22.3555" clip-path="url(#clipPath2)" width="145" rx="20" ry="20" height="40" stroke="none"/>
    </g>
    <g text-rendering="geometricPrecision" stroke-miterlimit="1.45" shape-rendering="geometricPrecision" transform="matrix(1,0,0,1,374,190)" stroke-linecap="butt">
      <rect x="128" y="-22.3555" clip-path="url(#clipPath2)" fill="none" width="145" rx="20" ry="20" height="40"/>
      <text x="182.1602" xml:space="preserve" y="2.3584" clip-path="url(#clipPath2)" font-family="sans-serif" stroke="none">Library</text>
    </g>
    <g text-rendering="geometricPrecision" stroke-miterlimit="1.45" shape-rendering="geometricPrecision" font-family="sans-serif" transform="matrix(1,0,0,1,374,190)" stroke-linecap="butt">
      <text x="-61.3861" xml:space="preserve" y="42.818" clip-path="url(#clipPath2)" stroke="none">[Vue.js JavaScript framework using Vutify style library</text>
    </g>
    <g fill="url(#linearGradient7)" text-rendering="geometricPrecision" shape-rendering="geometricPrecision" transform="matrix(1,0,0,1,374,190)" stroke="url(#linearGradient7)">
      <rect x="357.7533" y="-22.3555" clip-path="url(#clipPath2)" width="145" rx="20" ry="20" height="40" stroke="none"/>
    </g>
    <g text-rendering="geometricPrecision" stroke-miterlimit="1.45" shape-rendering="geometricPrecision" transform="matrix(1,0,0,1,374,190)" stroke-linecap="butt">
      <rect x="357.7533" y="-22.3555" clip-path="url(#clipPath2)" fill="none" width="145" rx="20" ry="20" height="40"/>
      <text x="396.2338" xml:space="preserve" y="-4.9922" clip-path="url(#clipPath2)" font-family="sans-serif" stroke="none">StudyBuilder</text>
      <text x="389.8969" xml:space="preserve" y="9.709" clip-path="url(#clipPath2)" font-family="sans-serif" stroke="none">Documentation</text>
    </g>
    <g fill="url(#linearGradient8)" text-rendering="geometricPrecision" shape-rendering="geometricPrecision" transform="matrix(1,0,0,1,374,190)" stroke="url(#linearGradient8)">
      <path d="M-101.7917 120.3014 L21.7083 120.3014 L21.7083 160.3014 L-101.7917 160.3014 Z" stroke="none" clip-path="url(#clipPath2)"/>
    </g>
    <g text-rendering="geometricPrecision" stroke-miterlimit="1.45" shape-rendering="geometricPrecision" transform="matrix(1,0,0,1,374,190)" stroke-linecap="butt">
      <path fill="none" d="M-101.7917 120.3014 L21.7083 120.3014 L21.7083 160.3014 L-101.7917 160.3014 Z" clip-path="url(#clipPath2)"/>
      <text x="-91.3903" xml:space="preserve" y="137.6647" clip-path="url(#clipPath2)" font-family="sans-serif" stroke="none">Master Data Import</text>
      <text x="-86.0641" xml:space="preserve" y="152.3658" clip-path="url(#clipPath2)" font-family="sans-serif" stroke="none">[Python program]</text>
    </g>
    <g stroke-linecap="butt" transform="matrix(1,0,0,1,374,190)" text-rendering="geometricPrecision" font-family="sans-serif" shape-rendering="geometricPrecision" font-style="italic" stroke-miterlimit="1.45">
      <text x="-346.8612" xml:space="preserve" y="-15.3665" clip-path="url(#clipPath2)" stroke="none">Source Systems</text>
      <rect fill="none" x="751.9807" width="154.5" height="182.1647" y="110.5394" clip-path="url(#clipPath2)"/>
    </g>
    <g fill="white" text-rendering="geometricPrecision" shape-rendering="geometricPrecision" transform="matrix(1,0,0,1,374,190)" stroke="white">
      <rect x="747.1556" width="154.5" height="182.1647" y="106.8747" clip-path="url(#clipPath2)" stroke="none"/>
    </g>
    <g text-rendering="geometricPrecision" stroke-miterlimit="1.45" shape-rendering="geometricPrecision" transform="matrix(1,0,0,1,374,190)" stroke-linecap="butt">
      <rect fill="none" x="747.1556" width="154.5" height="182.1647" y="106.8747" clip-path="url(#clipPath2)"/>
    </g>
    <g fill="white" text-rendering="geometricPrecision" shape-rendering="geometricPrecision" transform="matrix(1,0,0,1,374,190)" stroke="white">
      <rect x="742.0066" width="154.5" height="182.1647" y="101.8042" clip-path="url(#clipPath2)" stroke="none"/>
    </g>
    <g text-rendering="geometricPrecision" stroke-miterlimit="1.45" shape-rendering="geometricPrecision" transform="matrix(1,0,0,1,374,190)" stroke-linecap="butt">
      <rect fill="none" x="742.0066" width="154.5" height="182.1647" y="101.8042" clip-path="url(#clipPath2)"/>
      <text x="748.0066" y="119.8686" clip-path="url(#clipPath2)" font-family="sans-serif" font-style="italic" stroke="none" xml:space="preserve">Down stream systems</text>
    </g>
    <g fill="url(#linearGradient9)" text-rendering="geometricPrecision" shape-rendering="geometricPrecision" transform="matrix(1,0,0,1,374,190)" stroke="url(#linearGradient9)">
      <rect x="762.7566" width="113" height="40" y="153.2742" clip-path="url(#clipPath2)" stroke="none"/>
    </g>
    <g text-rendering="geometricPrecision" stroke-miterlimit="1.45" shape-rendering="geometricPrecision" transform="matrix(1,0,0,1,374,190)" stroke-linecap="butt">
      <rect fill="none" x="762.7566" width="113" height="40" y="153.2742" clip-path="url(#clipPath2)"/>
      <path fill="none" d="M772.7566 153.2742 L772.7566 193.2742 M865.7566 153.2742 L865.7566 193.2742 M772.7566 153.2742 Z" clip-path="url(#clipPath2)"/>
      <text x="791.571" xml:space="preserve" y="177.988" clip-path="url(#clipPath2)" font-family="sans-serif" stroke="none">API based</text>
    </g>
    <g fill="url(#linearGradient10)" text-rendering="geometricPrecision" shape-rendering="geometricPrecision" transform="matrix(1,0,0,1,374,190)" stroke="url(#linearGradient10)">
      <path d="M762.7566 223.2742 L875.7566 223.2742 L875.7566 263.2742 L762.7566 263.2742 Z" stroke="none" clip-path="url(#clipPath2)"/>
    </g>
    <g text-rendering="geometricPrecision" stroke-miterlimit="1.45" shape-rendering="geometricPrecision" transform="matrix(1,0,0,1,374,190)" stroke-linecap="butt">
      <path fill="none" d="M762.7566 223.2742 L875.7566 223.2742 L875.7566 263.2742 L762.7566 263.2742 Z" clip-path="url(#clipPath2)"/>
      <text x="776.5652" xml:space="preserve" y="247.988" clip-path="url(#clipPath2)" font-family="sans-serif" stroke="none">API Integrations</text>
    </g>
    <g fill="url(#linearGradient11)" text-rendering="geometricPrecision" shape-rendering="geometricPrecision" transform="matrix(1,0,0,1,374,190)" stroke="url(#linearGradient11)">
      <rect x="545.9639" width="72" height="48" y="307.082" clip-path="url(#clipPath2)" stroke="none"/>
    </g>
    <g text-rendering="geometricPrecision" stroke-miterlimit="1.45" shape-rendering="geometricPrecision" transform="matrix(1,0,0,1,374,190)" stroke-linecap="butt">
      <rect fill="none" x="545.9639" width="72" height="48" y="307.082" clip-path="url(#clipPath2)"/>
      <path fill="none" d="M555.9639 307.082 L555.9639 355.082 M545.9639 317.082 L617.9639 317.082 M555.9639 307.082 Z" clip-path="url(#clipPath2)"/>
      <text x="571.9531" xml:space="preserve" y="331.7441" clip-path="url(#clipPath2)" font-family="sans-serif" stroke="none">Log</text>
      <text x="569.2959" xml:space="preserve" y="346.4453" clip-path="url(#clipPath2)" font-family="sans-serif" stroke="none">Files</text>
    </g>
    <g fill="url(#linearGradient12)" text-rendering="geometricPrecision" shape-rendering="geometricPrecision" transform="matrix(1,0,0,1,374,190)" stroke="url(#linearGradient12)">
      <rect x="556.9823" y="-27.41" clip-path="url(#clipPath2)" width="145" rx="30.5545" ry="30.5545" height="61.1091" stroke="none"/>
    </g>
    <g text-rendering="geometricPrecision" stroke-miterlimit="1.45" shape-rendering="geometricPrecision" transform="matrix(1,0,0,1,374,190)" stroke-linecap="butt">
      <rect x="556.9823" y="-27.41" clip-path="url(#clipPath2)" fill="none" width="145" rx="30.5545" ry="30.5545" height="61.1091"/>
      <text x="583.4745" xml:space="preserve" y="-6.8428" clip-path="url(#clipPath2)" font-family="sans-serif" stroke="none">Clinical MDR API</text>
      <text x="595.4628" xml:space="preserve" y="7.8584" clip-path="url(#clipPath2)" font-family="sans-serif" stroke="none">Specification</text>
      <text x="570.7889" xml:space="preserve" y="22.5596" clip-path="url(#clipPath2)" font-family="sans-serif" stroke="none">[Open API (Swagger)]</text>
    </g>
    <g fill="url(#linearGradient13)" text-rendering="geometricPrecision" shape-rendering="geometricPrecision" transform="matrix(1,0,0,1,374,190)" stroke="url(#linearGradient13)">
      <path d="M300.5 359.032 C304.37 343.832 425.63 343.832 429.5 359.032 L429.5 404.632 C425.63 419.832 304.37 419.832 300.5 404.632 Z" stroke="none" clip-path="url(#clipPath2)"/>
    </g>
    <g text-rendering="geometricPrecision" stroke-miterlimit="1.45" shape-rendering="geometricPrecision" transform="matrix(1,0,0,1,374,190)" stroke-linecap="butt">
      <path fill="none" d="M300.5 359.032 C304.37 343.832 425.63 343.832 429.5 359.032 L429.5 404.632 C425.63 419.832 304.37 419.832 300.5 404.632 Z" clip-path="url(#clipPath2)"/>
      <path fill="none" d="M429.5 359.032 C425.63 374.232 304.37 374.232 300.5 359.032" clip-path="url(#clipPath2)"/>
      <text x="317.9697" xml:space="preserve" y="388.9772" clip-path="url(#clipPath2)" font-family="sans-serif" stroke="none">Graph Database</text>
      <text x="342.9863" xml:space="preserve" y="403.6783" clip-path="url(#clipPath2)" font-family="sans-serif" stroke="none">[Neo4j]</text>
    </g>
    <g fill="url(#linearGradient14)" text-rendering="geometricPrecision" shape-rendering="geometricPrecision" transform="matrix(1,0,0,1,374,190)" stroke="url(#linearGradient14)">
      <path d="M300.5 308.282 C304.37 293.082 425.63 293.082 429.5 308.282 L429.5 353.882 C425.63 369.082 304.37 369.082 300.5 353.882 Z" stroke="none" clip-path="url(#clipPath2)"/>
    </g>
    <g text-rendering="geometricPrecision" stroke-miterlimit="1.45" shape-rendering="geometricPrecision" transform="matrix(1,0,0,1,374,190)" stroke-linecap="butt">
      <path fill="none" d="M300.5 308.282 C304.37 293.082 425.63 293.082 429.5 308.282 L429.5 353.882 C425.63 369.082 304.37 369.082 300.5 353.882 Z" clip-path="url(#clipPath2)"/>
      <path fill="none" d="M429.5 308.282 C425.63 323.482 304.37 323.482 300.5 308.282" clip-path="url(#clipPath2)"/>
      <text x="330.3301" xml:space="preserve" y="338.2272" clip-path="url(#clipPath2)" font-family="sans-serif" stroke="none">Clinical MDR</text>
      <text x="342.3242" xml:space="preserve" y="352.9283" clip-path="url(#clipPath2)" font-family="sans-serif" stroke="none">[Cypher]</text>
    </g>
    <g text-rendering="geometricPrecision" stroke-miterlimit="1.45" shape-rendering="geometricPrecision" transform="matrix(1,0,0,1,374,190)" stroke-linecap="butt">
      <rect fill="none" x="-346.3333" width="221.8333" height="168.799" y="335.033" clip-path="url(#clipPath2)"/>
      <text x="-340.3333" xml:space="preserve" y="353.0975" clip-path="url(#clipPath2)" font-family="sans-serif" stroke="none">CDISC Library</text>
    </g>
    <g fill="url(#linearGradient15)" text-rendering="geometricPrecision" shape-rendering="geometricPrecision" transform="matrix(1,0,0,1,374,190)" stroke="url(#linearGradient15)">
      <rect x="-257.875" width="113" height="40" y="368.5084" clip-path="url(#clipPath2)" stroke="none"/>
    </g>
    <g text-rendering="geometricPrecision" stroke-miterlimit="1.45" shape-rendering="geometricPrecision" transform="matrix(1,0,0,1,374,190)" stroke-linecap="butt">
      <rect fill="none" x="-257.875" width="113" height="40" y="368.5084" clip-path="url(#clipPath2)"/>
      <path fill="none" d="M-247.875 368.5084 L-247.875 408.5084 M-154.875 368.5084 L-154.875 408.5084 M-247.875 368.5084 Z" clip-path="url(#clipPath2)"/>
      <text x="-240.0498" xml:space="preserve" y="385.8717" clip-path="url(#clipPath2)" font-family="sans-serif" stroke="none">CDISC Library</text>
      <text x="-211.0459" xml:space="preserve" y="400.5728" clip-path="url(#clipPath2)" font-family="sans-serif" stroke="none">API</text>
    </g>
    <g text-rendering="geometricPrecision" stroke-miterlimit="1.45" shape-rendering="geometricPrecision" transform="matrix(1,0,0,1,374,190)" stroke-linecap="butt">
      <rect fill="none" x="-346.3333" width="221.8333" height="153.3672" y="175.1943" clip-path="url(#clipPath2)"/>
      <text x="-340.3333" xml:space="preserve" y="193.2587" clip-path="url(#clipPath2)" font-family="sans-serif" stroke="none">Other sources</text>
    </g>
    <g fill="url(#linearGradient16)" text-rendering="geometricPrecision" shape-rendering="geometricPrecision" transform="matrix(1,0,0,1,374,190)" stroke="url(#linearGradient16)">
      <rect x="-254.599" width="113" height="30.25" y="205.862" clip-path="url(#clipPath2)" stroke="none"/>
    </g>
    <g text-rendering="geometricPrecision" stroke-miterlimit="1.45" shape-rendering="geometricPrecision" transform="matrix(1,0,0,1,374,190)" stroke-linecap="butt">
      <rect fill="none" x="-254.599" width="113" height="30.25" y="205.862" clip-path="url(#clipPath2)"/>
      <path fill="none" d="M-244.599 205.862 L-244.599 236.112 M-254.599 215.862 L-141.599 215.862 M-244.599 205.862 Z" clip-path="url(#clipPath2)"/>
      <text x="-229.4438" xml:space="preserve" y="225.7009" clip-path="url(#clipPath2)" font-family="sans-serif" stroke="none">Dictionaries</text>
    </g>
    <g fill="url(#linearGradient17)" text-rendering="geometricPrecision" shape-rendering="geometricPrecision" transform="matrix(1,0,0,1,374,190)" stroke="url(#linearGradient17)">
      <path d="M-43.4282 445.8584 C-42.082 436.1366 0.0984 436.1366 1.4445 445.8584 L1.4445 475.0238 C0.0984 484.7457 -42.082 484.7457 -43.4282 475.0238 Z" stroke="none" clip-path="url(#clipPath2)"/>
    </g>
    <g text-rendering="geometricPrecision" stroke-miterlimit="1.45" shape-rendering="geometricPrecision" transform="matrix(1,0,0,1,374,190)" stroke-linecap="butt">
      <path fill="none" d="M-43.4282 445.8584 C-42.082 436.1366 0.0984 436.1366 1.4445 445.8584 L1.4445 475.0238 C0.0984 484.7457 -42.082 484.7457 -43.4282 475.0238 Z" clip-path="url(#clipPath2)"/>
      <path fill="none" d="M1.4445 445.8584 C0.0984 455.5802 -42.082 455.5802 -43.4282 445.8584" clip-path="url(#clipPath2)"/>
      <text x="-33.7778" font-size="8px" y="461.7772" clip-path="url(#clipPath2)" font-family="sans-serif" stroke="none" xml:space="preserve">Staging</text>
      <text x="-24.6606" font-size="8px" y="471.578" clip-path="url(#clipPath2)" font-family="sans-serif" stroke="none" xml:space="preserve">db</text>
    </g>
    <g fill="url(#linearGradient18)" text-rendering="geometricPrecision" shape-rendering="geometricPrecision" transform="matrix(1,0,0,1,374,190)" stroke="url(#linearGradient18)">
      <rect x="-100.1591" width="50.1673" height="44.2182" y="436.1366" clip-path="url(#clipPath2)" stroke="none"/>
    </g>
    <g text-rendering="geometricPrecision" stroke-miterlimit="1.45" shape-rendering="geometricPrecision" transform="matrix(1,0,0,1,374,190)" stroke-linecap="butt">
      <rect fill="none" x="-100.1591" width="50.1673" height="44.2182" y="436.1366" clip-path="url(#clipPath2)"/>
      <path fill="none" d="M-90.1591 436.1366 L-90.1591 480.3547 M-100.1591 446.1366 L-49.9918 446.1366 M-90.1591 436.1366 Z" clip-path="url(#clipPath2)"/>
      <text x="-81.163" font-size="8px" y="456.7772" clip-path="url(#clipPath2)" font-family="sans-serif" stroke="none" xml:space="preserve">CDISC</text>
      <text x="-80.0536" font-size="8px" y="466.578" clip-path="url(#clipPath2)" font-family="sans-serif" stroke="none" xml:space="preserve">Import</text>
      <text x="-77.163" font-size="8px" y="476.3788" clip-path="url(#clipPath2)" font-family="sans-serif" stroke="none" xml:space="preserve">Files</text>
    </g>
    <g fill="url(#linearGradient19)" text-rendering="geometricPrecision" shape-rendering="geometricPrecision" transform="matrix(1,0,0,1,374,190)" stroke="url(#linearGradient19)">
      <path d="M-92.6609 357.5275 L27.1609 357.5275 L27.1609 406.1366 L-92.6609 406.1366 Z" stroke="none" clip-path="url(#clipPath2)"/>
    </g>
    <g text-rendering="geometricPrecision" stroke-miterlimit="1.45" shape-rendering="geometricPrecision" transform="matrix(1,0,0,1,374,190)" stroke-linecap="butt">
      <path fill="none" d="M-92.6609 357.5275 L27.1609 357.5275 L27.1609 406.1366 L-92.6609 406.1366 Z" clip-path="url(#clipPath2)"/>
      <text x="-71.4248" xml:space="preserve" y="371.8447" clip-path="url(#clipPath2)" font-family="sans-serif" stroke="none">CDISC Library</text>
      <text x="-78.7725" xml:space="preserve" y="386.5459" clip-path="url(#clipPath2)" font-family="sans-serif" stroke="none">Standards Import</text>
      <text x="-78.7725" xml:space="preserve" y="401.2471" clip-path="url(#clipPath2)" font-family="sans-serif" stroke="none">[Python program]</text>
    </g>
    <g fill="url(#linearGradient20)" text-rendering="geometricPrecision" shape-rendering="geometricPrecision" transform="matrix(1,0,0,1,374,190)" stroke="url(#linearGradient20)">
      <path d="M-92.6609 205.6802 L27.1609 205.6802 L27.1609 249.8984 L-92.6609 249.8984 Z" stroke="none" clip-path="url(#clipPath2)"/>
    </g>
    <g text-rendering="geometricPrecision" stroke-miterlimit="1.45" shape-rendering="geometricPrecision" transform="matrix(1,0,0,1,374,190)" stroke-linecap="butt">
      <path fill="none" d="M-92.6609 205.6802 L27.1609 205.6802 L27.1609 249.8984 L-92.6609 249.8984 Z" clip-path="url(#clipPath2)"/>
      <text x="-64.0947" xml:space="preserve" y="225.1526" clip-path="url(#clipPath2)" font-family="sans-serif" stroke="none">Data Import</text>
      <text x="-78.7725" xml:space="preserve" y="239.8538" clip-path="url(#clipPath2)" font-family="sans-serif" stroke="none">[Python program]</text>
    </g>
    <g fill="url(#linearGradient21)" text-rendering="geometricPrecision" shape-rendering="geometricPrecision" transform="matrix(1,0,0,1,374,190)" stroke="url(#linearGradient21)">
      <rect x="-254.599" width="113" height="30.25" y="241.7263" clip-path="url(#clipPath2)" stroke="none"/>
    </g>
    <g text-rendering="geometricPrecision" stroke-miterlimit="1.45" shape-rendering="geometricPrecision" transform="matrix(1,0,0,1,374,190)" stroke-linecap="butt">
      <rect fill="none" x="-254.599" width="113" height="30.25" y="241.7263" clip-path="url(#clipPath2)"/>
      <path fill="none" d="M-244.599 241.7263 L-244.599 271.9763 M-254.599 251.7263 L-141.599 251.7263 M-244.599 241.7263 Z" clip-path="url(#clipPath2)"/>
      <text x="-236.4545" xml:space="preserve" y="261.5652" clip-path="url(#clipPath2)" font-family="sans-serif" stroke="none">Sponsor Dtata</text>
    </g>
    <g fill="url(#linearGradient22)" text-rendering="geometricPrecision" shape-rendering="geometricPrecision" transform="matrix(1,0,0,1,374,190)" stroke="url(#linearGradient22)">
      <rect x="8.0082" width="54.7055" height="43.9136" y="436.4411" clip-path="url(#clipPath2)" stroke="none"/>
    </g>
    <g text-rendering="geometricPrecision" stroke-miterlimit="1.45" shape-rendering="geometricPrecision" transform="matrix(1,0,0,1,374,190)" stroke-linecap="butt">
      <rect fill="none" x="8.0082" width="54.7055" height="43.9136" y="436.4411" clip-path="url(#clipPath2)"/>
      <path fill="none" d="M18.0082 436.4411 L18.0082 480.3547 M8.0082 446.4411 L62.7136 446.4411 M18.0082 436.4411 Z" clip-path="url(#clipPath2)"/>
      <text x="25.1345" font-size="8px" y="457.0817" clip-path="url(#clipPath2)" font-family="sans-serif" stroke="none" xml:space="preserve">CDISC</text>
      <text x="26.2439" font-size="8px" y="466.8825" clip-path="url(#clipPath2)" font-family="sans-serif" stroke="none" xml:space="preserve">Import</text>
      <text x="21.3494" font-size="8px" y="476.6833" clip-path="url(#clipPath2)" font-family="sans-serif" stroke="none" xml:space="preserve">Log Files</text>
    </g>
    <g fill="url(#linearGradient23)" text-rendering="geometricPrecision" shape-rendering="geometricPrecision" transform="matrix(1,0,0,1,374,190)" stroke="url(#linearGradient23)">
      <rect x="-92.8773" width="54.7055" height="40" y="279.8984" clip-path="url(#clipPath2)" stroke="none"/>
    </g>
    <g text-rendering="geometricPrecision" stroke-miterlimit="1.45" shape-rendering="geometricPrecision" transform="matrix(1,0,0,1,374,190)" stroke-linecap="butt">
      <rect fill="none" x="-92.8773" width="54.7055" height="40" y="279.8984" clip-path="url(#clipPath2)"/>
      <path fill="none" d="M-82.8773 279.8984 L-82.8773 319.8984 M-92.8773 289.8984 L-38.1718 289.8984 M-82.8773 279.8984 Z" clip-path="url(#clipPath2)"/>
      <text x="-71.3265" font-size="8px" y="297.6659" clip-path="url(#clipPath2)" font-family="sans-serif" stroke="none" xml:space="preserve">Data</text>
      <text x="-74.2132" font-size="8px" y="307.4666" clip-path="url(#clipPath2)" font-family="sans-serif" stroke="none" xml:space="preserve">Import</text>
      <text x="-71.3226" font-size="8px" y="317.2674" clip-path="url(#clipPath2)" font-family="sans-serif" stroke="none" xml:space="preserve">Files</text>
    </g>
    <g fill="url(#linearGradient24)" text-rendering="geometricPrecision" shape-rendering="geometricPrecision" transform="matrix(1,0,0,1,374,190)" stroke="url(#linearGradient24)">
      <rect x="-27.5445" width="54.7055" height="40" y="279.8984" clip-path="url(#clipPath2)" stroke="none"/>
    </g>
    <g text-rendering="geometricPrecision" stroke-miterlimit="1.45" shape-rendering="geometricPrecision" transform="matrix(1,0,0,1,374,190)" stroke-linecap="butt">
      <rect fill="none" x="-27.5445" width="54.7055" height="40" y="279.8984" clip-path="url(#clipPath2)"/>
      <path fill="none" d="M-17.5445 279.8984 L-17.5445 319.8984 M-27.5445 289.8984 L27.1609 289.8984 M-17.5445 279.8984 Z" clip-path="url(#clipPath2)"/>
      <text x="-6.9399" font-size="8px" y="297.6659" clip-path="url(#clipPath2)" font-family="sans-serif" stroke="none" xml:space="preserve">Data</text>
      <text x="-9.8266" font-size="8px" y="307.4666" clip-path="url(#clipPath2)" font-family="sans-serif" stroke="none" xml:space="preserve">Import</text>
      <text x="-14.7212" font-size="8px" y="317.2674" clip-path="url(#clipPath2)" font-family="sans-serif" stroke="none" xml:space="preserve">Log Files</text>
    </g>
    <g text-rendering="geometricPrecision" stroke-miterlimit="1.45" shape-rendering="geometricPrecision" transform="matrix(1,0,0,1,374,190)" stroke-linecap="butt">
      <path fill="none" d="M115.9342 122.0694 L115.9342 68.6478" clip-path="url(#clipPath2)"/>
      <path d="M115.9342 130.0694 L120.9342 118.0694 L115.9342 121.0694 L110.9342 118.0694 Z" clip-path="url(#clipPath2)" stroke="none"/>
      <path d="M115.9342 60.6478 L110.9342 72.6478 L115.9342 69.6478 L120.9342 72.6478 Z" clip-path="url(#clipPath2)" stroke="none"/>
      <path fill="none" d="M292.5193 3.1445 L304.3175 3.1445" clip-path="url(#clipPath2)"/>
      <path d="M312.3175 3.1445 L300.3175 -1.8555 L303.3175 3.1445 L300.3175 8.1445 Z" clip-path="url(#clipPath2)" stroke="none"/>
      <path fill="none" d="M-160.0213 140.3014 L-109.8183 140.3014" clip-path="url(#clipPath2)"/>
      <path d="M-101.8183 140.3014 L-113.8183 135.3014 L-110.8183 140.3014 L-113.8183 145.3014 Z" clip-path="url(#clipPath2)" stroke="none"/>
      <path fill="none" d="M29.6914 150.8611 L58.1503 150.8611" clip-path="url(#clipPath2)"/>
      <path d="M21.6914 150.8611 L33.6914 155.8611 L30.6914 150.8611 L33.6914 145.8611 Z" clip-path="url(#clipPath2)" stroke="none"/>
      <path d="M66.1503 150.8611 L54.1503 145.8611 L57.1503 150.8611 L54.1503 155.8611 Z" clip-path="url(#clipPath2)" stroke="none"/>
      <path fill="none" d="M684.0275 173.2742 L754.7681 173.2742" clip-path="url(#clipPath2)"/>
      <path d="M762.7681 173.2742 L750.7681 168.2742 L753.7681 173.2742 L750.7681 178.2742 Z" clip-path="url(#clipPath2)" stroke="none"/>
      <path fill="none" d="M683.9725 243.2742 L754.7451 243.2742" clip-path="url(#clipPath2)"/>
      <path d="M762.7451 243.2742 L750.7451 238.2742 L753.7451 243.2742 L750.7451 248.2742 Z" clip-path="url(#clipPath2)" stroke="none"/>
      <path fill="none" d="M582.7979 255.4486 L582.3163 299.1147" clip-path="url(#clipPath2)"/>
      <path d="M582.2281 307.1142 L587.3602 295.17 L582.3274 298.1147 L577.3607 295.0598 Z" clip-path="url(#clipPath2)" stroke="none"/>
      <path fill="none" d="M629.4823 130.0169 L629.4823 41.7166" clip-path="url(#clipPath2)"/>
      <path d="M629.4823 33.7166 L624.4823 45.7166 L629.4823 42.7166 L634.4823 45.7166 Z" clip-path="url(#clipPath2)" stroke="none"/>
      <path fill="none" d="M367.5419 263.4062 L366.584 288.9105" clip-path="url(#clipPath2)"/>
      <path d="M367.8422 255.4118 L362.3953 267.2157 L367.5044 264.4055 L372.3882 267.5911 Z" clip-path="url(#clipPath2)" stroke="none"/>
      <path d="M366.2837 296.9048 L371.7306 285.1009 L366.6215 287.9112 L361.7376 284.7256 Z" clip-path="url(#clipPath2)" stroke="none"/>
      <path fill="none" d="M-144.8666 388.5084 L-100.6276 388.5084" clip-path="url(#clipPath2)"/>
      <path d="M-92.6276 388.5084 L-104.6276 383.5084 L-101.6276 388.5084 L-104.6276 393.5084 Z" clip-path="url(#clipPath2)" stroke="none"/>
      <path fill="none" d="M-75.0755 414.1369 L-75.0755 428.135" clip-path="url(#clipPath2)"/>
      <path d="M-75.0755 406.1369 L-80.0755 418.1369 L-75.0755 415.1369 L-70.0755 418.1369 Z" clip-path="url(#clipPath2)" stroke="none"/>
      <path d="M-75.0755 436.135 L-70.0755 424.135 L-75.0755 427.135 L-80.0755 424.135 Z" clip-path="url(#clipPath2)" stroke="none"/>
      <path fill="none" d="M-20.9918 414.1219 L-20.9918 430.5596" clip-path="url(#clipPath2)"/>
      <path d="M-20.9918 406.1219 L-25.9918 418.1219 L-20.9918 415.1219 L-15.9918 418.1219 Z" clip-path="url(#clipPath2)" stroke="none"/>
      <path d="M-20.9918 438.5596 L-15.9918 426.5596 L-20.9918 429.5596 L-25.9918 426.5596 Z" clip-path="url(#clipPath2)" stroke="none"/>
      <path fill="none" d="M27.1164 381.832 L292.5332 381.832" clip-path="url(#clipPath2)"/>
      <path d="M300.5332 381.832 L288.5332 376.832 L291.5332 381.832 L288.5332 386.832 Z" clip-path="url(#clipPath2)" stroke="none"/>
      <path fill="none" d="M-141.6271 216.1599 L-100.6883 216.1599" clip-path="url(#clipPath2)"/>
      <path d="M-92.6883 216.1599 L-104.6883 211.1599 L-101.6883 216.1599 L-104.6883 221.1599 Z" clip-path="url(#clipPath2)" stroke="none"/>
      <path fill="none" d="M27.1746 227.7893 L58.1816 227.7893" clip-path="url(#clipPath2)"/>
      <path d="M66.1816 227.7893 L54.1816 222.7893 L57.1816 227.7893 L54.1816 232.7893 Z" clip-path="url(#clipPath2)" stroke="none"/>
      <path fill="none" d="M-141.6179 247.1495 L-100.6848 247.1495" clip-path="url(#clipPath2)"/>
      <path d="M-92.6848 247.1495 L-104.6848 242.1495 L-101.6848 247.1495 L-104.6848 252.1495 Z" clip-path="url(#clipPath2)" stroke="none"/>
      <path fill="none" d="M14.6612 406.1547 L15.2659 428.416" clip-path="url(#clipPath2)"/>
      <path d="M15.4831 436.4131 L20.1554 424.2817 L15.2387 427.4164 L10.1591 424.5532 Z" clip-path="url(#clipPath2)" stroke="none"/>
      <path fill="none" d="M-65.5245 257.9447 L-65.5245 271.9462" clip-path="url(#clipPath2)"/>
      <path d="M-65.5245 249.9447 L-70.5245 261.9447 L-65.5245 258.9447 L-60.5245 261.9447 Z" clip-path="url(#clipPath2)" stroke="none"/>
      <path d="M-65.5245 279.9462 L-60.5245 267.9462 L-65.5245 270.9462 L-70.5245 267.9462 Z" clip-path="url(#clipPath2)" stroke="none"/>
      <path fill="none" d="M-0.1918 249.9202 L-0.1918 271.9364" clip-path="url(#clipPath2)"/>
      <path d="M-0.1918 279.9364 L4.8082 267.9364 L-0.1918 270.9364 L-5.1918 267.9364 Z" clip-path="url(#clipPath2)" stroke="none"/>
    </g>
  </g>
</svg>
