<?xml version="1.0" encoding="UTF-8"?><svg xmlns="http://www.w3.org/2000/svg" xmlns:xlink="http://www.w3.org/1999/xlink" fill-opacity="1" color-rendering="auto" color-interpolation="auto" text-rendering="auto" stroke="black" stroke-linecap="square" width="1246" stroke-miterlimit="10" shape-rendering="auto" stroke-opacity="1" fill="black" stroke-dasharray="none" font-weight="normal" stroke-width="1" height="536" font-family="'Dialog'" font-style="normal" stroke-linejoin="miter" font-size="12px" stroke-dashoffset="0" image-rendering="auto">
  <!--Generated by ySVG 2.5-->
  <defs id="genericDefs"/>
  <g>
    <defs id="defs1">
      <linearGradient x1="106" gradientUnits="userSpaceOnUse" x2="219" y1="208" y2="248" id="linearGradient1" spreadMethod="reflect">
        <stop stop-opacity="1" stop-color="rgb(232,238,247)" offset="0%"/>
        <stop stop-opacity="1" stop-color="rgb(183,201,227)" offset="100%"/>
      </linearGradient>
      <linearGradient x1="106" gradientUnits="userSpaceOnUse" x2="219" y1="356" y2="396" id="linearGradient2" spreadMethod="reflect">
        <stop stop-opacity="1" stop-color="rgb(232,238,247)" offset="0%"/>
        <stop stop-opacity="1" stop-color="rgb(183,201,227)" offset="100%"/>
      </linearGradient>
      <linearGradient x1="162" gradientUnits="userSpaceOnUse" x2="234" y1="469" y2="509" id="linearGradient3" spreadMethod="reflect">
        <stop stop-opacity="1" stop-color="rgb(232,238,247)" offset="0%"/>
        <stop stop-opacity="1" stop-color="rgb(183,201,227)" offset="100%"/>
      </linearGradient>
      <linearGradient x1="49" gradientUnits="userSpaceOnUse" x2="121" y1="469" y2="509" id="linearGradient4" spreadMethod="reflect">
        <stop stop-opacity="1" stop-color="rgb(232,238,247)" offset="0%"/>
        <stop stop-opacity="1" stop-color="rgb(183,201,227)" offset="100%"/>
      </linearGradient>
      <linearGradient x1="610.5" gradientUnits="userSpaceOnUse" x2="690.5" y1="306" y2="364" id="linearGradient5" spreadMethod="reflect">
        <stop stop-opacity="1" stop-color="rgb(232,238,247)" offset="0%"/>
        <stop stop-opacity="1" stop-color="rgb(183,201,227)" offset="100%"/>
      </linearGradient>
      <linearGradient x1="406" gradientUnits="userSpaceOnUse" x2="466" y1="287.7819" y2="335.7819" id="linearGradient6" spreadMethod="reflect">
        <stop stop-opacity="1" stop-color="rgb(232,238,247)" offset="0%"/>
        <stop stop-opacity="1" stop-color="rgb(183,201,227)" offset="100%"/>
      </linearGradient>
      <linearGradient x1="312.5" gradientUnits="userSpaceOnUse" x2="384.5" y1="287.7819" y2="335.7819" id="linearGradient7" spreadMethod="reflect">
        <stop stop-opacity="1" stop-color="rgb(232,238,247)" offset="0%"/>
        <stop stop-opacity="1" stop-color="rgb(183,201,227)" offset="100%"/>
      </linearGradient>
      <linearGradient x1="312.5" gradientUnits="userSpaceOnUse" x2="399.5" y1="466" y2="514" id="linearGradient8" spreadMethod="reflect">
        <stop stop-opacity="1" stop-color="rgb(232,238,247)" offset="0%"/>
        <stop stop-opacity="1" stop-color="rgb(183,201,227)" offset="100%"/>
      </linearGradient>
      <linearGradient x1="486" gradientUnits="userSpaceOnUse" x2="558" y1="470" y2="510" id="linearGradient9" spreadMethod="reflect">
        <stop stop-opacity="1" stop-color="rgb(232,238,247)" offset="0%"/>
        <stop stop-opacity="1" stop-color="rgb(183,201,227)" offset="100%"/>
      </linearGradient>
      <linearGradient x1="312.5" gradientUnits="userSpaceOnUse" x2="399.5" y1="208" y2="248" id="linearGradient10" spreadMethod="reflect">
        <stop stop-opacity="1" stop-color="rgb(232,238,247)" offset="0%"/>
        <stop stop-opacity="1" stop-color="rgb(183,201,227)" offset="100%"/>
      </linearGradient>
      <linearGradient x1="457" gradientUnits="userSpaceOnUse" x2="844" y1="223" y2="271" id="linearGradient11" spreadMethod="reflect">
        <stop stop-opacity="1" stop-color="rgb(232,238,247)" offset="0%"/>
        <stop stop-opacity="1" stop-color="rgb(183,201,227)" offset="100%"/>
      </linearGradient>
      <linearGradient x1="478" gradientUnits="userSpaceOnUse" x2="623" y1="146" y2="186" id="linearGradient12" spreadMethod="reflect">
        <stop stop-opacity="1" stop-color="rgb(232,238,247)" offset="0%"/>
        <stop stop-opacity="1" stop-color="rgb(183,201,227)" offset="100%"/>
      </linearGradient>
      <linearGradient x1="1121.4823" gradientUnits="userSpaceOnUse" x2="1201.4823" y1="260" y2="300" id="linearGradient13" spreadMethod="reflect">
        <stop stop-opacity="1" stop-color="rgb(232,238,247)" offset="0%"/>
        <stop stop-opacity="1" stop-color="rgb(183,201,227)" offset="100%"/>
      </linearGradient>
      <linearGradient x1="1088.4823" gradientUnits="userSpaceOnUse" x2="1240.4823" y1="372" y2="412" id="linearGradient14" spreadMethod="reflect">
        <stop stop-opacity="1" stop-color="rgb(232,238,247)" offset="0%"/>
        <stop stop-opacity="1" stop-color="rgb(183,201,227)" offset="100%"/>
      </linearGradient>
      <linearGradient x1="1088.4823" gradientUnits="userSpaceOnUse" x2="1240.4823" y1="431.5" y2="471.5" id="linearGradient15" spreadMethod="reflect">
        <stop stop-opacity="1" stop-color="rgb(232,238,247)" offset="0%"/>
        <stop stop-opacity="1" stop-color="rgb(183,201,227)" offset="100%"/>
      </linearGradient>
      <linearGradient x1="1088.4823" gradientUnits="userSpaceOnUse" x2="1240.4823" y1="491" y2="531" id="linearGradient16" spreadMethod="reflect">
        <stop stop-opacity="1" stop-color="rgb(232,238,247)" offset="0%"/>
        <stop stop-opacity="1" stop-color="rgb(183,201,227)" offset="100%"/>
      </linearGradient>
      <linearGradient x1="312.5" gradientUnits="userSpaceOnUse" x2="384.5" y1="356" y2="396" id="linearGradient17" spreadMethod="reflect">
        <stop stop-opacity="1" stop-color="rgb(232,238,247)" offset="0%"/>
        <stop stop-opacity="1" stop-color="rgb(183,201,227)" offset="100%"/>
      </linearGradient>
      <clipPath clipPathUnits="userSpaceOnUse" id="clipPath1">
        <path d="M0 0 L1246 0 L1246 536 L0 536 L0 0 Z"/>
      </clipPath>
      <clipPath clipPathUnits="userSpaceOnUse" id="clipPath2">
        <path d="M20 22 L1266 22 L1266 558 L20 558 L20 22 Z"/>
      </clipPath>
    </defs>
    <g fill="white" text-rendering="geometricPrecision" shape-rendering="geometricPrecision" transform="translate(-20,-22)" stroke="white">
      <rect x="20" width="1246" height="536" y="22" clip-path="url(#clipPath2)" stroke="none"/>
    </g>
    <g text-rendering="geometricPrecision" stroke-miterlimit="1.45" shape-rendering="geometricPrecision" transform="matrix(1,0,0,1,-20,-22)" stroke-linecap="butt">
      <rect fill="none" x="287" width="754.9823" height="408" y="135" clip-path="url(#clipPath2)"/>
      <text x="293" xml:space="preserve" y="153.0645" clip-path="url(#clipPath2)" font-family="sans-serif" stroke="none">StudyBuilder System</text>
    </g>
    <g text-rendering="geometricPrecision" stroke-miterlimit="1.45" shape-rendering="geometricPrecision" transform="matrix(1,0,0,1,-20,-22)" stroke-linecap="butt">
      <rect fill="none" x="36" width="1214.9823" height="40" y="37.2181" clip-path="url(#clipPath2)"/>
      <path fill="none" d="M46 37.2181 L46 77.2181 M1240.9823 37.2181 L1240.9823 77.2181 M46 37.2181 Z" clip-path="url(#clipPath2)"/>
      <text x="460.1274" font-size="22px" y="65.8602" clip-path="url(#clipPath2)" font-family="sans-serif" stroke="none" font-weight="bold" xml:space="preserve">StudyBuilder: System Integrations </text>
    </g>
    <g text-rendering="geometricPrecision" stroke-miterlimit="1.45" shape-rendering="geometricPrecision" transform="matrix(1,0,0,1,-20,-22)" stroke-linecap="butt">
      <rect fill="none" x="36" width="221.8333" height="126" y="135" clip-path="url(#clipPath2)"/>
      <text x="42" xml:space="preserve" y="153.0645" clip-path="url(#clipPath2)" font-family="sans-serif" stroke="none">CDISC Library</text>
    </g>
    <g fill="url(#linearGradient1)" text-rendering="geometricPrecision" shape-rendering="geometricPrecision" transform="matrix(1,0,0,1,-20,-22)" stroke="url(#linearGradient1)">
      <rect x="106" width="113" height="40" y="208" clip-path="url(#clipPath2)" stroke="none"/>
    </g>
    <g text-rendering="geometricPrecision" stroke-miterlimit="1.45" shape-rendering="geometricPrecision" transform="matrix(1,0,0,1,-20,-22)" stroke-linecap="butt">
      <rect fill="none" x="106" width="113" height="40" y="208" clip-path="url(#clipPath2)"/>
      <path fill="none" d="M116 208 L116 248 M209 208 L209 248 M116 208 Z" clip-path="url(#clipPath2)"/>
      <text x="123.8252" xml:space="preserve" y="225.3633" clip-path="url(#clipPath2)" font-family="sans-serif" stroke="none">CDISC Library</text>
      <text x="152.8291" xml:space="preserve" y="240.0645" clip-path="url(#clipPath2)" font-family="sans-serif" stroke="none">API</text>
    </g>
    <g text-rendering="geometricPrecision" stroke-miterlimit="1.45" shape-rendering="geometricPrecision" transform="matrix(1,0,0,1,-20,-22)" stroke-linecap="butt">
      <rect fill="none" x="36" width="221.8333" height="134" y="278" clip-path="url(#clipPath2)"/>
      <text x="42" xml:space="preserve" y="296.0645" clip-path="url(#clipPath2)" font-family="sans-serif" stroke="none">Other External sources</text>
    </g>
    <g fill="url(#linearGradient2)" text-rendering="geometricPrecision" shape-rendering="geometricPrecision" transform="matrix(1,0,0,1,-20,-22)" stroke="url(#linearGradient2)">
      <rect x="106" width="113" height="40" y="356" clip-path="url(#clipPath2)" stroke="none"/>
    </g>
    <g text-rendering="geometricPrecision" stroke-miterlimit="1.45" shape-rendering="geometricPrecision" transform="matrix(1,0,0,1,-20,-22)" stroke-linecap="butt">
      <rect fill="none" x="106" width="113" height="40" y="356" clip-path="url(#clipPath2)"/>
      <path fill="none" d="M116 356 L116 396 M106 366 L219 366 M116 356 Z" clip-path="url(#clipPath2)"/>
      <text x="131.1553" xml:space="preserve" y="380.7139" clip-path="url(#clipPath2)" font-family="sans-serif" stroke="none">Dictionaries</text>
    </g>
    <g fill="white" text-rendering="geometricPrecision" shape-rendering="geometricPrecision" transform="matrix(1,0,0,1,-20,-22)" stroke="white">
      <rect x="36" width="221.8333" height="115" y="428" clip-path="url(#clipPath2)" stroke="none"/>
    </g>
    <g text-rendering="geometricPrecision" stroke-miterlimit="1.45" shape-rendering="geometricPrecision" transform="matrix(1,0,0,1,-20,-22)" stroke-linecap="butt">
      <rect fill="none" x="36" width="221.8333" height="115" y="428" clip-path="url(#clipPath2)"/>
      <text x="42" xml:space="preserve" y="446.0645" clip-path="url(#clipPath2)" font-family="sans-serif" stroke="none">UNIX SCE &amp; CDW (in transition period)</text>
    </g>
    <g fill="url(#linearGradient3)" text-rendering="geometricPrecision" shape-rendering="geometricPrecision" transform="matrix(1,0,0,1,-20,-22)" stroke="url(#linearGradient3)">
      <rect x="162" width="72" height="40" y="469" clip-path="url(#clipPath2)" stroke="none"/>
    </g>
    <g text-rendering="geometricPrecision" stroke-miterlimit="1.45" shape-rendering="geometricPrecision" transform="matrix(1,0,0,1,-20,-22)" stroke-linecap="butt">
      <rect fill="none" x="162" width="72" height="40" y="469" clip-path="url(#clipPath2)"/>
      <path fill="none" d="M172 469 L172 509 M162 479 L234 479 M172 469 Z" clip-path="url(#clipPath2)"/>
      <text x="174.9961" xml:space="preserve" y="493.7139" clip-path="url(#clipPath2)" font-family="sans-serif" stroke="none">.csv files</text>
    </g>
    <g fill="url(#linearGradient4)" text-rendering="geometricPrecision" shape-rendering="geometricPrecision" transform="matrix(1,0,0,1,-20,-22)" stroke="url(#linearGradient4)">
      <path d="M49 469 L121 469 L121 509 L49 509 Z" stroke="none" clip-path="url(#clipPath2)"/>
    </g>
    <g text-rendering="geometricPrecision" stroke-miterlimit="1.45" shape-rendering="geometricPrecision" transform="matrix(1,0,0,1,-20,-22)" stroke-linecap="butt">
      <path fill="none" d="M49 469 L121 469 L121 509 L49 509 Z" clip-path="url(#clipPath2)"/>
      <text x="60.3232" xml:space="preserve" y="486.3633" clip-path="url(#clipPath2)" font-family="sans-serif" stroke="none">Migration</text>
      <text x="67.6592" xml:space="preserve" y="501.0645" clip-path="url(#clipPath2)" font-family="sans-serif" stroke="none">Export</text>
    </g>
    <g fill="url(#linearGradient5)" text-rendering="geometricPrecision" shape-rendering="geometricPrecision" transform="matrix(1,0,0,1,-20,-22)" stroke="url(#linearGradient5)">
      <path d="M610.5 317.6 C612.9 306 688.1 306 690.5 317.6 L690.5 352.4 C688.1 364 612.9 364 610.5 352.4 Z" stroke="none" clip-path="url(#clipPath2)"/>
    </g>
    <g text-rendering="geometricPrecision" stroke-miterlimit="1.45" shape-rendering="geometricPrecision" transform="matrix(1,0,0,1,-20,-22)" stroke-linecap="butt">
      <path fill="none" d="M610.5 317.6 C612.9 306 688.1 306 690.5 317.6 L690.5 352.4 C688.1 364 612.9 364 610.5 352.4 Z" clip-path="url(#clipPath2)"/>
      <path fill="none" d="M690.5 317.6 C688.1 329.2 612.9 329.2 610.5 317.6" clip-path="url(#clipPath2)"/>
      <text x="636.8359" xml:space="preserve" y="339.7139" clip-path="url(#clipPath2)" font-family="sans-serif" stroke="none">MDR</text>
    </g>
    <g fill="url(#linearGradient6)" text-rendering="geometricPrecision" shape-rendering="geometricPrecision" transform="matrix(1,0,0,1,-20,-22)" stroke="url(#linearGradient6)">
      <path d="M406 297.3819 C407.8 287.7819 464.2 287.7819 466 297.3819 L466 326.1819 C464.2 335.7819 407.8 335.7819 406 326.1819 Z" stroke="none" clip-path="url(#clipPath2)"/>
    </g>
    <g text-rendering="geometricPrecision" stroke-miterlimit="1.45" shape-rendering="geometricPrecision" transform="matrix(1,0,0,1,-20,-22)" stroke-linecap="butt">
      <path fill="none" d="M406 297.3819 C407.8 287.7819 464.2 287.7819 466 297.3819 L466 326.1819 C464.2 335.7819 407.8 335.7819 406 326.1819 Z" clip-path="url(#clipPath2)"/>
      <path fill="none" d="M466 297.3819 C464.2 306.9819 407.8 306.9819 406 297.3819" clip-path="url(#clipPath2)"/>
      <text x="415.6504" xml:space="preserve" y="316.4957" clip-path="url(#clipPath2)" font-family="sans-serif" stroke="none">Staging</text>
    </g>
    <g fill="url(#linearGradient7)" text-rendering="geometricPrecision" shape-rendering="geometricPrecision" transform="matrix(1,0,0,1,-20,-22)" stroke="url(#linearGradient7)">
      <rect x="312.5" width="72" height="48" y="287.7819" clip-path="url(#clipPath2)" stroke="none"/>
    </g>
    <g text-rendering="geometricPrecision" stroke-miterlimit="1.45" shape-rendering="geometricPrecision" transform="matrix(1,0,0,1,-20,-22)" stroke-linecap="butt">
      <rect fill="none" x="312.5" width="72" height="48" y="287.7819" clip-path="url(#clipPath2)"/>
      <path fill="none" d="M322.5 287.7819 L322.5 335.7819 M312.5 297.7819 L384.5 297.7819 M322.5 287.7819 Z" clip-path="url(#clipPath2)"/>
      <text x="331.4961" xml:space="preserve" y="309.1451" clip-path="url(#clipPath2)" font-family="sans-serif" stroke="none">Import</text>
      <text x="335.832" xml:space="preserve" y="323.8463" clip-path="url(#clipPath2)" font-family="sans-serif" stroke="none">Files</text>
    </g>
    <g fill="url(#linearGradient8)" text-rendering="geometricPrecision" shape-rendering="geometricPrecision" transform="matrix(1,0,0,1,-20,-22)" stroke="url(#linearGradient8)">
      <rect x="312.5" width="87" height="48" y="466" clip-path="url(#clipPath2)" stroke="none"/>
    </g>
    <g text-rendering="geometricPrecision" stroke-miterlimit="1.45" shape-rendering="geometricPrecision" transform="matrix(1,0,0,1,-20,-22)" stroke-linecap="butt">
      <rect fill="none" x="312.5" width="87" height="48" y="466" clip-path="url(#clipPath2)"/>
      <path fill="none" d="M322.5 466 L322.5 514 M312.5 476 L399.5 476 M322.5 466 Z" clip-path="url(#clipPath2)"/>
      <text x="331.3232" xml:space="preserve" y="487.3633" clip-path="url(#clipPath2)" font-family="sans-serif" stroke="none">Migration</text>
      <text x="343.332" xml:space="preserve" y="502.0645" clip-path="url(#clipPath2)" font-family="sans-serif" stroke="none">Files</text>
    </g>
    <g fill="url(#linearGradient9)" text-rendering="geometricPrecision" shape-rendering="geometricPrecision" transform="matrix(1,0,0,1,-20,-22)" stroke="url(#linearGradient9)">
      <path d="M486 470 L558 470 L558 510 L486 510 Z" stroke="none" clip-path="url(#clipPath2)"/>
    </g>
    <g text-rendering="geometricPrecision" stroke-miterlimit="1.45" shape-rendering="geometricPrecision" transform="matrix(1,0,0,1,-20,-22)" stroke-linecap="butt">
      <path fill="none" d="M486 470 L558 470 L558 510 L486 510 Z" clip-path="url(#clipPath2)"/>
      <text x="509.3262" xml:space="preserve" y="487.3633" clip-path="url(#clipPath2)" font-family="sans-serif" stroke="none">Data</text>
      <text x="497.3232" xml:space="preserve" y="502.0645" clip-path="url(#clipPath2)" font-family="sans-serif" stroke="none">Migration</text>
    </g>
    <g fill="url(#linearGradient10)" text-rendering="geometricPrecision" shape-rendering="geometricPrecision" transform="matrix(1,0,0,1,-20,-22)" stroke="url(#linearGradient10)">
      <path d="M312.5 208 L399.5 208 L399.5 248 L312.5 248 Z" stroke="none" clip-path="url(#clipPath2)"/>
    </g>
    <g text-rendering="geometricPrecision" stroke-miterlimit="1.45" shape-rendering="geometricPrecision" transform="matrix(1,0,0,1,-20,-22)" stroke-linecap="butt">
      <path fill="none" d="M312.5 208 L399.5 208 L399.5 248 L312.5 248 Z" clip-path="url(#clipPath2)"/>
      <text x="337.332" xml:space="preserve" y="225.3633" clip-path="url(#clipPath2)" font-family="sans-serif" stroke="none">CDISC</text>
      <text x="338.9961" xml:space="preserve" y="240.0645" clip-path="url(#clipPath2)" font-family="sans-serif" stroke="none">Import</text>
    </g>
    <g fill="url(#linearGradient11)" text-rendering="geometricPrecision" shape-rendering="geometricPrecision" transform="matrix(1,0,0,1,-20,-22)" stroke="url(#linearGradient11)">
      <rect x="457" width="387" height="48" y="223" clip-path="url(#clipPath2)" stroke="none"/>
    </g>
    <g text-rendering="geometricPrecision" stroke-miterlimit="1.45" shape-rendering="geometricPrecision" transform="matrix(1,0,0,1,-20,-22)" stroke-linecap="butt">
      <rect fill="none" x="457" width="387" height="48" y="223" clip-path="url(#clipPath2)"/>
      <path fill="none" d="M467 223 L467 271 M834 223 L834 271 M467 223 Z" clip-path="url(#clipPath2)"/>
      <text x="604.4922" xml:space="preserve" y="251.7139" clip-path="url(#clipPath2)" font-family="sans-serif" stroke="none">Clinical MDR API</text>
    </g>
    <g fill="url(#linearGradient12)" text-rendering="geometricPrecision" shape-rendering="geometricPrecision" transform="matrix(1,0,0,1,-20,-22)" stroke="url(#linearGradient12)">
      <rect x="478" y="146" clip-path="url(#clipPath2)" width="145" rx="20" ry="20" height="40" stroke="none"/>
    </g>
    <g text-rendering="geometricPrecision" stroke-miterlimit="1.45" shape-rendering="geometricPrecision" transform="matrix(1,0,0,1,-20,-22)" stroke-linecap="butt">
      <rect x="478" y="146" clip-path="url(#clipPath2)" fill="none" width="145" rx="20" ry="20" height="40"/>
      <text x="504.1377" xml:space="preserve" y="170.7139" clip-path="url(#clipPath2)" font-family="sans-serif" stroke="none">StudyBuilder App</text>
    </g>
    <g text-rendering="geometricPrecision" stroke-miterlimit="1.45" shape-rendering="geometricPrecision" transform="matrix(1,0,0,1,-20,-22)" stroke-linecap="butt">
      <rect fill="none" x="1071.9823" width="179" height="86" y="232" clip-path="url(#clipPath2)"/>
      <text x="1077.9823" xml:space="preserve" y="250.0645" clip-path="url(#clipPath2)" font-family="sans-serif" stroke="none">Word add-in</text>
    </g>
    <g fill="url(#linearGradient13)" text-rendering="geometricPrecision" shape-rendering="geometricPrecision" transform="matrix(1,0,0,1,-20,-22)" stroke="url(#linearGradient13)">
      <rect x="1121.4823" width="80" height="40" y="260" clip-path="url(#clipPath2)" stroke="none"/>
    </g>
    <g text-rendering="geometricPrecision" stroke-miterlimit="1.45" shape-rendering="geometricPrecision" transform="matrix(1,0,0,1,-20,-22)" stroke-linecap="butt">
      <rect fill="none" x="1121.4823" width="80" height="40" y="260" clip-path="url(#clipPath2)"/>
      <path fill="none" d="M1131.4823 260 L1131.4823 300 M1191.4823 260 L1191.4823 300 M1131.4823 260 Z" clip-path="url(#clipPath2)"/>
      <text x="1139.4716" xml:space="preserve" y="277.3633" clip-path="url(#clipPath2)" font-family="sans-serif" stroke="none">Protocol</text>
      <text x="1136.4716" xml:space="preserve" y="292.0645" clip-path="url(#clipPath2)" font-family="sans-serif" stroke="none">Template</text>
    </g>
    <g text-rendering="geometricPrecision" stroke-miterlimit="1.45" shape-rendering="geometricPrecision" transform="matrix(1,0,0,1,-20,-22)" stroke-linecap="butt">
      <rect fill="none" x="1071.9823" width="179" height="213" y="330" clip-path="url(#clipPath2)"/>
      <text x="1077.9823" xml:space="preserve" y="348.0645" clip-path="url(#clipPath2)" font-family="sans-serif" stroke="none">UNIX SCE</text>
    </g>
    <g fill="url(#linearGradient14)" text-rendering="geometricPrecision" shape-rendering="geometricPrecision" transform="matrix(1,0,0,1,-20,-22)" stroke="url(#linearGradient14)">
      <rect x="1088.4823" width="152" height="40" y="372" clip-path="url(#clipPath2)" stroke="none"/>
    </g>
    <g text-rendering="geometricPrecision" stroke-miterlimit="1.45" shape-rendering="geometricPrecision" transform="matrix(1,0,0,1,-20,-22)" stroke-linecap="butt">
      <rect fill="none" x="1088.4823" width="152" height="40" y="372" clip-path="url(#clipPath2)"/>
      <path fill="none" d="M1098.4823 372 L1098.4823 412 M1230.4823 372 L1230.4823 412 M1098.4823 372 Z" clip-path="url(#clipPath2)"/>
      <text x="1117.8094" xml:space="preserve" y="388.6621" clip-path="url(#clipPath2)" font-family="sans-serif" stroke="none">System MDR API</text>
      <text x="1104.4471" xml:space="preserve" y="403.3633" clip-path="url(#clipPath2)" font-family="sans-serif" stroke="none">Trusted Authentication</text>
    </g>
    <g fill="url(#linearGradient15)" text-rendering="geometricPrecision" shape-rendering="geometricPrecision" transform="matrix(1,0,0,1,-20,-22)" stroke="url(#linearGradient15)">
      <rect x="1088.4823" width="152" height="40" y="431.5" clip-path="url(#clipPath2)" stroke="none"/>
    </g>
    <g text-rendering="geometricPrecision" stroke-miterlimit="1.45" shape-rendering="geometricPrecision" transform="matrix(1,0,0,1,-20,-22)" stroke-linecap="butt">
      <rect fill="none" x="1088.4823" width="152" height="40" y="431.5" clip-path="url(#clipPath2)"/>
      <path fill="none" d="M1098.4823 431.5 L1098.4823 471.5 M1230.4823 431.5 L1230.4823 471.5 M1098.4823 431.5 Z" clip-path="url(#clipPath2)"/>
      <text x="1109.1259" xml:space="preserve" y="448.1621" clip-path="url(#clipPath2)" font-family="sans-serif" stroke="none">MDR to SAS dataset</text>
      <text x="1101.787" xml:space="preserve" y="462.8633" clip-path="url(#clipPath2)" font-family="sans-serif" stroke="none">standard program utility</text>
    </g>
    <g fill="url(#linearGradient16)" text-rendering="geometricPrecision" shape-rendering="geometricPrecision" transform="matrix(1,0,0,1,-20,-22)" stroke="url(#linearGradient16)">
      <rect x="1088.4823" width="152" height="40" y="491" clip-path="url(#clipPath2)" stroke="none"/>
    </g>
    <g text-rendering="geometricPrecision" stroke-miterlimit="1.45" shape-rendering="geometricPrecision" transform="matrix(1,0,0,1,-20,-22)" stroke-linecap="butt">
      <rect fill="none" x="1088.4823" width="152" height="40" y="491" clip-path="url(#clipPath2)"/>
      <path fill="none" d="M1098.4823 491 L1098.4823 531 M1230.4823 491 L1230.4823 531 M1098.4823 491 Z" clip-path="url(#clipPath2)"/>
      <text x="1108.1298" xml:space="preserve" y="507.6621" clip-path="url(#clipPath2)" font-family="sans-serif" stroke="none">MDR to SAS Dataset</text>
      <text x="1100.454" xml:space="preserve" y="522.3633" clip-path="url(#clipPath2)" font-family="sans-serif" stroke="none">Package driver program</text>
    </g>
    <g fill="url(#linearGradient17)" text-rendering="geometricPrecision" shape-rendering="geometricPrecision" transform="matrix(1,0,0,1,-20,-22)" stroke="url(#linearGradient17)">
      <path d="M312.5 356 L384.5 356 L384.5 396 L312.5 396 Z" stroke="none" clip-path="url(#clipPath2)"/>
    </g>
    <g text-rendering="geometricPrecision" stroke-miterlimit="1.45" shape-rendering="geometricPrecision" transform="matrix(1,0,0,1,-20,-22)" stroke-linecap="butt">
      <path fill="none" d="M312.5 356 L384.5 356 L384.5 396 L312.5 396 Z" clip-path="url(#clipPath2)"/>
      <text x="333.4941" xml:space="preserve" y="373.3633" clip-path="url(#clipPath2)" font-family="sans-serif" stroke="none">Other</text>
      <text x="331.4961" xml:space="preserve" y="388.0645" clip-path="url(#clipPath2)" font-family="sans-serif" stroke="none">Import</text>
    </g>
    <g text-rendering="geometricPrecision" stroke-miterlimit="1.45" shape-rendering="geometricPrecision" transform="matrix(1,0,0,1,-20,-22)" stroke-linecap="butt">
      <path fill="none" d="M121.0022 489 L154.0201 489" clip-path="url(#clipPath2)"/>
      <path d="M162.0201 489 L150.0201 484 L153.0201 489 L150.0201 494 Z" clip-path="url(#clipPath2)" stroke="none"/>
      <path fill="none" d="M233.9897 489.2278 L304.4804 489.6739" clip-path="url(#clipPath2)"/>
      <path d="M312.4802 489.7245 L300.5121 484.6487 L303.4804 489.6676 L300.4488 494.6485 Z" clip-path="url(#clipPath2)" stroke="none"/>
      <path fill="none" d="M399.4858 490 L478.0175 490" clip-path="url(#clipPath2)"/>
      <path d="M486.0175 490 L474.0175 485 L477.0175 490 L474.0175 495 Z" clip-path="url(#clipPath2)" stroke="none"/>
      <path fill="none" d="M218.9532 228 L304.4702 228" clip-path="url(#clipPath2)"/>
      <path d="M312.4702 228 L300.4702 223 L303.4702 228 L300.4702 233 Z" clip-path="url(#clipPath2)" stroke="none"/>
      <path fill="none" d="M348.5 255.99 L348.5 279.7664" clip-path="url(#clipPath2)"/>
      <path d="M348.5 247.99 L343.5 259.99 L348.5 256.99 L353.5 259.99 Z" clip-path="url(#clipPath2)" stroke="none"/>
      <path d="M348.5 287.7664 L353.5 275.7664 L348.5 278.7664 L343.5 275.7664 Z" clip-path="url(#clipPath2)" stroke="none"/>
      <path fill="none" d="M395.3581 254.5066 L416.6704 284.5414" clip-path="url(#clipPath2)"/>
      <path d="M390.7285 247.9823 L393.5952 260.6623 L395.9368 255.3221 L401.7506 254.8753 Z" clip-path="url(#clipPath2)" stroke="none"/>
      <path d="M421.3 291.0657 L418.4334 278.3857 L416.0917 283.7258 L410.278 284.1727 Z" clip-path="url(#clipPath2)" stroke="none"/>
      <path fill="none" d="M407.543 235.6196 L449.0013 235.8232" clip-path="url(#clipPath2)"/>
      <path d="M399.5431 235.5803 L411.5184 240.6392 L408.543 235.6245 L411.5675 230.6393 Z" clip-path="url(#clipPath2)" stroke="none"/>
      <path d="M457.0012 235.8625 L445.0259 230.8036 L448.0013 235.8183 L444.9768 240.8035 Z" clip-path="url(#clipPath2)" stroke="none"/>
      <path fill="none" d="M522 469.9774 L522 278.9799" clip-path="url(#clipPath2)"/>
      <path d="M522 270.9799 L517 282.9799 L522 279.9799 L527 282.9799 Z" clip-path="url(#clipPath2)" stroke="none"/>
      <path fill="none" d="M650.5 279.0469 L650.5 300.9254" clip-path="url(#clipPath2)"/>
      <path d="M650.5 271.0469 L645.5 283.0469 L650.5 280.0469 L655.5 283.0469 Z" clip-path="url(#clipPath2)" stroke="none"/>
      <path d="M650.5 308.9254 L655.5 296.9254 L650.5 299.9254 L645.5 296.9254 Z" clip-path="url(#clipPath2)" stroke="none"/>
      <path fill="none" d="M550.5 215.0207 L550.5 194.0185" clip-path="url(#clipPath2)"/>
      <path d="M550.5 223.0207 L555.5 211.0207 L550.5 214.0207 L545.5 211.0207 Z" clip-path="url(#clipPath2)" stroke="none"/>
      <path d="M550.5 186.0185 L545.5 198.0185 L550.5 195.0185 L555.5 198.0185 Z" clip-path="url(#clipPath2)" stroke="none"/>
      <path fill="none" d="M843.9531 247 L1058 247 L1058 280 L1113.489 280" clip-path="url(#clipPath2)"/>
      <path d="M1121.489 280 L1109.489 275 L1112.489 280 L1109.489 285 Z" clip-path="url(#clipPath2)" stroke="none"/>
      <path fill="none" d="M1164.4823 412.0173 L1164.4823 423.4888" clip-path="url(#clipPath2)"/>
      <path d="M1164.4823 431.4888 L1169.4823 419.4888 L1164.4823 422.4888 L1159.4823 419.4888 Z" clip-path="url(#clipPath2)" stroke="none"/>
      <path fill="none" d="M843.9763 262 L1013 262 L1013 448 L1080.4844 449.5592" clip-path="url(#clipPath2)"/>
      <path d="M1088.4823 449.744 L1076.601 444.4682 L1079.4847 449.5361 L1076.37 454.4655 Z" clip-path="url(#clipPath2)" stroke="none"/>
      <path fill="none" d="M1164.4823 471.5173 L1164.4823 482.9888" clip-path="url(#clipPath2)"/>
      <path d="M1164.4823 490.9888 L1169.4823 478.9888 L1164.4823 481.9888 L1159.4823 478.9888 Z" clip-path="url(#clipPath2)" stroke="none"/>
      <path fill="none" d="M219.0356 376 L304.4991 376" clip-path="url(#clipPath2)"/>
      <path d="M312.4991 376 L300.4991 371 L303.4991 376 L300.4991 381 Z" clip-path="url(#clipPath2)" stroke="none"/>
      <path fill="none" d="M348.5 356.0259 L348.5 343.7618" clip-path="url(#clipPath2)"/>
      <path d="M348.5 335.7618 L343.5 347.7618 L348.5 344.7618 L353.5 347.7618 Z" clip-path="url(#clipPath2)" stroke="none"/>
    </g>
  </g>
</svg>
