<?xml version="1.0" encoding="UTF-8"?><svg xmlns="http://www.w3.org/2000/svg" xmlns:xlink="http://www.w3.org/1999/xlink" fill-opacity="1" color-rendering="auto" color-interpolation="auto" text-rendering="auto" stroke="black" stroke-linecap="square" width="1072" stroke-miterlimit="10" shape-rendering="auto" stroke-opacity="1" fill="black" stroke-dasharray="none" font-weight="normal" stroke-width="1" height="605" font-family="'Dialog'" font-style="normal" stroke-linejoin="miter" font-size="12px" stroke-dashoffset="0" image-rendering="auto">
  <!--Generated by ySVG 2.5-->
  <defs id="genericDefs"/>
  <g>
    <defs id="defs1">
      <linearGradient x1="608.5103" gradientUnits="userSpaceOnUse" x2="688.5103" y1="210" y2="268" id="linearGradient1" spreadMethod="reflect">
        <stop stop-opacity="1" stop-color="rgb(232,238,247)" offset="0%"/>
        <stop stop-opacity="1" stop-color="rgb(183,201,227)" offset="100%"/>
      </linearGradient>
      <linearGradient x1="489.0207" gradientUnits="userSpaceOnUse" x2="808" y1="118" y2="166" id="linearGradient2" spreadMethod="reflect">
        <stop stop-opacity="1" stop-color="rgb(232,238,247)" offset="0%"/>
        <stop stop-opacity="1" stop-color="rgb(183,201,227)" offset="100%"/>
      </linearGradient>
      <linearGradient x1="489.0207" gradientUnits="userSpaceOnUse" x2="634.0207" y1="41" y2="81" id="linearGradient3" spreadMethod="reflect">
        <stop stop-opacity="1" stop-color="rgb(232,238,247)" offset="0%"/>
        <stop stop-opacity="1" stop-color="rgb(183,201,227)" offset="100%"/>
      </linearGradient>
      <linearGradient x1="915" gradientUnits="userSpaceOnUse" x2="995" y1="122" y2="162" id="linearGradient4" spreadMethod="reflect">
        <stop stop-opacity="1" stop-color="rgb(232,238,247)" offset="0%"/>
        <stop stop-opacity="1" stop-color="rgb(183,201,227)" offset="100%"/>
      </linearGradient>
      <linearGradient x1="92.125" gradientUnits="userSpaceOnUse" x2="205.125" y1="381.8782" y2="421.8782" id="linearGradient5" spreadMethod="reflect">
        <stop stop-opacity="1" stop-color="rgb(232,238,247)" offset="0%"/>
        <stop stop-opacity="1" stop-color="rgb(183,201,227)" offset="100%"/>
      </linearGradient>
      <linearGradient x1="95.401" gradientUnits="userSpaceOnUse" x2="208.401" y1="219.2318" y2="249.4818" id="linearGradient6" spreadMethod="reflect">
        <stop stop-opacity="1" stop-color="rgb(232,238,247)" offset="0%"/>
        <stop stop-opacity="1" stop-color="rgb(183,201,227)" offset="100%"/>
      </linearGradient>
      <linearGradient x1="93.6667" gradientUnits="userSpaceOnUse" x2="206.6667" y1="120" y2="160" id="linearGradient7" spreadMethod="reflect">
        <stop stop-opacity="1" stop-color="rgb(232,238,247)" offset="0%"/>
        <stop stop-opacity="1" stop-color="rgb(183,201,227)" offset="100%"/>
      </linearGradient>
      <linearGradient x1="321.3994" gradientUnits="userSpaceOnUse" x2="366.2721" y1="449.5064" y2="498.1154" id="linearGradient8" spreadMethod="reflect">
        <stop stop-opacity="1" stop-color="rgb(232,238,247)" offset="0%"/>
        <stop stop-opacity="1" stop-color="rgb(183,201,227)" offset="100%"/>
      </linearGradient>
      <linearGradient x1="264.6685" gradientUnits="userSpaceOnUse" x2="314.8358" y1="449.5064" y2="493.7245" id="linearGradient9" spreadMethod="reflect">
        <stop stop-opacity="1" stop-color="rgb(232,238,247)" offset="0%"/>
        <stop stop-opacity="1" stop-color="rgb(183,201,227)" offset="100%"/>
      </linearGradient>
      <linearGradient x1="272.1667" gradientUnits="userSpaceOnUse" x2="335.0903" y1="120" y2="164" id="linearGradient10" spreadMethod="reflect">
        <stop stop-opacity="1" stop-color="rgb(232,238,247)" offset="0%"/>
        <stop stop-opacity="1" stop-color="rgb(183,201,227)" offset="100%"/>
      </linearGradient>
      <linearGradient x1="351.4948" gradientUnits="userSpaceOnUse" x2="454.049" y1="120" y2="164" id="linearGradient11" spreadMethod="reflect">
        <stop stop-opacity="1" stop-color="rgb(232,238,247)" offset="0%"/>
        <stop stop-opacity="1" stop-color="rgb(183,201,227)" offset="100%"/>
      </linearGradient>
      <linearGradient x1="272.1667" gradientUnits="userSpaceOnUse" x2="391.9885" y1="370.8973" y2="419.5064" id="linearGradient12" spreadMethod="reflect">
        <stop stop-opacity="1" stop-color="rgb(232,238,247)" offset="0%"/>
        <stop stop-opacity="1" stop-color="rgb(183,201,227)" offset="100%"/>
      </linearGradient>
      <linearGradient x1="272.1667" gradientUnits="userSpaceOnUse" x2="391.9885" y1="219.05" y2="263.2682" id="linearGradient13" spreadMethod="reflect">
        <stop stop-opacity="1" stop-color="rgb(232,238,247)" offset="0%"/>
        <stop stop-opacity="1" stop-color="rgb(183,201,227)" offset="100%"/>
      </linearGradient>
      <linearGradient x1="95.401" gradientUnits="userSpaceOnUse" x2="208.401" y1="255.0961" y2="285.3461" id="linearGradient14" spreadMethod="reflect">
        <stop stop-opacity="1" stop-color="rgb(232,238,247)" offset="0%"/>
        <stop stop-opacity="1" stop-color="rgb(183,201,227)" offset="100%"/>
      </linearGradient>
      <linearGradient x1="372.8358" gradientUnits="userSpaceOnUse" x2="427.5412" y1="449.8109" y2="493.7245" id="linearGradient15" spreadMethod="reflect">
        <stop stop-opacity="1" stop-color="rgb(232,238,247)" offset="0%"/>
        <stop stop-opacity="1" stop-color="rgb(183,201,227)" offset="100%"/>
      </linearGradient>
      <linearGradient x1="271.9503" gradientUnits="userSpaceOnUse" x2="326.6558" y1="293.2682" y2="333.2682" id="linearGradient16" spreadMethod="reflect">
        <stop stop-opacity="1" stop-color="rgb(232,238,247)" offset="0%"/>
        <stop stop-opacity="1" stop-color="rgb(183,201,227)" offset="100%"/>
      </linearGradient>
      <linearGradient x1="337.283" gradientUnits="userSpaceOnUse" x2="391.9885" y1="293.2682" y2="333.2682" id="linearGradient17" spreadMethod="reflect">
        <stop stop-opacity="1" stop-color="rgb(232,238,247)" offset="0%"/>
        <stop stop-opacity="1" stop-color="rgb(183,201,227)" offset="100%"/>
      </linearGradient>
      <clipPath clipPathUnits="userSpaceOnUse" id="clipPath1">
        <path d="M0 0 L1072 0 L1072 605 L0 605 L0 0 Z"/>
      </clipPath>
      <clipPath clipPathUnits="userSpaceOnUse" id="clipPath2">
        <path d="M-12 -74 L1060 -74 L1060 531 L-12 531 L-12 -74 Z"/>
      </clipPath>
    </defs>
    <g fill="white" text-rendering="geometricPrecision" shape-rendering="geometricPrecision" transform="translate(12,74)" stroke="white">
      <rect x="-12" width="1072" height="605" y="-74" clip-path="url(#clipPath2)" stroke="none"/>
    </g>
    <g text-rendering="geometricPrecision" stroke-miterlimit="1.45" shape-rendering="geometricPrecision" transform="matrix(1,0,0,1,12,74)" stroke-linecap="butt">
      <rect fill="none" x="251" width="590.9823" height="516.5014" y="-1.1168" clip-path="url(#clipPath2)"/>
      <text x="257" xml:space="preserve" y="16.9476" clip-path="url(#clipPath2)" font-family="sans-serif" stroke="none">StudyBuilder System</text>
    </g>
    <g text-rendering="geometricPrecision" stroke-miterlimit="1.45" shape-rendering="geometricPrecision" transform="matrix(1,0,0,1,12,74)" stroke-linecap="butt">
      <rect fill="none" x="3.6667" width="1040.8333" height="40" y="-58.7819" clip-path="url(#clipPath2)"/>
      <path fill="none" d="M13.6667 -58.7819 L13.6667 -18.7819 M1034.5 -58.7819 L1034.5 -18.7819 M13.6667 -58.7819 Z" clip-path="url(#clipPath2)"/>
      <text x="340.7196" font-size="22px" y="-30.1398" clip-path="url(#clipPath2)" font-family="sans-serif" stroke="none" font-weight="bold" xml:space="preserve">StudyBuilder: System Integrations </text>
    </g>
    <g fill="url(#linearGradient1)" text-rendering="geometricPrecision" shape-rendering="geometricPrecision" transform="matrix(1,0,0,1,12,74)" stroke="url(#linearGradient1)">
      <path d="M608.5103 221.6 C610.9103 210 686.1104 210 688.5103 221.6 L688.5103 256.4 C686.1104 268 610.9103 268 608.5103 256.4 Z" stroke="none" clip-path="url(#clipPath2)"/>
    </g>
    <g text-rendering="geometricPrecision" stroke-miterlimit="1.45" shape-rendering="geometricPrecision" transform="matrix(1,0,0,1,12,74)" stroke-linecap="butt">
      <path fill="none" d="M608.5103 221.6 C610.9103 210 686.1104 210 688.5103 221.6 L688.5103 256.4 C686.1104 268 610.9103 268 608.5103 256.4 Z" clip-path="url(#clipPath2)"/>
      <path fill="none" d="M688.5103 221.6 C686.1104 233.2 610.9103 233.2 608.5103 221.6" clip-path="url(#clipPath2)"/>
      <text x="634.8463" xml:space="preserve" y="243.7139" clip-path="url(#clipPath2)" font-family="sans-serif" stroke="none">MDR</text>
    </g>
    <g fill="url(#linearGradient2)" text-rendering="geometricPrecision" shape-rendering="geometricPrecision" transform="matrix(1,0,0,1,12,74)" stroke="url(#linearGradient2)">
      <rect x="489.0207" width="318.9793" height="48" y="118" clip-path="url(#clipPath2)" stroke="none"/>
    </g>
    <g text-rendering="geometricPrecision" stroke-miterlimit="1.45" shape-rendering="geometricPrecision" transform="matrix(1,0,0,1,12,74)" stroke-linecap="butt">
      <rect fill="none" x="489.0207" width="318.9793" height="48" y="118" clip-path="url(#clipPath2)"/>
      <path fill="none" d="M499.0207 118 L499.0207 166 M798 118 L798 166 M499.0207 118 Z" clip-path="url(#clipPath2)"/>
      <text x="602.5025" xml:space="preserve" y="146.7139" clip-path="url(#clipPath2)" font-family="sans-serif" stroke="none">Clinical MDR API</text>
    </g>
    <g fill="url(#linearGradient3)" text-rendering="geometricPrecision" shape-rendering="geometricPrecision" transform="matrix(1,0,0,1,12,74)" stroke="url(#linearGradient3)">
      <rect x="489.0207" y="41" clip-path="url(#clipPath2)" width="145" rx="20" ry="20" height="40" stroke="none"/>
    </g>
    <g text-rendering="geometricPrecision" stroke-miterlimit="1.45" shape-rendering="geometricPrecision" transform="matrix(1,0,0,1,12,74)" stroke-linecap="butt">
      <rect x="489.0207" y="41" clip-path="url(#clipPath2)" fill="none" width="145" rx="20" ry="20" height="40"/>
      <text x="515.1584" xml:space="preserve" y="65.7139" clip-path="url(#clipPath2)" font-family="sans-serif" stroke="none">StudyBuilder App</text>
    </g>
    <g text-rendering="geometricPrecision" stroke-miterlimit="1.45" shape-rendering="geometricPrecision" transform="matrix(1,0,0,1,12,74)" stroke-linecap="butt">
      <rect fill="none" x="865.5" width="179" height="115" y="70" clip-path="url(#clipPath2)"/>
      <text x="871.5" xml:space="preserve" y="88.0645" clip-path="url(#clipPath2)" font-family="sans-serif" stroke="none">Word add-in</text>
    </g>
    <g fill="url(#linearGradient4)" text-rendering="geometricPrecision" shape-rendering="geometricPrecision" transform="matrix(1,0,0,1,12,74)" stroke="url(#linearGradient4)">
      <rect x="915" width="80" height="40" y="122" clip-path="url(#clipPath2)" stroke="none"/>
    </g>
    <g text-rendering="geometricPrecision" stroke-miterlimit="1.45" shape-rendering="geometricPrecision" transform="matrix(1,0,0,1,12,74)" stroke-linecap="butt">
      <rect fill="none" x="915" width="80" height="40" y="122" clip-path="url(#clipPath2)"/>
      <path fill="none" d="M925 122 L925 162 M985 122 L985 162 M925 122 Z" clip-path="url(#clipPath2)"/>
      <text x="932.9893" xml:space="preserve" y="139.3633" clip-path="url(#clipPath2)" font-family="sans-serif" stroke="none">Protocol</text>
      <text x="929.9893" xml:space="preserve" y="154.0645" clip-path="url(#clipPath2)" font-family="sans-serif" stroke="none">Template</text>
    </g>
    <g text-rendering="geometricPrecision" stroke-miterlimit="1.45" shape-rendering="geometricPrecision" transform="matrix(1,0,0,1,12,74)" stroke-linecap="butt">
      <rect fill="none" x="3.6667" width="223.0661" height="166.9817" y="348.4028" clip-path="url(#clipPath2)"/>
      <text x="9.6667" xml:space="preserve" y="366.4673" clip-path="url(#clipPath2)" font-family="sans-serif" stroke="none">CDISC Library</text>
    </g>
    <g fill="url(#linearGradient5)" text-rendering="geometricPrecision" shape-rendering="geometricPrecision" transform="matrix(1,0,0,1,12,74)" stroke="url(#linearGradient5)">
      <rect x="92.125" width="113" height="40" y="381.8782" clip-path="url(#clipPath2)" stroke="none"/>
    </g>
    <g text-rendering="geometricPrecision" stroke-miterlimit="1.45" shape-rendering="geometricPrecision" transform="matrix(1,0,0,1,12,74)" stroke-linecap="butt">
      <rect fill="none" x="92.125" width="113" height="40" y="381.8782" clip-path="url(#clipPath2)"/>
      <path fill="none" d="M102.125 381.8782 L102.125 421.8782 M195.125 381.8782 L195.125 421.8782 M102.125 381.8782 Z" clip-path="url(#clipPath2)"/>
      <text x="109.9502" xml:space="preserve" y="399.2415" clip-path="url(#clipPath2)" font-family="sans-serif" stroke="none">CDISC Library</text>
      <text x="138.9541" xml:space="preserve" y="413.9426" clip-path="url(#clipPath2)" font-family="sans-serif" stroke="none">API</text>
    </g>
    <g text-rendering="geometricPrecision" stroke-miterlimit="1.45" shape-rendering="geometricPrecision" transform="matrix(1,0,0,1,12,74)" stroke-linecap="butt">
      <rect fill="none" x="3.6667" width="221.8333" height="153.3672" y="188.5641" clip-path="url(#clipPath2)"/>
      <text x="9.6667" xml:space="preserve" y="206.6285" clip-path="url(#clipPath2)" font-family="sans-serif" stroke="none">Other sources</text>
    </g>
    <g fill="url(#linearGradient6)" text-rendering="geometricPrecision" shape-rendering="geometricPrecision" transform="matrix(1,0,0,1,12,74)" stroke="url(#linearGradient6)">
      <rect x="95.401" width="113" height="30.25" y="219.2318" clip-path="url(#clipPath2)" stroke="none"/>
    </g>
    <g text-rendering="geometricPrecision" stroke-miterlimit="1.45" shape-rendering="geometricPrecision" transform="matrix(1,0,0,1,12,74)" stroke-linecap="butt">
      <rect fill="none" x="95.401" width="113" height="30.25" y="219.2318" clip-path="url(#clipPath2)"/>
      <path fill="none" d="M105.401 219.2318 L105.401 249.4818 M95.401 229.2318 L208.401 229.2318 M105.401 219.2318 Z" clip-path="url(#clipPath2)"/>
      <text x="120.5562" xml:space="preserve" y="239.0707" clip-path="url(#clipPath2)" font-family="sans-serif" stroke="none">Dictionaries</text>
    </g>
    <g fill="white" text-rendering="geometricPrecision" shape-rendering="geometricPrecision" transform="matrix(1,0,0,1,12,74)" stroke="white">
      <rect x="3.6667" width="221.8333" height="106.2073" y="75.4473" clip-path="url(#clipPath2)" stroke="none"/>
    </g>
    <g text-rendering="geometricPrecision" stroke-miterlimit="1.45" shape-rendering="geometricPrecision" transform="matrix(1,0,0,1,12,74)" stroke-linecap="butt">
      <rect fill="none" x="3.6667" width="221.8333" height="106.2073" y="75.4473" clip-path="url(#clipPath2)"/>
      <text x="9.6667" xml:space="preserve" y="93.5117" clip-path="url(#clipPath2)" font-family="sans-serif" stroke="none">UNIX SCE &amp; CDW (in transition period)</text>
    </g>
    <g fill="url(#linearGradient7)" text-rendering="geometricPrecision" shape-rendering="geometricPrecision" transform="matrix(1,0,0,1,12,74)" stroke="url(#linearGradient7)">
      <path d="M93.6667 120 L206.6667 120 L206.6667 160 L93.6667 160 Z" stroke="none" clip-path="url(#clipPath2)"/>
    </g>
    <g text-rendering="geometricPrecision" stroke-miterlimit="1.45" shape-rendering="geometricPrecision" transform="matrix(1,0,0,1,12,74)" stroke-linecap="butt">
      <path fill="none" d="M93.6667 120 L206.6667 120 L206.6667 160 L93.6667 160 Z" clip-path="url(#clipPath2)"/>
      <text x="125.4899" xml:space="preserve" y="137.3633" clip-path="url(#clipPath2)" font-family="sans-serif" stroke="none">Migration</text>
      <text x="132.8259" xml:space="preserve" y="152.0645" clip-path="url(#clipPath2)" font-family="sans-serif" stroke="none">Export</text>
    </g>
    <g fill="url(#linearGradient8)" text-rendering="geometricPrecision" shape-rendering="geometricPrecision" transform="matrix(1,0,0,1,12,74)" stroke="url(#linearGradient8)">
      <path d="M321.3994 459.2282 C322.7456 449.5064 364.9259 449.5064 366.2721 459.2282 L366.2721 488.3936 C364.9259 498.1154 322.7456 498.1154 321.3994 488.3936 Z" stroke="none" clip-path="url(#clipPath2)"/>
    </g>
    <g text-rendering="geometricPrecision" stroke-miterlimit="1.45" shape-rendering="geometricPrecision" transform="matrix(1,0,0,1,12,74)" stroke-linecap="butt">
      <path fill="none" d="M321.3994 459.2282 C322.7456 449.5064 364.9259 449.5064 366.2721 459.2282 L366.2721 488.3936 C364.9259 498.1154 322.7456 498.1154 321.3994 488.3936 Z" clip-path="url(#clipPath2)"/>
      <path fill="none" d="M366.2721 459.2282 C364.9259 468.95 322.7456 468.95 321.3994 459.2282" clip-path="url(#clipPath2)"/>
      <text x="331.0498" font-size="8px" y="475.147" clip-path="url(#clipPath2)" font-family="sans-serif" stroke="none" xml:space="preserve">Staging</text>
      <text x="340.167" font-size="8px" y="484.9478" clip-path="url(#clipPath2)" font-family="sans-serif" stroke="none" xml:space="preserve">db</text>
    </g>
    <g fill="url(#linearGradient9)" text-rendering="geometricPrecision" shape-rendering="geometricPrecision" transform="matrix(1,0,0,1,12,74)" stroke="url(#linearGradient9)">
      <rect x="264.6685" width="50.1673" height="44.2182" y="449.5064" clip-path="url(#clipPath2)" stroke="none"/>
    </g>
    <g text-rendering="geometricPrecision" stroke-miterlimit="1.45" shape-rendering="geometricPrecision" transform="matrix(1,0,0,1,12,74)" stroke-linecap="butt">
      <rect fill="none" x="264.6685" width="50.1673" height="44.2182" y="449.5064" clip-path="url(#clipPath2)"/>
      <path fill="none" d="M274.6685 449.5064 L274.6685 493.7245 M264.6685 459.5064 L314.8358 459.5064 M274.6685 449.5064 Z" clip-path="url(#clipPath2)"/>
      <text x="283.6646" font-size="8px" y="470.147" clip-path="url(#clipPath2)" font-family="sans-serif" stroke="none" xml:space="preserve">CDISC</text>
      <text x="284.774" font-size="8px" y="479.9478" clip-path="url(#clipPath2)" font-family="sans-serif" stroke="none" xml:space="preserve">Import</text>
      <text x="287.6646" font-size="8px" y="489.7486" clip-path="url(#clipPath2)" font-family="sans-serif" stroke="none" xml:space="preserve">Files</text>
    </g>
    <g fill="url(#linearGradient10)" text-rendering="geometricPrecision" shape-rendering="geometricPrecision" transform="matrix(1,0,0,1,12,74)" stroke="url(#linearGradient10)">
      <rect x="272.1667" width="62.9236" height="44" y="120" clip-path="url(#clipPath2)" stroke="none"/>
    </g>
    <g text-rendering="geometricPrecision" stroke-miterlimit="1.45" shape-rendering="geometricPrecision" transform="matrix(1,0,0,1,12,74)" stroke-linecap="butt">
      <rect fill="none" x="272.1667" width="62.9236" height="44" y="120" clip-path="url(#clipPath2)"/>
      <path fill="none" d="M282.1667 120 L282.1667 164 M272.1667 130 L335.0903 130 M282.1667 120 Z" clip-path="url(#clipPath2)"/>
      <text x="283.4899" xml:space="preserve" y="144.6621" clip-path="url(#clipPath2)" font-family="sans-serif" stroke="none">Migration</text>
      <text x="295.4987" xml:space="preserve" y="159.3633" clip-path="url(#clipPath2)" font-family="sans-serif" stroke="none">Files</text>
    </g>
    <g fill="url(#linearGradient11)" text-rendering="geometricPrecision" shape-rendering="geometricPrecision" transform="matrix(1,0,0,1,12,74)" stroke="url(#linearGradient11)">
      <path d="M351.4948 120 L454.049 120 L454.049 164 L351.4948 164 Z" stroke="none" clip-path="url(#clipPath2)"/>
    </g>
    <g text-rendering="geometricPrecision" stroke-miterlimit="1.45" shape-rendering="geometricPrecision" transform="matrix(1,0,0,1,12,74)" stroke-linecap="butt">
      <path fill="none" d="M351.4948 120 L454.049 120 L454.049 164 L351.4948 164 Z" clip-path="url(#clipPath2)"/>
      <text x="363.7544" xml:space="preserve" y="139.3633" clip-path="url(#clipPath2)" font-family="sans-serif" stroke="none">Data Migration</text>
      <text x="356.7495" xml:space="preserve" y="154.0645" clip-path="url(#clipPath2)" font-family="sans-serif" stroke="none">[Python program]</text>
    </g>
    <g fill="url(#linearGradient12)" text-rendering="geometricPrecision" shape-rendering="geometricPrecision" transform="matrix(1,0,0,1,12,74)" stroke="url(#linearGradient12)">
      <path d="M272.1667 370.8973 L391.9885 370.8973 L391.9885 419.5064 L272.1667 419.5064 Z" stroke="none" clip-path="url(#clipPath2)"/>
    </g>
    <g text-rendering="geometricPrecision" stroke-miterlimit="1.45" shape-rendering="geometricPrecision" transform="matrix(1,0,0,1,12,74)" stroke-linecap="butt">
      <path fill="none" d="M272.1667 370.8973 L391.9885 370.8973 L391.9885 419.5064 L272.1667 419.5064 Z" clip-path="url(#clipPath2)"/>
      <text x="293.4028" xml:space="preserve" y="385.2145" clip-path="url(#clipPath2)" font-family="sans-serif" stroke="none">CDISC Library</text>
      <text x="286.0551" xml:space="preserve" y="399.9157" clip-path="url(#clipPath2)" font-family="sans-serif" stroke="none">Standards Import</text>
      <text x="286.0551" xml:space="preserve" y="414.6169" clip-path="url(#clipPath2)" font-family="sans-serif" stroke="none">[Python program]</text>
    </g>
    <g fill="url(#linearGradient13)" text-rendering="geometricPrecision" shape-rendering="geometricPrecision" transform="matrix(1,0,0,1,12,74)" stroke="url(#linearGradient13)">
      <path d="M272.1667 219.05 L391.9885 219.05 L391.9885 263.2682 L272.1667 263.2682 Z" stroke="none" clip-path="url(#clipPath2)"/>
    </g>
    <g text-rendering="geometricPrecision" stroke-miterlimit="1.45" shape-rendering="geometricPrecision" transform="matrix(1,0,0,1,12,74)" stroke-linecap="butt">
      <path fill="none" d="M272.1667 219.05 L391.9885 219.05 L391.9885 263.2682 L272.1667 263.2682 Z" clip-path="url(#clipPath2)"/>
      <text x="300.7328" xml:space="preserve" y="238.5224" clip-path="url(#clipPath2)" font-family="sans-serif" stroke="none">Data Import</text>
      <text x="286.0551" xml:space="preserve" y="253.2236" clip-path="url(#clipPath2)" font-family="sans-serif" stroke="none">[Python program]</text>
    </g>
    <g stroke-linecap="butt" transform="matrix(1,0,0,1,12,74)" text-rendering="geometricPrecision" font-family="sans-serif" shape-rendering="geometricPrecision" font-style="italic" stroke-miterlimit="1.45">
      <text x="8.0079" xml:space="preserve" y="50.4228" clip-path="url(#clipPath2)" stroke="none">Source Systems</text>
    </g>
    <g fill="url(#linearGradient14)" text-rendering="geometricPrecision" shape-rendering="geometricPrecision" transform="matrix(1,0,0,1,12,74)" stroke="url(#linearGradient14)">
      <rect x="95.401" width="113" height="30.25" y="255.0961" clip-path="url(#clipPath2)" stroke="none"/>
    </g>
    <g text-rendering="geometricPrecision" stroke-miterlimit="1.45" shape-rendering="geometricPrecision" transform="matrix(1,0,0,1,12,74)" stroke-linecap="butt">
      <rect fill="none" x="95.401" width="113" height="30.25" y="255.0961" clip-path="url(#clipPath2)"/>
      <path fill="none" d="M105.401 255.0961 L105.401 285.3461 M95.401 265.0961 L208.401 265.0961 M105.401 255.0961 Z" clip-path="url(#clipPath2)"/>
      <text x="113.5455" xml:space="preserve" y="274.935" clip-path="url(#clipPath2)" font-family="sans-serif" stroke="none">Sponsor Dtata</text>
    </g>
    <g fill="url(#linearGradient15)" text-rendering="geometricPrecision" shape-rendering="geometricPrecision" transform="matrix(1,0,0,1,12,74)" stroke="url(#linearGradient15)">
      <rect x="372.8358" width="54.7055" height="43.9136" y="449.8109" clip-path="url(#clipPath2)" stroke="none"/>
    </g>
    <g text-rendering="geometricPrecision" stroke-miterlimit="1.45" shape-rendering="geometricPrecision" transform="matrix(1,0,0,1,12,74)" stroke-linecap="butt">
      <rect fill="none" x="372.8358" width="54.7055" height="43.9136" y="449.8109" clip-path="url(#clipPath2)"/>
      <path fill="none" d="M382.8358 449.8109 L382.8358 493.7245 M372.8358 459.8109 L427.5412 459.8109 M382.8358 449.8109 Z" clip-path="url(#clipPath2)"/>
      <text x="389.9621" font-size="8px" y="470.4515" clip-path="url(#clipPath2)" font-family="sans-serif" stroke="none" xml:space="preserve">CDISC</text>
      <text x="391.0715" font-size="8px" y="480.2523" clip-path="url(#clipPath2)" font-family="sans-serif" stroke="none" xml:space="preserve">Import</text>
      <text x="386.1769" font-size="8px" y="490.0531" clip-path="url(#clipPath2)" font-family="sans-serif" stroke="none" xml:space="preserve">Log Files</text>
    </g>
    <g fill="url(#linearGradient16)" text-rendering="geometricPrecision" shape-rendering="geometricPrecision" transform="matrix(1,0,0,1,12,74)" stroke="url(#linearGradient16)">
      <rect x="271.9503" width="54.7055" height="40" y="293.2682" clip-path="url(#clipPath2)" stroke="none"/>
    </g>
    <g text-rendering="geometricPrecision" stroke-miterlimit="1.45" shape-rendering="geometricPrecision" transform="matrix(1,0,0,1,12,74)" stroke-linecap="butt">
      <rect fill="none" x="271.9503" width="54.7055" height="40" y="293.2682" clip-path="url(#clipPath2)"/>
      <path fill="none" d="M281.9503 293.2682 L281.9503 333.2682 M271.9503 303.2682 L326.6558 303.2682 M281.9503 293.2682 Z" clip-path="url(#clipPath2)"/>
      <text x="293.5011" font-size="8px" y="311.0357" clip-path="url(#clipPath2)" font-family="sans-serif" stroke="none" xml:space="preserve">Data</text>
      <text x="290.6144" font-size="8px" y="320.8365" clip-path="url(#clipPath2)" font-family="sans-serif" stroke="none" xml:space="preserve">Import</text>
      <text x="293.505" font-size="8px" y="330.6372" clip-path="url(#clipPath2)" font-family="sans-serif" stroke="none" xml:space="preserve">Files</text>
    </g>
    <g fill="url(#linearGradient17)" text-rendering="geometricPrecision" shape-rendering="geometricPrecision" transform="matrix(1,0,0,1,12,74)" stroke="url(#linearGradient17)">
      <rect x="337.283" width="54.7055" height="40" y="293.2682" clip-path="url(#clipPath2)" stroke="none"/>
    </g>
    <g text-rendering="geometricPrecision" stroke-miterlimit="1.45" shape-rendering="geometricPrecision" transform="matrix(1,0,0,1,12,74)" stroke-linecap="butt">
      <rect fill="none" x="337.283" width="54.7055" height="40" y="293.2682" clip-path="url(#clipPath2)"/>
      <path fill="none" d="M347.283 293.2682 L347.283 333.2682 M337.283 303.2682 L391.9885 303.2682 M347.283 293.2682 Z" clip-path="url(#clipPath2)"/>
      <text x="357.8877" font-size="8px" y="311.0357" clip-path="url(#clipPath2)" font-family="sans-serif" stroke="none" xml:space="preserve">Data</text>
      <text x="355.0009" font-size="8px" y="320.8365" clip-path="url(#clipPath2)" font-family="sans-serif" stroke="none" xml:space="preserve">Import</text>
      <text x="350.1064" font-size="8px" y="330.6372" clip-path="url(#clipPath2)" font-family="sans-serif" stroke="none" xml:space="preserve">Log Files</text>
    </g>
    <g text-rendering="geometricPrecision" stroke-miterlimit="1.45" shape-rendering="geometricPrecision" transform="matrix(1,0,0,1,12,74)" stroke-linecap="butt">
      <path fill="none" d="M648.5103 174.0469 L648.5103 204.8893" clip-path="url(#clipPath2)"/>
      <path d="M648.5103 166.0469 L643.5103 178.0469 L648.5103 175.0469 L653.5103 178.0469 Z" clip-path="url(#clipPath2)" stroke="none"/>
      <path d="M648.5103 212.8893 L653.5103 200.8893 L648.5103 203.8893 L643.5103 200.8893 Z" clip-path="url(#clipPath2)" stroke="none"/>
      <path fill="none" d="M561.5207 110.019 L561.5207 89.0179" clip-path="url(#clipPath2)"/>
      <path d="M561.5207 118.019 L566.5207 106.019 L561.5207 109.019 L556.5207 106.019 Z" clip-path="url(#clipPath2)" stroke="none"/>
      <path d="M561.5207 81.0179 L556.5207 93.0179 L561.5207 90.0179 L566.5207 93.0179 Z" clip-path="url(#clipPath2)" stroke="none"/>
      <path fill="none" d="M808.0032 142 L906.985 142" clip-path="url(#clipPath2)"/>
      <path d="M914.985 142 L902.985 137 L905.985 142 L902.985 147 Z" clip-path="url(#clipPath2)" stroke="none"/>
      <path fill="none" d="M206.7033 140.7368 L264.1569 141.4856" clip-path="url(#clipPath2)"/>
      <path d="M272.1562 141.5898 L260.2224 136.4339 L263.157 141.4725 L260.092 146.433 Z" clip-path="url(#clipPath2)" stroke="none"/>
      <path fill="none" d="M335.0465 142 L343.4818 142" clip-path="url(#clipPath2)"/>
      <path d="M351.4818 142 L339.4818 137 L342.4818 142 L339.4818 147 Z" clip-path="url(#clipPath2)" stroke="none"/>
      <path fill="none" d="M462.0374 142 L481.0293 142" clip-path="url(#clipPath2)"/>
      <path d="M454.0374 142 L466.0374 147 L463.0374 142 L466.0374 137 Z" clip-path="url(#clipPath2)" stroke="none"/>
      <path d="M489.0293 142 L477.0293 137 L480.0293 142 L477.0293 147 Z" clip-path="url(#clipPath2)" stroke="none"/>
      <path fill="none" d="M205.1222 401.8782 L264.1913 401.8782" clip-path="url(#clipPath2)"/>
      <path d="M272.1913 401.8782 L260.1913 396.8782 L263.1913 401.8782 L260.1913 406.8782 Z" clip-path="url(#clipPath2)" stroke="none"/>
      <path fill="none" d="M289.7521 427.5067 L289.7521 441.5049" clip-path="url(#clipPath2)"/>
      <path d="M289.7521 419.5067 L284.7521 431.5067 L289.7521 428.5067 L294.7521 431.5067 Z" clip-path="url(#clipPath2)" stroke="none"/>
      <path d="M289.7521 449.5049 L294.7521 437.5049 L289.7521 440.5049 L284.7521 437.5049 Z" clip-path="url(#clipPath2)" stroke="none"/>
      <path fill="none" d="M343.8358 427.4916 L343.8358 443.9294" clip-path="url(#clipPath2)"/>
      <path d="M343.8358 419.4916 L338.8358 431.4916 L343.8358 428.4916 L348.8358 431.4916 Z" clip-path="url(#clipPath2)" stroke="none"/>
      <path d="M343.8358 451.9294 L348.8358 439.9294 L343.8358 442.9294 L338.8358 439.9294 Z" clip-path="url(#clipPath2)" stroke="none"/>
      <path fill="none" d="M399.9881 395.2018 L648.5103 395.2018 L648.5103 273.1206" clip-path="url(#clipPath2)"/>
      <path d="M391.9881 395.2018 L403.9881 400.2018 L400.9881 395.2018 L403.9881 390.2018 Z" clip-path="url(#clipPath2)" stroke="none"/>
      <path d="M648.5103 265.1206 L643.5103 277.1206 L648.5103 274.1206 L653.5103 277.1206 Z" clip-path="url(#clipPath2)" stroke="none"/>
      <path fill="none" d="M208.3719 229.5297 L264.1465 229.5297" clip-path="url(#clipPath2)"/>
      <path d="M272.1465 229.5297 L260.1465 224.5297 L263.1465 229.5297 L260.1465 234.5297 Z" clip-path="url(#clipPath2)" stroke="none"/>
      <path fill="none" d="M399.9923 241.1591 L514.539 241.1591 L514.539 173.9746" clip-path="url(#clipPath2)"/>
      <path d="M391.9923 241.1591 L403.9923 246.1591 L400.9923 241.1591 L403.9923 236.1591 Z" clip-path="url(#clipPath2)" stroke="none"/>
      <path d="M514.539 165.9746 L509.539 177.9746 L514.539 174.9746 L519.539 177.9746 Z" clip-path="url(#clipPath2)" stroke="none"/>
      <path fill="none" d="M208.3987 260.5193 L264.1428 260.5193" clip-path="url(#clipPath2)"/>
      <path d="M272.1428 260.5193 L260.1428 255.5193 L263.1428 260.5193 L260.1428 265.5193 Z" clip-path="url(#clipPath2)" stroke="none"/>
      <path fill="none" d="M379.4888 419.5245 L380.0934 441.7858" clip-path="url(#clipPath2)"/>
      <path d="M380.3106 449.7829 L384.983 437.6515 L380.0663 440.7862 L374.9866 437.9231 Z" clip-path="url(#clipPath2)" stroke="none"/>
      <path fill="none" d="M299.303 271.3145 L299.303 285.316" clip-path="url(#clipPath2)"/>
      <path d="M299.303 263.3145 L294.303 275.3145 L299.303 272.3145 L304.303 275.3145 Z" clip-path="url(#clipPath2)" stroke="none"/>
      <path d="M299.303 293.316 L304.303 281.316 L299.303 284.316 L294.303 281.316 Z" clip-path="url(#clipPath2)" stroke="none"/>
      <path fill="none" d="M364.6358 263.2899 L364.6358 285.3062" clip-path="url(#clipPath2)"/>
      <path d="M364.6358 293.3062 L369.6358 281.3062 L364.6358 284.3062 L359.6358 281.3062 Z" clip-path="url(#clipPath2)" stroke="none"/>
    </g>
  </g>
</svg>
