<?xml version="1.0" encoding="UTF-8"?><svg xmlns="http://www.w3.org/2000/svg" xmlns:xlink="http://www.w3.org/1999/xlink" fill-opacity="1" color-rendering="auto" color-interpolation="auto" text-rendering="auto" stroke="black" stroke-linecap="square" width="1432" stroke-miterlimit="10" shape-rendering="auto" stroke-opacity="1" fill="black" stroke-dasharray="none" font-weight="normal" stroke-width="1" height="704" font-family="'Dialog'" font-style="normal" stroke-linejoin="miter" font-size="12px" stroke-dashoffset="0" image-rendering="auto">
  <!--Generated by ySVG 2.5-->
  <defs id="genericDefs"/>
  <g>
    <defs id="defs1">
      <linearGradient x1="575.6603" gradientUnits="userSpaceOnUse" x2="800.4692" y1="-292.0652" y2="-177.0652" id="linearGradient1" spreadMethod="reflect">
        <stop stop-opacity="1" stop-color="rgb(232,238,247)" offset="0%"/>
        <stop stop-opacity="1" stop-color="rgb(183,201,227)" offset="100%"/>
      </linearGradient>
      <linearGradient x1="359.1236" gradientUnits="userSpaceOnUse" x2="1120.3236" y1="-97.2527" y2="17.7473" id="linearGradient2" spreadMethod="reflect">
        <stop stop-opacity="1" stop-color="rgb(232,238,247)" offset="0%"/>
        <stop stop-opacity="1" stop-color="rgb(183,201,227)" offset="100%"/>
      </linearGradient>
      <linearGradient x1="200.3236" gradientUnits="userSpaceOnUse" x2="555.8236" y1="-292.0652" y2="-177.0652" id="linearGradient3" spreadMethod="reflect">
        <stop stop-opacity="1" stop-color="rgb(232,238,247)" offset="0%"/>
        <stop stop-opacity="1" stop-color="rgb(183,201,227)" offset="100%"/>
      </linearGradient>
      <linearGradient x1="224.3236" gradientUnits="userSpaceOnUse" x2="369.3236" y1="-260.0652" y2="-220.0652" id="linearGradient4" spreadMethod="reflect">
        <stop stop-opacity="1" stop-color="rgb(232,238,247)" offset="0%"/>
        <stop stop-opacity="1" stop-color="rgb(183,201,227)" offset="100%"/>
      </linearGradient>
      <linearGradient x1="391.3236" gradientUnits="userSpaceOnUse" x2="536.3236" y1="-260.0652" y2="-220.0652" id="linearGradient5" spreadMethod="reflect">
        <stop stop-opacity="1" stop-color="rgb(232,238,247)" offset="0%"/>
        <stop stop-opacity="1" stop-color="rgb(183,201,227)" offset="100%"/>
      </linearGradient>
      <linearGradient x1="621.077" gradientUnits="userSpaceOnUse" x2="766.077" y1="-260.0652" y2="-220.0652" id="linearGradient6" spreadMethod="reflect">
        <stop stop-opacity="1" stop-color="rgb(232,238,247)" offset="0%"/>
        <stop stop-opacity="1" stop-color="rgb(183,201,227)" offset="100%"/>
      </linearGradient>
      <linearGradient x1="1175.8914" gradientUnits="userSpaceOnUse" x2="1288.8914" y1="-88.1002" y2="-48.1002" id="linearGradient7" spreadMethod="reflect">
        <stop stop-opacity="1" stop-color="rgb(232,238,247)" offset="0%"/>
        <stop stop-opacity="1" stop-color="rgb(183,201,227)" offset="100%"/>
      </linearGradient>
      <linearGradient x1="1175.8914" gradientUnits="userSpaceOnUse" x2="1288.8914" y1="-18.1002" y2="21.8998" id="linearGradient8" spreadMethod="reflect">
        <stop stop-opacity="1" stop-color="rgb(232,238,247)" offset="0%"/>
        <stop stop-opacity="1" stop-color="rgb(183,201,227)" offset="100%"/>
      </linearGradient>
      <linearGradient x1="820.3059" gradientUnits="userSpaceOnUse" x2="965.3059" y1="-270.6197" y2="-209.5106" id="linearGradient9" spreadMethod="reflect">
        <stop stop-opacity="1" stop-color="rgb(232,238,247)" offset="0%"/>
        <stop stop-opacity="1" stop-color="rgb(183,201,227)" offset="100%"/>
      </linearGradient>
      <linearGradient x1="659.184" gradientUnits="userSpaceOnUse" x2="788.184" y1="106.1223" y2="182.1223" id="linearGradient10" spreadMethod="reflect">
        <stop stop-opacity="1" stop-color="rgb(232,238,247)" offset="0%"/>
        <stop stop-opacity="1" stop-color="rgb(183,201,227)" offset="100%"/>
      </linearGradient>
      <linearGradient x1="659.184" gradientUnits="userSpaceOnUse" x2="788.184" y1="55.3723" y2="131.3723" id="linearGradient11" spreadMethod="reflect">
        <stop stop-opacity="1" stop-color="rgb(232,238,247)" offset="0%"/>
        <stop stop-opacity="1" stop-color="rgb(183,201,227)" offset="100%"/>
      </linearGradient>
      <linearGradient x1="975.3236" gradientUnits="userSpaceOnUse" x2="1120.3236" y1="-270.6197" y2="-209.5106" id="linearGradient12" spreadMethod="reflect">
        <stop stop-opacity="1" stop-color="rgb(232,238,247)" offset="0%"/>
        <stop stop-opacity="1" stop-color="rgb(183,201,227)" offset="100%"/>
      </linearGradient>
      <linearGradient x1="1023.882" gradientUnits="userSpaceOnUse" x2="1071.382" y1="69.3723" y2="117.3723" id="linearGradient13" spreadMethod="reflect">
        <stop stop-opacity="1" stop-color="rgb(232,238,247)" offset="0%"/>
        <stop stop-opacity="1" stop-color="rgb(183,201,227)" offset="100%"/>
      </linearGradient>
      <linearGradient x1="7.3236" gradientUnits="userSpaceOnUse" x2="120.3236" y1="130.7987" y2="170.7987" id="linearGradient14" spreadMethod="reflect">
        <stop stop-opacity="1" stop-color="rgb(232,238,247)" offset="0%"/>
        <stop stop-opacity="1" stop-color="rgb(183,201,227)" offset="100%"/>
      </linearGradient>
      <linearGradient x1="10.5995" gradientUnits="userSpaceOnUse" x2="123.5995" y1="-66.6534" y2="-36.4034" id="linearGradient15" spreadMethod="reflect">
        <stop stop-opacity="1" stop-color="rgb(232,238,247)" offset="0%"/>
        <stop stop-opacity="1" stop-color="rgb(183,201,227)" offset="100%"/>
      </linearGradient>
      <linearGradient x1="236.598" gradientUnits="userSpaceOnUse" x2="281.4707" y1="198.4269" y2="247.036" id="linearGradient16" spreadMethod="reflect">
        <stop stop-opacity="1" stop-color="rgb(232,238,247)" offset="0%"/>
        <stop stop-opacity="1" stop-color="rgb(183,201,227)" offset="100%"/>
      </linearGradient>
      <linearGradient x1="179.8671" gradientUnits="userSpaceOnUse" x2="230.0343" y1="198.4269" y2="242.6451" id="linearGradient17" spreadMethod="reflect">
        <stop stop-opacity="1" stop-color="rgb(232,238,247)" offset="0%"/>
        <stop stop-opacity="1" stop-color="rgb(183,201,227)" offset="100%"/>
      </linearGradient>
      <linearGradient x1="187.3652" gradientUnits="userSpaceOnUse" x2="307.1871" y1="119.8178" y2="168.4269" id="linearGradient18" spreadMethod="reflect">
        <stop stop-opacity="1" stop-color="rgb(232,238,247)" offset="0%"/>
        <stop stop-opacity="1" stop-color="rgb(183,201,227)" offset="100%"/>
      </linearGradient>
      <linearGradient x1="187.3652" gradientUnits="userSpaceOnUse" x2="307.1871" y1="-61.8618" y2="-17.6436" id="linearGradient19" spreadMethod="reflect">
        <stop stop-opacity="1" stop-color="rgb(232,238,247)" offset="0%"/>
        <stop stop-opacity="1" stop-color="rgb(183,201,227)" offset="100%"/>
      </linearGradient>
      <linearGradient x1="10.5995" gradientUnits="userSpaceOnUse" x2="123.5995" y1="-30.7891" y2="-0.5391" id="linearGradient20" spreadMethod="reflect">
        <stop stop-opacity="1" stop-color="rgb(232,238,247)" offset="0%"/>
        <stop stop-opacity="1" stop-color="rgb(183,201,227)" offset="100%"/>
      </linearGradient>
      <linearGradient x1="288.0343" gradientUnits="userSpaceOnUse" x2="342.7398" y1="198.7314" y2="242.6451" id="linearGradient21" spreadMethod="reflect">
        <stop stop-opacity="1" stop-color="rgb(232,238,247)" offset="0%"/>
        <stop stop-opacity="1" stop-color="rgb(183,201,227)" offset="100%"/>
      </linearGradient>
      <linearGradient x1="187.1489" gradientUnits="userSpaceOnUse" x2="241.8543" y1="12.3564" y2="52.3564" id="linearGradient22" spreadMethod="reflect">
        <stop stop-opacity="1" stop-color="rgb(232,238,247)" offset="0%"/>
        <stop stop-opacity="1" stop-color="rgb(183,201,227)" offset="100%"/>
      </linearGradient>
      <linearGradient x1="252.4816" gradientUnits="userSpaceOnUse" x2="307.1871" y1="12.3564" y2="52.3564" id="linearGradient23" spreadMethod="reflect">
        <stop stop-opacity="1" stop-color="rgb(232,238,247)" offset="0%"/>
        <stop stop-opacity="1" stop-color="rgb(183,201,227)" offset="100%"/>
      </linearGradient>
      <clipPath clipPathUnits="userSpaceOnUse" id="clipPath1">
        <path d="M0 0 L1432 0 L1432 704 L0 704 L0 0 Z"/>
      </clipPath>
      <clipPath clipPathUnits="userSpaceOnUse" id="clipPath2">
        <path d="M-97 -427 L1335 -427 L1335 277 L-97 277 L-97 -427 Z"/>
      </clipPath>
    </defs>
    <g fill="white" text-rendering="geometricPrecision" shape-rendering="geometricPrecision" transform="translate(97,427)" stroke="white">
      <rect x="-97" width="1432" height="704" y="-427" clip-path="url(#clipPath2)" stroke="none"/>
    </g>
    <g text-rendering="geometricPrecision" stroke-miterlimit="1.45" shape-rendering="geometricPrecision" transform="matrix(1,0,0,1,97,427)" stroke-linecap="butt">
      <rect fill="none" x="150.3236" width="988.9823" height="596.9909" y="-335.3777" clip-path="url(#clipPath2)"/>
      <text x="156.3236" xml:space="preserve" y="-317.3132" clip-path="url(#clipPath2)" font-family="sans-serif" stroke="none">StudyBuilder System</text>
    </g>
    <g fill="url(#linearGradient1)" text-rendering="geometricPrecision" shape-rendering="geometricPrecision" transform="matrix(1,0,0,1,97,427)" stroke="url(#linearGradient1)">
      <rect x="575.6603" y="-292.0652" clip-path="url(#clipPath2)" width="224.809" rx="57.5" ry="57.5" height="115" stroke="none"/>
    </g>
    <g text-rendering="geometricPrecision" stroke-miterlimit="1.45" shape-rendering="geometricPrecision" transform="matrix(1,0,0,1,97,427)" stroke-linecap="butt">
      <rect x="575.6603" y="-292.0652" clip-path="url(#clipPath2)" fill="none" width="224.809" rx="57.5" ry="57.5" height="115"/>
      <text x="627.2127" xml:space="preserve" y="-274.0007" clip-path="url(#clipPath2)" font-family="sans-serif" stroke="none">Documentation Portal </text>
      <text x="601.0267" xml:space="preserve" y="-195.7091" clip-path="url(#clipPath2)" font-family="sans-serif" stroke="none">[VuePress using markdown files]</text>
    </g>
    <g text-rendering="geometricPrecision" stroke-miterlimit="1.45" shape-rendering="geometricPrecision" transform="matrix(1,0,0,1,97,427)" stroke-linecap="butt">
      <rect fill="none" x="-81.1347" width="1400.7502" height="40" y="-411.8777" clip-path="url(#clipPath2)"/>
      <path fill="none" d="M-71.1347 -411.8777 L-71.1347 -371.8777 M1309.6155 -411.8777 L1309.6155 -371.8777 M-71.1347 -411.8777 Z" clip-path="url(#clipPath2)"/>
      <text x="341.7589" font-size="22px" y="-383.2356" clip-path="url(#clipPath2)" font-family="sans-serif" stroke="none" font-weight="bold" xml:space="preserve">OpenStudyBuilder: System Component Architecture </text>
    </g>
    <g fill="url(#linearGradient2)" text-rendering="geometricPrecision" shape-rendering="geometricPrecision" transform="matrix(1,0,0,1,97,427)" stroke="url(#linearGradient2)">
      <rect x="359.1236" width="761.2" height="115" y="-97.2527" clip-path="url(#clipPath2)" stroke="none"/>
    </g>
    <g text-rendering="geometricPrecision" stroke-miterlimit="1.45" shape-rendering="geometricPrecision" transform="matrix(1,0,0,1,97,427)" stroke-linecap="butt">
      <rect fill="none" x="359.1236" width="761.2" height="115" y="-97.2527" clip-path="url(#clipPath2)"/>
      <path fill="none" d="M369.1236 -97.2527 L369.1236 17.7473 M1110.3236 -97.2527 L1110.3236 17.7473 M369.1236 -97.2527 Z" clip-path="url(#clipPath2)"/>
      <text x="693.7158" xml:space="preserve" y="-71.7917" clip-path="url(#clipPath2)" font-family="sans-serif" stroke="none">Clinical MDR API</text>
      <text x="636.3584" xml:space="preserve" y="-57.0906" clip-path="url(#clipPath2)" font-family="sans-serif" stroke="none">(Access control, versioning, workflows)</text>
      <text x="649.0205" xml:space="preserve" y="-42.3894" clip-path="url(#clipPath2)" font-family="sans-serif" stroke="none">[Python using FastAPI framework]</text>
      <text x="738.0566" xml:space="preserve" y="-27.6882" clip-path="url(#clipPath2)" font-family="sans-serif" stroke="none"> </text>
      <text x="509.2568" xml:space="preserve" y="-12.9871" clip-path="url(#clipPath2)" font-family="sans-serif" stroke="none">[Packages: requests, py2neo, neomodel, openpyxl, dict2xml, gitpython, enforce-typing,</text>
      <text x="575.2979" xml:space="preserve" y="1.7141" clip-path="url(#clipPath2)" font-family="sans-serif" stroke="none">hypothesis, okta-jw, python-jose, fastapi-etag, python-dateutil]</text>
    </g>
    <g fill="url(#linearGradient3)" text-rendering="geometricPrecision" shape-rendering="geometricPrecision" transform="matrix(1,0,0,1,97,427)" stroke="url(#linearGradient3)">
      <rect x="200.3236" y="-292.0652" clip-path="url(#clipPath2)" width="355.5" rx="57.5" ry="57.5" height="115" stroke="none"/>
    </g>
    <g text-rendering="geometricPrecision" stroke-miterlimit="1.45" shape-rendering="geometricPrecision" transform="matrix(1,0,0,1,97,427)" stroke-linecap="butt">
      <rect x="200.3236" y="-292.0652" clip-path="url(#clipPath2)" fill="none" width="355.5" rx="57.5" ry="57.5" height="115"/>
      <text x="331.7113" xml:space="preserve" y="-274.0007" clip-path="url(#clipPath2)" font-family="sans-serif" stroke="none">OpenStudyBuilder App</text>
    </g>
    <g fill="url(#linearGradient4)" text-rendering="geometricPrecision" shape-rendering="geometricPrecision" transform="matrix(1,0,0,1,97,427)" stroke="url(#linearGradient4)">
      <rect x="224.3236" y="-260.0652" clip-path="url(#clipPath2)" width="145" rx="20" ry="20" height="40" stroke="none"/>
    </g>
    <g text-rendering="geometricPrecision" stroke-miterlimit="1.45" shape-rendering="geometricPrecision" transform="matrix(1,0,0,1,97,427)" stroke-linecap="butt">
      <rect x="224.3236" y="-260.0652" clip-path="url(#clipPath2)" fill="none" width="145" rx="20" ry="20" height="40"/>
      <text x="254.8002" xml:space="preserve" y="-235.3513" clip-path="url(#clipPath2)" font-family="sans-serif" stroke="none">Study Definition</text>
    </g>
    <g fill="url(#linearGradient5)" text-rendering="geometricPrecision" shape-rendering="geometricPrecision" transform="matrix(1,0,0,1,97,427)" stroke="url(#linearGradient5)">
      <rect x="391.3236" y="-260.0652" clip-path="url(#clipPath2)" width="145" rx="20" ry="20" height="40" stroke="none"/>
    </g>
    <g text-rendering="geometricPrecision" stroke-miterlimit="1.45" shape-rendering="geometricPrecision" transform="matrix(1,0,0,1,97,427)" stroke-linecap="butt">
      <rect x="391.3236" y="-260.0652" clip-path="url(#clipPath2)" fill="none" width="145" rx="20" ry="20" height="40"/>
      <text x="445.4838" xml:space="preserve" y="-235.3513" clip-path="url(#clipPath2)" font-family="sans-serif" stroke="none">Library</text>
    </g>
    <g text-rendering="geometricPrecision" stroke-miterlimit="1.45" shape-rendering="geometricPrecision" font-family="sans-serif" transform="matrix(1,0,0,1,97,427)" stroke-linecap="butt">
      <text x="237.851" xml:space="preserve" y="-194.8917" clip-path="url(#clipPath2)" stroke="none">[Vue.js JavaScript framework using Vutify style library</text>
    </g>
    <g fill="url(#linearGradient6)" text-rendering="geometricPrecision" shape-rendering="geometricPrecision" transform="matrix(1,0,0,1,97,427)" stroke="url(#linearGradient6)">
      <rect x="621.0769" y="-260.0652" clip-path="url(#clipPath2)" width="145" rx="20" ry="20" height="40" stroke="none"/>
    </g>
    <g text-rendering="geometricPrecision" stroke-miterlimit="1.45" shape-rendering="geometricPrecision" transform="matrix(1,0,0,1,97,427)" stroke-linecap="butt">
      <rect x="621.0769" y="-260.0652" clip-path="url(#clipPath2)" fill="none" width="145" rx="20" ry="20" height="40"/>
      <text x="659.5574" xml:space="preserve" y="-242.7019" clip-path="url(#clipPath2)" font-family="sans-serif" stroke="none">StudyBuilder</text>
      <text x="653.2205" xml:space="preserve" y="-228.0007" clip-path="url(#clipPath2)" font-family="sans-serif" stroke="none">Documentation</text>
    </g>
    <g text-rendering="geometricPrecision" stroke-miterlimit="1.45" shape-rendering="geometricPrecision" transform="matrix(1,0,0,1,97,427)" stroke-linecap="butt">
      <rect fill="none" x="1165.1155" width="154.5" height="182.1647" y="-130.835" clip-path="url(#clipPath2)"/>
    </g>
    <g fill="white" text-rendering="geometricPrecision" shape-rendering="geometricPrecision" transform="matrix(1,0,0,1,97,427)" stroke="white">
      <rect x="1160.2903" width="154.5" height="182.1647" y="-134.4997" clip-path="url(#clipPath2)" stroke="none"/>
    </g>
    <g text-rendering="geometricPrecision" stroke-miterlimit="1.45" shape-rendering="geometricPrecision" transform="matrix(1,0,0,1,97,427)" stroke-linecap="butt">
      <rect fill="none" x="1160.2903" width="154.5" height="182.1647" y="-134.4997" clip-path="url(#clipPath2)"/>
    </g>
    <g fill="white" text-rendering="geometricPrecision" shape-rendering="geometricPrecision" transform="matrix(1,0,0,1,97,427)" stroke="white">
      <rect x="1155.1414" width="154.5" height="182.1647" y="-139.5702" clip-path="url(#clipPath2)" stroke="none"/>
    </g>
    <g text-rendering="geometricPrecision" stroke-miterlimit="1.45" shape-rendering="geometricPrecision" transform="matrix(1,0,0,1,97,427)" stroke-linecap="butt">
      <rect fill="none" x="1155.1414" width="154.5" height="182.1647" y="-139.5702" clip-path="url(#clipPath2)"/>
      <text x="1161.1414" y="-121.5058" clip-path="url(#clipPath2)" font-family="sans-serif" font-style="italic" stroke="none" xml:space="preserve">Down stream systems</text>
    </g>
    <g fill="url(#linearGradient7)" text-rendering="geometricPrecision" shape-rendering="geometricPrecision" transform="matrix(1,0,0,1,97,427)" stroke="url(#linearGradient7)">
      <rect x="1175.8914" width="113" height="40" y="-88.1002" clip-path="url(#clipPath2)" stroke="none"/>
    </g>
    <g text-rendering="geometricPrecision" stroke-miterlimit="1.45" shape-rendering="geometricPrecision" transform="matrix(1,0,0,1,97,427)" stroke-linecap="butt">
      <rect fill="none" x="1175.8914" width="113" height="40" y="-88.1002" clip-path="url(#clipPath2)"/>
      <path fill="none" d="M1185.8914 -88.1002 L1185.8914 -48.1002 M1278.8914 -88.1002 L1278.8914 -48.1002 M1185.8914 -88.1002 Z" clip-path="url(#clipPath2)"/>
      <text x="1204.7058" xml:space="preserve" y="-63.3864" clip-path="url(#clipPath2)" font-family="sans-serif" stroke="none">API based</text>
    </g>
    <g fill="url(#linearGradient8)" text-rendering="geometricPrecision" shape-rendering="geometricPrecision" transform="matrix(1,0,0,1,97,427)" stroke="url(#linearGradient8)">
      <path d="M1175.8914 -18.1002 L1288.8914 -18.1002 L1288.8914 21.8998 L1175.8914 21.8998 Z" stroke="none" clip-path="url(#clipPath2)"/>
    </g>
    <g text-rendering="geometricPrecision" stroke-miterlimit="1.45" shape-rendering="geometricPrecision" transform="matrix(1,0,0,1,97,427)" stroke-linecap="butt">
      <path fill="none" d="M1175.8914 -18.1002 L1288.8914 -18.1002 L1288.8914 21.8998 L1175.8914 21.8998 Z" clip-path="url(#clipPath2)"/>
      <text x="1189.7" xml:space="preserve" y="6.6136" clip-path="url(#clipPath2)" font-family="sans-serif" stroke="none">API Integrations</text>
    </g>
    <g fill="url(#linearGradient9)" text-rendering="geometricPrecision" shape-rendering="geometricPrecision" transform="matrix(1,0,0,1,97,427)" stroke="url(#linearGradient9)">
      <rect x="820.3059" y="-270.6197" clip-path="url(#clipPath2)" width="145" rx="30.5545" ry="30.5545" height="61.1091" stroke="none"/>
    </g>
    <g text-rendering="geometricPrecision" stroke-miterlimit="1.45" shape-rendering="geometricPrecision" transform="matrix(1,0,0,1,97,427)" stroke-linecap="butt">
      <rect x="820.3059" y="-270.6197" clip-path="url(#clipPath2)" fill="none" width="145" rx="30.5545" ry="30.5545" height="61.1091"/>
      <text x="846.7981" xml:space="preserve" y="-250.0525" clip-path="url(#clipPath2)" font-family="sans-serif" stroke="none">Clinical MDR API</text>
      <text x="858.7864" xml:space="preserve" y="-235.3513" clip-path="url(#clipPath2)" font-family="sans-serif" stroke="none">Specification</text>
      <text x="834.1125" xml:space="preserve" y="-220.6501" clip-path="url(#clipPath2)" font-family="sans-serif" stroke="none">[Open API (Swagger)]</text>
    </g>
    <g fill="url(#linearGradient10)" text-rendering="geometricPrecision" shape-rendering="geometricPrecision" transform="matrix(1,0,0,1,97,427)" stroke="url(#linearGradient10)">
      <path d="M659.184 121.3223 C663.054 106.1223 784.314 106.1223 788.184 121.3223 L788.184 166.9223 C784.314 182.1223 663.054 182.1223 659.184 166.9223 Z" stroke="none" clip-path="url(#clipPath2)"/>
    </g>
    <g text-rendering="geometricPrecision" stroke-miterlimit="1.45" shape-rendering="geometricPrecision" transform="matrix(1,0,0,1,97,427)" stroke-linecap="butt">
      <path fill="none" d="M659.184 121.3223 C663.054 106.1223 784.314 106.1223 788.184 121.3223 L788.184 166.9223 C784.314 182.1223 663.054 182.1223 659.184 166.9223 Z" clip-path="url(#clipPath2)"/>
      <path fill="none" d="M788.184 121.3223 C784.314 136.5223 663.054 136.5223 659.184 121.3223" clip-path="url(#clipPath2)"/>
      <text x="676.6537" xml:space="preserve" y="151.2675" clip-path="url(#clipPath2)" font-family="sans-serif" stroke="none">Graph Database</text>
      <text x="701.6703" xml:space="preserve" y="165.9686" clip-path="url(#clipPath2)" font-family="sans-serif" stroke="none">[Neo4j]</text>
    </g>
    <g fill="url(#linearGradient11)" text-rendering="geometricPrecision" shape-rendering="geometricPrecision" transform="matrix(1,0,0,1,97,427)" stroke="url(#linearGradient11)">
      <path d="M659.184 70.5723 C663.054 55.3723 784.314 55.3723 788.184 70.5723 L788.184 116.1723 C784.314 131.3723 663.054 131.3723 659.184 116.1723 Z" stroke="none" clip-path="url(#clipPath2)"/>
    </g>
    <g text-rendering="geometricPrecision" stroke-miterlimit="1.45" shape-rendering="geometricPrecision" transform="matrix(1,0,0,1,97,427)" stroke-linecap="butt">
      <path fill="none" d="M659.184 70.5723 C663.054 55.3723 784.314 55.3723 788.184 70.5723 L788.184 116.1723 C784.314 131.3723 663.054 131.3723 659.184 116.1723 Z" clip-path="url(#clipPath2)"/>
      <path fill="none" d="M788.184 70.5723 C784.314 85.7723 663.054 85.7723 659.184 70.5723" clip-path="url(#clipPath2)"/>
      <text x="689.014" xml:space="preserve" y="100.5175" clip-path="url(#clipPath2)" font-family="sans-serif" stroke="none">Clinical MDR</text>
      <text x="701.0082" xml:space="preserve" y="115.2186" clip-path="url(#clipPath2)" font-family="sans-serif" stroke="none">[Cypher]</text>
    </g>
    <g fill="url(#linearGradient12)" text-rendering="geometricPrecision" shape-rendering="geometricPrecision" transform="matrix(1,0,0,1,97,427)" stroke="url(#linearGradient12)">
      <rect x="975.3236" y="-270.6197" clip-path="url(#clipPath2)" width="145" rx="30.5545" ry="30.5545" height="61.1091" stroke="none"/>
    </g>
    <g text-rendering="geometricPrecision" stroke-miterlimit="1.45" shape-rendering="geometricPrecision" transform="matrix(1,0,0,1,97,427)" stroke-linecap="butt">
      <rect x="975.3236" y="-270.6197" clip-path="url(#clipPath2)" fill="none" width="145" rx="30.5545" ry="30.5545" height="61.1091"/>
      <text x="1001.473" xml:space="preserve" y="-242.7019" clip-path="url(#clipPath2)" font-family="sans-serif" stroke="none">DDF API Adaptor</text>
      <text x="1031.8158" xml:space="preserve" y="-228.0007" clip-path="url(#clipPath2)" font-family="sans-serif" stroke="none">[Java]</text>
    </g>
    <g fill="url(#linearGradient13)" text-rendering="geometricPrecision" shape-rendering="geometricPrecision" transform="matrix(1,0,0,1,97,427)" stroke="url(#linearGradient13)">
      <rect x="1023.882" width="47.5" height="48" y="69.3723" clip-path="url(#clipPath2)" stroke="none"/>
    </g>
    <g text-rendering="geometricPrecision" stroke-miterlimit="1.45" shape-rendering="geometricPrecision" transform="matrix(1,0,0,1,97,427)" stroke-linecap="butt">
      <rect fill="none" x="1023.882" width="47.5" height="48" y="69.3723" clip-path="url(#clipPath2)"/>
      <path fill="none" d="M1033.882 69.3723 L1033.882 117.3723 M1023.882 79.3723 L1071.382 79.3723 M1033.882 69.3723 Z" clip-path="url(#clipPath2)"/>
      <text x="1042.7032" xml:space="preserve" y="94.0344" clip-path="url(#clipPath2)" font-family="sans-serif" stroke="none">Log</text>
      <text x="1040.046" xml:space="preserve" y="108.7356" clip-path="url(#clipPath2)" font-family="sans-serif" stroke="none">Files</text>
    </g>
    <g text-rendering="geometricPrecision" stroke-miterlimit="1.45" shape-rendering="geometricPrecision" transform="matrix(1,0,0,1,97,427)" stroke-linecap="butt">
      <rect fill="none" x="-81.1347" width="223.0661" height="176.9444" y="84.6688" clip-path="url(#clipPath2)"/>
      <text x="-75.1347" xml:space="preserve" y="102.7333" clip-path="url(#clipPath2)" font-family="sans-serif" stroke="none">CDISC Library</text>
    </g>
    <g fill="url(#linearGradient14)" text-rendering="geometricPrecision" shape-rendering="geometricPrecision" transform="matrix(1,0,0,1,97,427)" stroke="url(#linearGradient14)">
      <rect x="7.3236" width="113" height="40" y="130.7987" clip-path="url(#clipPath2)" stroke="none"/>
    </g>
    <g text-rendering="geometricPrecision" stroke-miterlimit="1.45" shape-rendering="geometricPrecision" transform="matrix(1,0,0,1,97,427)" stroke-linecap="butt">
      <rect fill="none" x="7.3236" width="113" height="40" y="130.7987" clip-path="url(#clipPath2)"/>
      <path fill="none" d="M17.3236 130.7987 L17.3236 170.7987 M110.3236 130.7987 L110.3236 170.7987 M17.3236 130.7987 Z" clip-path="url(#clipPath2)"/>
      <text x="25.1488" xml:space="preserve" y="148.162" clip-path="url(#clipPath2)" font-family="sans-serif" stroke="none">CDISC Library</text>
      <text x="54.1527" xml:space="preserve" y="162.8631" clip-path="url(#clipPath2)" font-family="sans-serif" stroke="none">API</text>
    </g>
    <g text-rendering="geometricPrecision" stroke-miterlimit="1.45" shape-rendering="geometricPrecision" transform="matrix(1,0,0,1,97,427)" stroke-linecap="butt">
      <rect fill="none" x="-81.1347" width="221.8333" height="168.5526" y="-107.5331" clip-path="url(#clipPath2)"/>
      <text x="-75.1347" xml:space="preserve" y="-89.4687" clip-path="url(#clipPath2)" font-family="sans-serif" stroke="none">Other sources</text>
    </g>
    <g fill="url(#linearGradient15)" text-rendering="geometricPrecision" shape-rendering="geometricPrecision" transform="matrix(1,0,0,1,97,427)" stroke="url(#linearGradient15)">
      <rect x="10.5995" width="113" height="30.25" y="-66.6534" clip-path="url(#clipPath2)" stroke="none"/>
    </g>
    <g text-rendering="geometricPrecision" stroke-miterlimit="1.45" shape-rendering="geometricPrecision" transform="matrix(1,0,0,1,97,427)" stroke-linecap="butt">
      <rect fill="none" x="10.5995" width="113" height="30.25" y="-66.6534" clip-path="url(#clipPath2)"/>
      <path fill="none" d="M20.5995 -66.6534 L20.5995 -36.4034 M10.5995 -56.6534 L123.5995 -56.6534 M20.5995 -66.6534 Z" clip-path="url(#clipPath2)"/>
      <text x="35.7548" xml:space="preserve" y="-46.8145" clip-path="url(#clipPath2)" font-family="sans-serif" stroke="none">Dictionaries</text>
    </g>
    <g fill="url(#linearGradient16)" text-rendering="geometricPrecision" shape-rendering="geometricPrecision" transform="matrix(1,0,0,1,97,427)" stroke="url(#linearGradient16)">
      <path d="M236.598 208.1487 C237.9442 198.4269 280.1245 198.4269 281.4707 208.1487 L281.4707 237.3141 C280.1245 247.036 237.9442 247.036 236.598 237.3141 Z" stroke="none" clip-path="url(#clipPath2)"/>
    </g>
    <g text-rendering="geometricPrecision" stroke-miterlimit="1.45" shape-rendering="geometricPrecision" transform="matrix(1,0,0,1,97,427)" stroke-linecap="butt">
      <path fill="none" d="M236.598 208.1487 C237.9442 198.4269 280.1245 198.4269 281.4707 208.1487 L281.4707 237.3141 C280.1245 247.036 237.9442 247.036 236.598 237.3141 Z" clip-path="url(#clipPath2)"/>
      <path fill="none" d="M281.4707 208.1487 C280.1245 217.8705 237.9442 217.8705 236.598 208.1487" clip-path="url(#clipPath2)"/>
      <text x="246.2484" font-size="8px" y="224.0675" clip-path="url(#clipPath2)" font-family="sans-serif" stroke="none" xml:space="preserve">Staging</text>
      <text x="255.3656" font-size="8px" y="233.8683" clip-path="url(#clipPath2)" font-family="sans-serif" stroke="none" xml:space="preserve">db</text>
    </g>
    <g fill="url(#linearGradient17)" text-rendering="geometricPrecision" shape-rendering="geometricPrecision" transform="matrix(1,0,0,1,97,427)" stroke="url(#linearGradient17)">
      <rect x="179.8671" width="50.1673" height="44.2182" y="198.4269" clip-path="url(#clipPath2)" stroke="none"/>
    </g>
    <g text-rendering="geometricPrecision" stroke-miterlimit="1.45" shape-rendering="geometricPrecision" transform="matrix(1,0,0,1,97,427)" stroke-linecap="butt">
      <rect fill="none" x="179.8671" width="50.1673" height="44.2182" y="198.4269" clip-path="url(#clipPath2)"/>
      <path fill="none" d="M189.8671 198.4269 L189.8671 242.6451 M179.8671 208.4269 L230.0343 208.4269 M189.8671 198.4269 Z" clip-path="url(#clipPath2)"/>
      <text x="198.8632" font-size="8px" y="219.0675" clip-path="url(#clipPath2)" font-family="sans-serif" stroke="none" xml:space="preserve">CDISC</text>
      <text x="199.9725" font-size="8px" y="228.8683" clip-path="url(#clipPath2)" font-family="sans-serif" stroke="none" xml:space="preserve">Import</text>
      <text x="202.8632" font-size="8px" y="238.6691" clip-path="url(#clipPath2)" font-family="sans-serif" stroke="none" xml:space="preserve">Files</text>
    </g>
    <g fill="url(#linearGradient18)" text-rendering="geometricPrecision" shape-rendering="geometricPrecision" transform="matrix(1,0,0,1,97,427)" stroke="url(#linearGradient18)">
      <path d="M187.3652 119.8178 L307.1871 119.8178 L307.1871 168.4269 L187.3652 168.4269 Z" stroke="none" clip-path="url(#clipPath2)"/>
    </g>
    <g text-rendering="geometricPrecision" stroke-miterlimit="1.45" shape-rendering="geometricPrecision" transform="matrix(1,0,0,1,97,427)" stroke-linecap="butt">
      <path fill="none" d="M187.3652 119.8178 L307.1871 119.8178 L307.1871 168.4269 L187.3652 168.4269 Z" clip-path="url(#clipPath2)"/>
      <text x="208.6014" xml:space="preserve" y="134.135" clip-path="url(#clipPath2)" font-family="sans-serif" stroke="none">CDISC Library</text>
      <text x="201.2537" xml:space="preserve" y="148.8362" clip-path="url(#clipPath2)" font-family="sans-serif" stroke="none">Standards Import</text>
      <text x="201.2537" xml:space="preserve" y="163.5374" clip-path="url(#clipPath2)" font-family="sans-serif" stroke="none">[Python program]</text>
    </g>
    <g fill="url(#linearGradient19)" text-rendering="geometricPrecision" shape-rendering="geometricPrecision" transform="matrix(1,0,0,1,97,427)" stroke="url(#linearGradient19)">
      <path d="M187.3652 -61.8618 L307.1871 -61.8618 L307.1871 -17.6436 L187.3652 -17.6436 Z" stroke="none" clip-path="url(#clipPath2)"/>
    </g>
    <g text-rendering="geometricPrecision" stroke-miterlimit="1.45" shape-rendering="geometricPrecision" transform="matrix(1,0,0,1,97,427)" stroke-linecap="butt">
      <path fill="none" d="M187.3652 -61.8618 L307.1871 -61.8618 L307.1871 -17.6436 L187.3652 -17.6436 Z" clip-path="url(#clipPath2)"/>
      <text x="215.9314" xml:space="preserve" y="-42.3894" clip-path="url(#clipPath2)" font-family="sans-serif" stroke="none">Data Import</text>
      <text x="201.2537" xml:space="preserve" y="-27.6882" clip-path="url(#clipPath2)" font-family="sans-serif" stroke="none">[Python program]</text>
    </g>
    <g stroke-linecap="butt" transform="matrix(1,0,0,1,97,427)" text-rendering="geometricPrecision" font-family="sans-serif" shape-rendering="geometricPrecision" font-style="italic" stroke-miterlimit="1.45">
      <text x="-76.6344" xml:space="preserve" y="-164.1661" clip-path="url(#clipPath2)" stroke="none">Source Systems</text>
    </g>
    <g fill="url(#linearGradient20)" text-rendering="geometricPrecision" shape-rendering="geometricPrecision" transform="matrix(1,0,0,1,97,427)" stroke="url(#linearGradient20)">
      <rect x="10.5995" width="113" height="30.25" y="-30.7891" clip-path="url(#clipPath2)" stroke="none"/>
    </g>
    <g text-rendering="geometricPrecision" stroke-miterlimit="1.45" shape-rendering="geometricPrecision" transform="matrix(1,0,0,1,97,427)" stroke-linecap="butt">
      <rect fill="none" x="10.5995" width="113" height="30.25" y="-30.7891" clip-path="url(#clipPath2)"/>
      <path fill="none" d="M20.5995 -30.7891 L20.5995 -0.5391 M10.5995 -20.7891 L123.5995 -20.7891 M20.5995 -30.7891 Z" clip-path="url(#clipPath2)"/>
      <text x="28.7441" xml:space="preserve" y="-10.9502" clip-path="url(#clipPath2)" font-family="sans-serif" stroke="none">Sponsor Dtata</text>
    </g>
    <g fill="url(#linearGradient21)" text-rendering="geometricPrecision" shape-rendering="geometricPrecision" transform="matrix(1,0,0,1,97,427)" stroke="url(#linearGradient21)">
      <rect x="288.0343" width="54.7055" height="43.9136" y="198.7314" clip-path="url(#clipPath2)" stroke="none"/>
    </g>
    <g text-rendering="geometricPrecision" stroke-miterlimit="1.45" shape-rendering="geometricPrecision" transform="matrix(1,0,0,1,97,427)" stroke-linecap="butt">
      <rect fill="none" x="288.0343" width="54.7055" height="43.9136" y="198.7314" clip-path="url(#clipPath2)"/>
      <path fill="none" d="M298.0343 198.7314 L298.0343 242.6451 M288.0343 208.7314 L342.7398 208.7314 M298.0343 198.7314 Z" clip-path="url(#clipPath2)"/>
      <text x="305.1607" font-size="8px" y="219.372" clip-path="url(#clipPath2)" font-family="sans-serif" stroke="none" xml:space="preserve">CDISC</text>
      <text x="306.2701" font-size="8px" y="229.1728" clip-path="url(#clipPath2)" font-family="sans-serif" stroke="none" xml:space="preserve">Import</text>
      <text x="301.3755" font-size="8px" y="238.9736" clip-path="url(#clipPath2)" font-family="sans-serif" stroke="none" xml:space="preserve">Log Files</text>
    </g>
    <g fill="url(#linearGradient22)" text-rendering="geometricPrecision" shape-rendering="geometricPrecision" transform="matrix(1,0,0,1,97,427)" stroke="url(#linearGradient22)">
      <rect x="187.1489" width="54.7055" height="40" y="12.3564" clip-path="url(#clipPath2)" stroke="none"/>
    </g>
    <g text-rendering="geometricPrecision" stroke-miterlimit="1.45" shape-rendering="geometricPrecision" transform="matrix(1,0,0,1,97,427)" stroke-linecap="butt">
      <rect fill="none" x="187.1489" width="54.7055" height="40" y="12.3564" clip-path="url(#clipPath2)"/>
      <path fill="none" d="M197.1489 12.3564 L197.1489 52.3564 M187.1489 22.3564 L241.8543 22.3564 M197.1489 12.3564 Z" clip-path="url(#clipPath2)"/>
      <text x="208.6997" font-size="8px" y="30.1239" clip-path="url(#clipPath2)" font-family="sans-serif" stroke="none" xml:space="preserve">Data</text>
      <text x="205.813" font-size="8px" y="39.9247" clip-path="url(#clipPath2)" font-family="sans-serif" stroke="none" xml:space="preserve">Import</text>
      <text x="208.7036" font-size="8px" y="49.7254" clip-path="url(#clipPath2)" font-family="sans-serif" stroke="none" xml:space="preserve">Files</text>
    </g>
    <g fill="url(#linearGradient23)" text-rendering="geometricPrecision" shape-rendering="geometricPrecision" transform="matrix(1,0,0,1,97,427)" stroke="url(#linearGradient23)">
      <rect x="252.4816" width="54.7055" height="40" y="12.3564" clip-path="url(#clipPath2)" stroke="none"/>
    </g>
    <g text-rendering="geometricPrecision" stroke-miterlimit="1.45" shape-rendering="geometricPrecision" transform="matrix(1,0,0,1,97,427)" stroke-linecap="butt">
      <rect fill="none" x="252.4816" width="54.7055" height="40" y="12.3564" clip-path="url(#clipPath2)"/>
      <path fill="none" d="M262.4816 12.3564 L262.4816 52.3564 M252.4816 22.3564 L307.1871 22.3564 M262.4816 12.3564 Z" clip-path="url(#clipPath2)"/>
      <text x="273.0862" font-size="8px" y="30.1239" clip-path="url(#clipPath2)" font-family="sans-serif" stroke="none" xml:space="preserve">Data</text>
      <text x="270.1995" font-size="8px" y="39.9247" clip-path="url(#clipPath2)" font-family="sans-serif" stroke="none" xml:space="preserve">Import</text>
      <text x="265.305" font-size="8px" y="49.7254" clip-path="url(#clipPath2)" font-family="sans-serif" stroke="none" xml:space="preserve">Log Files</text>
    </g>
    <g text-rendering="geometricPrecision" stroke-miterlimit="1.45" shape-rendering="geometricPrecision" transform="matrix(1,0,0,1,97,427)" stroke-linecap="butt">
      <path fill="none" d="M378.0736 -105.2595 L378.0736 -169.0751" clip-path="url(#clipPath2)"/>
      <path d="M378.0736 -97.2595 L383.0736 -109.2595 L378.0736 -106.2595 L373.0736 -109.2595 Z" clip-path="url(#clipPath2)" stroke="none"/>
      <path d="M378.0736 -177.0751 L373.0736 -165.0751 L378.0736 -168.0751 L383.0736 -165.0751 Z" clip-path="url(#clipPath2)" stroke="none"/>
      <path fill="none" d="M555.8115 -234.5652 L567.6688 -234.5652" clip-path="url(#clipPath2)"/>
      <path d="M575.6688 -234.5652 L563.6688 -239.5652 L566.6688 -234.5652 L563.6688 -229.5652 Z" clip-path="url(#clipPath2)" stroke="none"/>
      <path fill="none" d="M1120.3156 -68.5577 L1167.8884 -68.3635" clip-path="url(#clipPath2)"/>
      <path d="M1175.8883 -68.3309 L1163.9088 -73.3798 L1166.8884 -68.3676 L1163.868 -63.3799 Z" clip-path="url(#clipPath2)" stroke="none"/>
      <path fill="none" d="M1120.338 1.8998 L1167.8997 1.8998" clip-path="url(#clipPath2)"/>
      <path d="M1175.8997 1.8998 L1163.8997 -3.1002 L1166.8997 1.8998 L1163.8997 6.8998 Z" clip-path="url(#clipPath2)" stroke="none"/>
      <path fill="none" d="M892.8059 -97.2864 L892.8059 -201.4946" clip-path="url(#clipPath2)"/>
      <path d="M892.8059 -209.4946 L887.8059 -197.4946 L892.8059 -200.4946 L897.8059 -197.4946 Z" clip-path="url(#clipPath2)" stroke="none"/>
      <path fill="none" d="M800.4075 -237.5831 L812.3969 -237.9051" clip-path="url(#clipPath2)"/>
      <path d="M820.394 -238.12 L808.2641 -242.7959 L811.3973 -237.8783 L808.5327 -232.7995 Z" clip-path="url(#clipPath2)" stroke="none"/>
      <path fill="none" d="M723.684 25.7233 L723.684 51.2047" clip-path="url(#clipPath2)"/>
      <path d="M723.684 17.7233 L718.684 29.7233 L723.684 26.7233 L728.684 29.7233 Z" clip-path="url(#clipPath2)" stroke="none"/>
      <path d="M723.684 59.2047 L728.684 47.2047 L723.684 50.2047 L718.684 47.2047 Z" clip-path="url(#clipPath2)" stroke="none"/>
      <path fill="none" d="M1047.8236 -97.2306 L1047.8236 -201.4827" clip-path="url(#clipPath2)"/>
      <path d="M1047.8236 -209.4827 L1042.8236 -197.4827 L1047.8236 -200.4827 L1052.8236 -197.4827 Z" clip-path="url(#clipPath2)" stroke="none"/>
      <path fill="none" d="M1047.632 17.7402 L1047.632 61.4049" clip-path="url(#clipPath2)"/>
      <path d="M1047.632 69.4049 L1052.632 57.4049 L1047.632 60.4049 L1042.632 57.4049 Z" clip-path="url(#clipPath2)" stroke="none"/>
      <path fill="none" d="M120.3208 150.7987 L179.3899 150.7987" clip-path="url(#clipPath2)"/>
      <path d="M187.3899 150.7987 L175.3899 145.7987 L178.3899 150.7987 L175.3899 155.7987 Z" clip-path="url(#clipPath2)" stroke="none"/>
      <path fill="none" d="M204.9507 176.4272 L204.9507 190.4254" clip-path="url(#clipPath2)"/>
      <path d="M204.9507 168.4272 L199.9507 180.4272 L204.9507 177.4272 L209.9507 180.4272 Z" clip-path="url(#clipPath2)" stroke="none"/>
      <path d="M204.9507 198.4254 L209.9507 186.4254 L204.9507 189.4254 L199.9507 186.4254 Z" clip-path="url(#clipPath2)" stroke="none"/>
      <path fill="none" d="M259.0343 176.4122 L259.0343 192.8499" clip-path="url(#clipPath2)"/>
      <path d="M259.0343 168.4122 L254.0343 180.4122 L259.0343 177.4122 L264.0343 180.4122 Z" clip-path="url(#clipPath2)" stroke="none"/>
      <path d="M259.0343 200.8499 L264.0343 188.8499 L259.0343 191.8499 L254.0343 188.8499 Z" clip-path="url(#clipPath2)" stroke="none"/>
      <path fill="none" d="M307.2051 144.1223 L651.1938 144.1223" clip-path="url(#clipPath2)"/>
      <path d="M659.1938 144.1223 L647.1938 139.1223 L650.1938 144.1223 L647.1938 149.1223 Z" clip-path="url(#clipPath2)" stroke="none"/>
      <path fill="none" d="M123.5877 -46.8336 L179.3394 -46.8336" clip-path="url(#clipPath2)"/>
      <path d="M187.3394 -46.8336 L175.3394 -51.8336 L178.3394 -46.8336 L175.3394 -41.8336 Z" clip-path="url(#clipPath2)" stroke="none"/>
      <path fill="none" d="M307.179 -39.7527 L351.1086 -39.7527" clip-path="url(#clipPath2)"/>
      <path d="M359.1086 -39.7527 L347.1086 -44.7527 L350.1086 -39.7527 L347.1086 -34.7527 Z" clip-path="url(#clipPath2)" stroke="none"/>
      <path fill="none" d="M123.5949 -25.366 L179.373 -25.366" clip-path="url(#clipPath2)"/>
      <path d="M187.373 -25.366 L175.373 -30.366 L178.373 -25.366 L175.373 -20.366 Z" clip-path="url(#clipPath2)" stroke="none"/>
      <path fill="none" d="M294.6874 168.445 L295.292 190.7063" clip-path="url(#clipPath2)"/>
      <path d="M295.5092 198.7034 L300.1816 186.5721 L295.2649 189.7067 L290.1853 186.8436 Z" clip-path="url(#clipPath2)" stroke="none"/>
      <path fill="none" d="M214.5016 -9.5973 L214.5016 4.4042" clip-path="url(#clipPath2)"/>
      <path d="M214.5016 -17.5973 L209.5016 -5.5973 L214.5016 -8.5973 L219.5016 -5.5973 Z" clip-path="url(#clipPath2)" stroke="none"/>
      <path d="M214.5016 12.4042 L219.5016 0.4042 L214.5016 3.4042 L209.5016 0.4042 Z" clip-path="url(#clipPath2)" stroke="none"/>
      <path fill="none" d="M279.8344 -17.6218 L279.8344 4.3944" clip-path="url(#clipPath2)"/>
      <path d="M279.8344 12.3944 L284.8344 0.3944 L279.8344 3.3944 L274.8344 0.3944 Z" clip-path="url(#clipPath2)" stroke="none"/>
    </g>
  </g>
</svg>
