<?xml version="1.0" encoding="UTF-8"?><svg xmlns="http://www.w3.org/2000/svg" xmlns:xlink="http://www.w3.org/1999/xlink" fill-opacity="1" color-rendering="auto" color-interpolation="auto" text-rendering="auto" stroke="black" stroke-linecap="square" width="1193" stroke-miterlimit="10" shape-rendering="auto" stroke-opacity="1" fill="black" stroke-dasharray="none" font-weight="normal" stroke-width="1" height="842" font-family="'Dialog'" font-style="normal" stroke-linejoin="miter" font-size="12px" stroke-dashoffset="0" image-rendering="auto">
  <!--Generated by ySVG 2.5-->
  <defs id="genericDefs"/>
  <g>
    <defs id="defs1">
      <clipPath clipPathUnits="userSpaceOnUse" id="clipPath1">
        <path d="M0 0 L1193 0 L1193 842 L0 842 L0 0 Z"/>
      </clipPath>
      <clipPath clipPathUnits="userSpaceOnUse" id="clipPath2">
        <path d="M-148 -125 L1045 -125 L1045 717 L-148 717 L-148 -125 Z"/>
      </clipPath>
    </defs>
    <g fill="white" text-rendering="geometricPrecision" shape-rendering="geometricPrecision" transform="translate(148,125)" stroke="white">
      <rect x="-148" width="1193" height="842" y="-125" clip-path="url(#clipPath2)" stroke="none"/>
    </g>
    <g fill="rgb(204,255,255)" text-rendering="geometricPrecision" shape-rendering="geometricPrecision" transform="matrix(1,0,0,1,148,125)" stroke="rgb(204,255,255)">
      <rect x="737.5362" width="292.2263" height="574.6749" y="127.1688" clip-path="url(#clipPath2)" stroke="none"/>
    </g>
    <g text-rendering="geometricPrecision" stroke-miterlimit="1.45" shape-rendering="geometricPrecision" transform="matrix(1,0,0,1,148,125)" stroke-linecap="butt">
      <rect fill="none" x="737.5362" width="292.2263" height="574.6749" y="127.1688" clip-path="url(#clipPath2)"/>
    </g>
    <g fill="rgb(153,204,255)" text-rendering="geometricPrecision" shape-rendering="geometricPrecision" transform="matrix(1,0,0,1,148,125)" stroke="rgb(153,204,255)">
      <rect x="227.25" y="187.5" clip-path="url(#clipPath2)" width="247" rx="4" ry="4" height="61" stroke="none"/>
    </g>
    <g text-rendering="geometricPrecision" stroke-miterlimit="1.45" shape-rendering="geometricPrecision" transform="matrix(1,0,0,1,148,125)" stroke-linecap="butt">
      <rect x="227.25" y="187.5" clip-path="url(#clipPath2)" fill="none" width="247" rx="4" ry="4" height="61"/>
      <text x="265.7695" font-size="16px" y="223.5391" clip-path="url(#clipPath2)" font-family="sans-serif" stroke="none" font-weight="bold" xml:space="preserve">ObjectiveTemplate</text>
    </g>
    <g fill="rgb(153,204,255)" text-rendering="geometricPrecision" shape-rendering="geometricPrecision" transform="matrix(1,0,0,1,148,125)" stroke="rgb(153,204,255)">
      <rect x="-132.75" y="-11.5" clip-path="url(#clipPath2)" width="247" rx="4" ry="4" height="61" stroke="none"/>
    </g>
    <g text-rendering="geometricPrecision" stroke-miterlimit="1.45" shape-rendering="geometricPrecision" transform="matrix(1,0,0,1,148,125)" stroke-linecap="butt">
      <rect x="-132.75" y="-11.5" clip-path="url(#clipPath2)" fill="none" width="247" rx="4" ry="4" height="61"/>
      <text x="-41.3203" font-size="16px" y="24.5391" clip-path="url(#clipPath2)" font-family="sans-serif" stroke="none" font-weight="bold" xml:space="preserve">Library</text>
    </g>
    <g fill="rgb(153,204,255)" text-rendering="geometricPrecision" shape-rendering="geometricPrecision" transform="matrix(1,0,0,1,148,125)" stroke="rgb(153,204,255)">
      <rect x="317.25" y="318.5" clip-path="url(#clipPath2)" width="247" rx="4" ry="4" height="61" stroke="none"/>
    </g>
    <g text-rendering="geometricPrecision" stroke-miterlimit="1.45" shape-rendering="geometricPrecision" transform="matrix(1,0,0,1,148,125)" stroke-linecap="butt">
      <rect x="317.25" y="318.5" clip-path="url(#clipPath2)" fill="none" width="247" rx="4" ry="4" height="61"/>
      <text x="398.1055" font-size="16px" y="354.5391" clip-path="url(#clipPath2)" font-family="sans-serif" stroke="none" font-weight="bold" xml:space="preserve">Objective</text>
    </g>
    <g fill="rgb(153,204,255)" text-rendering="geometricPrecision" shape-rendering="geometricPrecision" transform="matrix(1,0,0,1,148,125)" stroke="rgb(153,204,255)">
      <rect x="197.25" y="468.5" clip-path="url(#clipPath2)" width="247" rx="4" ry="4" height="61" stroke="none"/>
    </g>
    <g text-rendering="geometricPrecision" stroke-miterlimit="1.45" shape-rendering="geometricPrecision" transform="matrix(1,0,0,1,148,125)" stroke-linecap="butt">
      <rect x="197.25" y="468.5" clip-path="url(#clipPath2)" fill="none" width="247" rx="4" ry="4" height="61"/>
      <text x="238.043" font-size="16px" y="504.5391" clip-path="url(#clipPath2)" font-family="sans-serif" stroke="none" font-weight="bold" xml:space="preserve">EndpointTemplate</text>
    </g>
    <g fill="rgb(153,204,255)" text-rendering="geometricPrecision" shape-rendering="geometricPrecision" transform="matrix(1,0,0,1,148,125)" stroke="rgb(153,204,255)">
      <rect x="356.5" y="599.5" clip-path="url(#clipPath2)" width="247" rx="4" ry="4" height="61" stroke="none"/>
    </g>
    <g text-rendering="geometricPrecision" stroke-miterlimit="1.45" shape-rendering="geometricPrecision" transform="matrix(1,0,0,1,148,125)" stroke-linecap="butt">
      <rect x="356.5" y="599.5" clip-path="url(#clipPath2)" fill="none" width="247" rx="4" ry="4" height="61"/>
      <text x="439.6289" font-size="16px" y="635.5391" clip-path="url(#clipPath2)" font-family="sans-serif" stroke="none" font-weight="bold" xml:space="preserve">Endpoint</text>
    </g>
    <g fill="rgb(153,204,255)" text-rendering="geometricPrecision" shape-rendering="geometricPrecision" transform="matrix(1,0,0,1,148,125)" stroke="rgb(153,204,255)">
      <rect x="755.75" y="167.5" clip-path="url(#clipPath2)" width="247" rx="4" ry="4" height="61" stroke="none"/>
    </g>
    <g text-rendering="geometricPrecision" stroke-miterlimit="1.45" shape-rendering="geometricPrecision" transform="matrix(1,0,0,1,148,125)" stroke-linecap="butt">
      <rect x="755.75" y="167.5" clip-path="url(#clipPath2)" fill="none" width="247" rx="4" ry="4" height="61"/>
      <text x="823.2891" font-size="16px" y="203.5391" clip-path="url(#clipPath2)" font-family="sans-serif" stroke="none" font-weight="bold" xml:space="preserve">Intervention</text>
    </g>
    <g fill="rgb(153,204,255)" text-rendering="geometricPrecision" shape-rendering="geometricPrecision" transform="matrix(1,0,0,1,148,125)" stroke="rgb(153,204,255)">
      <rect x="755.75" y="258.5" clip-path="url(#clipPath2)" width="247" rx="4" ry="4" height="61" stroke="none"/>
    </g>
    <g text-rendering="geometricPrecision" stroke-miterlimit="1.45" shape-rendering="geometricPrecision" transform="matrix(1,0,0,1,148,125)" stroke-linecap="butt">
      <rect x="755.75" y="258.5" clip-path="url(#clipPath2)" fill="none" width="247" rx="4" ry="4" height="61"/>
      <text x="820.9492" font-size="16px" y="294.5391" clip-path="url(#clipPath2)" font-family="sans-serif" stroke="none" font-weight="bold" xml:space="preserve">ClinicalEvent</text>
    </g>
    <g fill="rgb(153,204,255)" text-rendering="geometricPrecision" shape-rendering="geometricPrecision" transform="matrix(1,0,0,1,148,125)" stroke="rgb(153,204,255)">
      <rect x="755.75" y="349.5" clip-path="url(#clipPath2)" width="247" rx="4" ry="4" height="61" stroke="none"/>
    </g>
    <g text-rendering="geometricPrecision" stroke-miterlimit="1.45" shape-rendering="geometricPrecision" transform="matrix(1,0,0,1,148,125)" stroke-linecap="butt">
      <rect x="755.75" y="349.5" clip-path="url(#clipPath2)" fill="none" width="247" rx="4" ry="4" height="61"/>
      <text x="834.2109" font-size="16px" y="385.5391" clip-path="url(#clipPath2)" font-family="sans-serif" stroke="none" font-weight="bold" xml:space="preserve">Indication</text>
    </g>
    <g fill="rgb(153,204,255)" text-rendering="geometricPrecision" shape-rendering="geometricPrecision" transform="matrix(1,0,0,1,148,125)" stroke="rgb(153,204,255)">
      <rect x="755.75" y="440.5" clip-path="url(#clipPath2)" width="247" rx="4" ry="4" height="61" stroke="none"/>
    </g>
    <g text-rendering="geometricPrecision" stroke-miterlimit="1.45" shape-rendering="geometricPrecision" transform="matrix(1,0,0,1,148,125)" stroke-linecap="butt">
      <rect x="755.75" y="440.5" clip-path="url(#clipPath2)" fill="none" width="247" rx="4" ry="4" height="61"/>
      <text x="825.3047" font-size="16px" y="476.5391" clip-path="url(#clipPath2)" font-family="sans-serif" stroke="none" font-weight="bold" xml:space="preserve">Assessment</text>
    </g>
    <g fill="rgb(153,204,255)" text-rendering="geometricPrecision" shape-rendering="geometricPrecision" transform="matrix(1,0,0,1,148,125)" stroke="rgb(153,204,255)">
      <rect x="755.75" y="528.5" clip-path="url(#clipPath2)" width="247" rx="4" ry="4" height="61" stroke="none"/>
    </g>
    <g text-rendering="geometricPrecision" stroke-miterlimit="1.45" shape-rendering="geometricPrecision" transform="matrix(1,0,0,1,148,125)" stroke-linecap="butt">
      <rect x="755.75" y="528.5" clip-path="url(#clipPath2)" fill="none" width="247" rx="4" ry="4" height="61"/>
      <text x="844.7539" font-size="16px" y="564.5391" clip-path="url(#clipPath2)" font-family="sans-serif" stroke="none" font-weight="bold" xml:space="preserve">Activity</text>
    </g>
    <g fill="rgb(153,204,255)" text-rendering="geometricPrecision" shape-rendering="geometricPrecision" transform="matrix(1,0,0,1,148,125)" stroke="rgb(153,204,255)">
      <rect x="755.75" y="616.5" clip-path="url(#clipPath2)" width="247" rx="4" ry="4" height="61" stroke="none"/>
    </g>
    <g text-rendering="geometricPrecision" stroke-miterlimit="1.45" shape-rendering="geometricPrecision" transform="matrix(1,0,0,1,148,125)" stroke-linecap="butt">
      <rect x="755.75" y="616.5" clip-path="url(#clipPath2)" fill="none" width="247" rx="4" ry="4" height="61"/>
      <text x="830.7031" font-size="16px" y="652.5391" clip-path="url(#clipPath2)" font-family="sans-serif" stroke="none" font-weight="bold" xml:space="preserve">Timeframe</text>
      <text x="746.8958" font-size="18px" y="152.6846" clip-path="url(#clipPath2)" font-family="sans-serif" stroke="none" font-weight="bold" xml:space="preserve">TemplateParameterValue</text>
    </g>
    <g fill="rgb(153,204,255)" text-rendering="geometricPrecision" shape-rendering="geometricPrecision" transform="matrix(1,0,0,1,148,125)" stroke="rgb(153,204,255)">
      <rect x="587.25" y="-14.6042" clip-path="url(#clipPath2)" width="247" rx="4" ry="4" height="61" stroke="none"/>
    </g>
    <g text-rendering="geometricPrecision" stroke-miterlimit="1.45" shape-rendering="geometricPrecision" transform="matrix(1,0,0,1,148,125)" stroke-linecap="butt">
      <rect x="587.25" y="-14.6042" clip-path="url(#clipPath2)" fill="none" width="247" rx="4" ry="4" height="61"/>
      <text x="620.8516" font-size="16px" y="21.4349" clip-path="url(#clipPath2)" font-family="sans-serif" stroke="none" font-weight="bold" xml:space="preserve">TemplateParameter</text>
    </g>
    <g text-rendering="geometricPrecision" stroke-miterlimit="1.45" shape-rendering="geometricPrecision" transform="matrix(1,0,0,1,148,125)" stroke-linecap="butt">
      <rect fill="none" x="-132.75" width="1162.5124" height="40" y="-110" clip-path="url(#clipPath2)"/>
      <path fill="none" d="M-122.75 -110 L-122.75 -70 M1019.7625 -110 L1019.7625 -70 M-122.75 -110 Z" clip-path="url(#clipPath2)"/>
      <text x="13.163" font-size="22px" y="-82.3838" clip-path="url(#clipPath2)" font-family="sans-serif" stroke="none" font-weight="bold" xml:space="preserve">Clinical MDR Logical Data Model: Library for Objectives and Endpoints</text>
    </g>
    <g text-rendering="geometricPrecision" stroke-miterlimit="1.45" shape-rendering="geometricPrecision" transform="matrix(1,0,0,1,148,125)" stroke-linecap="butt">
      <path fill="none" d="M-9.25 49.4622 L-9.25 218 L219.2197 218" clip-path="url(#clipPath2)"/>
      <path d="M227.2197 218 L215.2197 213 L218.2197 218 L215.2197 223 Z" clip-path="url(#clipPath2)" stroke="none"/>
      <path fill="none" d="M371.6899 248.4792 L415.2625 311.9015" clip-path="url(#clipPath2)"/>
      <path d="M419.7926 318.4953 L417.1186 305.7733 L414.6962 311.0773 L408.8763 311.4359 Z" clip-path="url(#clipPath2)" stroke="none"/>
      <path fill="none" d="M-9.25 49.4944 L-9.25 349 L309.2362 349" clip-path="url(#clipPath2)"/>
      <path d="M317.2362 349 L305.2362 344 L308.2362 349 L305.2362 354 Z" clip-path="url(#clipPath2)" stroke="none"/>
      <path fill="none" d="M564.2612 367.2677 L729.6223 391.7252" clip-path="url(#clipPath2)"/>
      <path d="M737.5361 392.8957 L726.3969 386.1937 L728.633 391.5789 L724.9337 396.0861 Z" clip-path="url(#clipPath2)" stroke="none"/>
      <path fill="none" d="M-9.25 49.498 L-9.25 499 L189.282 499" clip-path="url(#clipPath2)"/>
      <path d="M197.282 499 L185.282 494 L188.282 499 L185.282 504 Z" clip-path="url(#clipPath2)" stroke="none"/>
      <path fill="none" d="M445.0094 379.4943 L474.6348 591.5894" clip-path="url(#clipPath2)"/>
      <path d="M475.7415 599.5125 L479.0334 586.9362 L474.4965 590.599 L469.1295 588.3195 Z" clip-path="url(#clipPath2)" stroke="none"/>
      <path fill="none" d="M357.8215 529.4952 L436.7446 594.4179" clip-path="url(#clipPath2)"/>
      <path d="M442.9229 599.5001 L436.8319 588.0154 L435.9723 593.7826 L430.4791 595.7382 Z" clip-path="url(#clipPath2)" stroke="none"/>
      <path fill="none" d="M-9.25 49.468 L-9.25 630 L348.5229 630" clip-path="url(#clipPath2)"/>
      <path d="M356.5229 630 L344.5229 625 L347.5229 630 L344.5229 635 Z" clip-path="url(#clipPath2)" stroke="none"/>
      <path fill="none" d="M537.1328 599.4989 L730.4789 496.2784" clip-path="url(#clipPath2)"/>
      <path d="M737.5361 492.5108 L724.5955 493.7514 L729.5967 496.7494 L729.305 502.573 Z" clip-path="url(#clipPath2)" stroke="none"/>
      <path fill="none" d="M474.2608 197.5729 L664.712 51.2634" clip-path="url(#clipPath2)"/>
      <path d="M671.0561 46.3897 L658.4939 49.7352 L663.919 51.8726 L664.586 57.6653 Z" clip-path="url(#clipPath2)" stroke="none"/>
      <path fill="none" d="M441.6582 468.7729 L560.75 439 L697.2645 53.9344" clip-path="url(#clipPath2)"/>
      <path d="M699.9376 46.3942 L691.2153 56.0338 L696.9303 54.8769 L700.6405 59.3752 Z" clip-path="url(#clipPath2)" stroke="none"/>
      <path fill="none" d="M723.9728 46.3804 L755.8317 119.8295" clip-path="url(#clipPath2)"/>
      <path d="M759.0152 127.1688 L758.8271 114.1702 L755.4338 118.9121 L749.6529 118.1495 Z" clip-path="url(#clipPath2)" stroke="none"/>
    </g>
  </g>
</svg>
