<?xml version="1.0" encoding="UTF-8"?><svg xmlns="http://www.w3.org/2000/svg" xmlns:xlink="http://www.w3.org/1999/xlink" fill-opacity="1" color-rendering="auto" color-interpolation="auto" text-rendering="auto" stroke="black" stroke-linecap="square" width="1562" stroke-miterlimit="10" shape-rendering="auto" stroke-opacity="1" fill="black" stroke-dasharray="none" font-weight="normal" stroke-width="1" height="1043" font-family="'Dialog'" font-style="normal" stroke-linejoin="miter" font-size="12px" stroke-dashoffset="0" image-rendering="auto">
  <!--Generated by ySVG 2.5-->
  <defs id="genericDefs"/>
  <g>
    <defs id="defs1">
      <linearGradient x1="530.6084" gradientUnits="userSpaceOnUse" x2="832.3417" y1="304.9901" y2="304.9901" id="linearGradient1" spreadMethod="reflect">
        <stop stop-opacity="1" stop-color="white" offset="0%"/>
        <stop stop-opacity="1" stop-color="white" offset="100%"/>
      </linearGradient>
      <linearGradient x1="145.5325" gradientUnits="userSpaceOnUse" x2="266.6281" y1="119.9146" y2="183.9146" id="linearGradient2" spreadMethod="reflect">
        <stop stop-opacity="1" stop-color="white" offset="0%"/>
        <stop stop-opacity="0.8" stop-color="rgb(212,212,212)" offset="100%"/>
      </linearGradient>
      <linearGradient x1="386.921" gradientUnits="userSpaceOnUse" x2="508.0166" y1="119.9104" y2="183.9104" id="linearGradient3" spreadMethod="reflect">
        <stop stop-opacity="1" stop-color="white" offset="0%"/>
        <stop stop-opacity="0.8" stop-color="rgb(212,212,212)" offset="100%"/>
      </linearGradient>
      <linearGradient x1="386.921" gradientUnits="userSpaceOnUse" x2="508.0166" y1="213.9104" y2="277.9104" id="linearGradient4" spreadMethod="reflect">
        <stop stop-opacity="1" stop-color="white" offset="0%"/>
        <stop stop-opacity="0.8" stop-color="rgb(212,212,212)" offset="100%"/>
      </linearGradient>
      <linearGradient x1="498.5818" gradientUnits="userSpaceOnUse" x2="619.6774" y1="426.5586" y2="490.5586" id="linearGradient5" spreadMethod="reflect">
        <stop stop-opacity="1" stop-color="white" offset="0%"/>
        <stop stop-opacity="0.8" stop-color="rgb(212,212,212)" offset="100%"/>
      </linearGradient>
      <linearGradient x1="660.1375" gradientUnits="userSpaceOnUse" x2="781.2331" y1="426.5586" y2="490.5586" id="linearGradient6" spreadMethod="reflect">
        <stop stop-opacity="1" stop-color="white" offset="0%"/>
        <stop stop-opacity="0.8" stop-color="rgb(212,212,212)" offset="100%"/>
      </linearGradient>
      <linearGradient x1="386.921" gradientUnits="userSpaceOnUse" x2="508.0166" y1="525.9906" y2="589.9906" id="linearGradient7" spreadMethod="reflect">
        <stop stop-opacity="1" stop-color="white" offset="0%"/>
        <stop stop-opacity="0.8" stop-color="rgb(212,212,212)" offset="100%"/>
      </linearGradient>
      <linearGradient x1="499.218" gradientUnits="userSpaceOnUse" x2="620.3135" y1="741.1505" y2="805.1505" id="linearGradient8" spreadMethod="reflect">
        <stop stop-opacity="1" stop-color="white" offset="0%"/>
        <stop stop-opacity="0.8" stop-color="rgb(212,212,212)" offset="100%"/>
      </linearGradient>
      <linearGradient x1="499.7636" gradientUnits="userSpaceOnUse" x2="620.8591" y1="856.8784" y2="920.8784" id="linearGradient9" spreadMethod="reflect">
        <stop stop-opacity="1" stop-color="white" offset="0%"/>
        <stop stop-opacity="0.8" stop-color="rgb(212,212,212)" offset="100%"/>
      </linearGradient>
      <linearGradient x1="500.4433" gradientUnits="userSpaceOnUse" x2="621.5388" y1="972.6063" y2="1036.6063" id="linearGradient10" spreadMethod="reflect">
        <stop stop-opacity="1" stop-color="white" offset="0%"/>
        <stop stop-opacity="0.8" stop-color="rgb(212,212,212)" offset="100%"/>
      </linearGradient>
      <linearGradient x1="499.2486" gradientUnits="userSpaceOnUse" x2="620.3441" y1="318.7743" y2="382.7743" id="linearGradient11" spreadMethod="reflect">
        <stop stop-opacity="1" stop-color="white" offset="0%"/>
        <stop stop-opacity="0.8" stop-color="rgb(212,212,212)" offset="100%"/>
      </linearGradient>
      <linearGradient x1="665.0897" gradientUnits="userSpaceOnUse" x2="786.1852" y1="318.7743" y2="382.7743" id="linearGradient12" spreadMethod="reflect">
        <stop stop-opacity="1" stop-color="white" offset="0%"/>
        <stop stop-opacity="0.8" stop-color="rgb(212,212,212)" offset="100%"/>
      </linearGradient>
      <linearGradient x1="821.6932" gradientUnits="userSpaceOnUse" x2="942.7888" y1="426.5586" y2="490.5586" id="linearGradient13" spreadMethod="reflect">
        <stop stop-opacity="1" stop-color="white" offset="0%"/>
        <stop stop-opacity="0.8" stop-color="rgb(212,212,212)" offset="100%"/>
      </linearGradient>
      <linearGradient x1="1144.8047" gradientUnits="userSpaceOnUse" x2="1265.9001" y1="426.5586" y2="490.5586" id="linearGradient14" spreadMethod="reflect">
        <stop stop-opacity="1" stop-color="white" offset="0%"/>
        <stop stop-opacity="0.8" stop-color="rgb(212,212,212)" offset="100%"/>
      </linearGradient>
      <linearGradient x1="983.2489" gradientUnits="userSpaceOnUse" x2="1104.3445" y1="426.5586" y2="490.5586" id="linearGradient15" spreadMethod="reflect">
        <stop stop-opacity="1" stop-color="white" offset="0%"/>
        <stop stop-opacity="0.8" stop-color="rgb(212,212,212)" offset="100%"/>
      </linearGradient>
      <linearGradient x1="1306.3604" gradientUnits="userSpaceOnUse" x2="1427.4559" y1="426.5586" y2="490.5586" id="linearGradient16" spreadMethod="reflect">
        <stop stop-opacity="1" stop-color="white" offset="0%"/>
        <stop stop-opacity="0.8" stop-color="rgb(212,212,212)" offset="100%"/>
      </linearGradient>
      <linearGradient x1="1467.916" gradientUnits="userSpaceOnUse" x2="1589.0116" y1="426.5586" y2="490.5586" id="linearGradient17" spreadMethod="reflect">
        <stop stop-opacity="1" stop-color="white" offset="0%"/>
        <stop stop-opacity="0.8" stop-color="rgb(212,212,212)" offset="100%"/>
      </linearGradient>
      <linearGradient x1="499.1636" gradientUnits="userSpaceOnUse" x2="620.2592" y1="625.4226" y2="689.4226" id="linearGradient18" spreadMethod="reflect">
        <stop stop-opacity="1" stop-color="white" offset="0%"/>
        <stop stop-opacity="0.8" stop-color="rgb(212,212,212)" offset="100%"/>
      </linearGradient>
      <linearGradient x1="660.7193" gradientUnits="userSpaceOnUse" x2="781.8149" y1="625.4226" y2="689.4226" id="linearGradient19" spreadMethod="reflect">
        <stop stop-opacity="1" stop-color="white" offset="0%"/>
        <stop stop-opacity="0.8" stop-color="rgb(212,212,212)" offset="100%"/>
      </linearGradient>
      <linearGradient x1="822.275" gradientUnits="userSpaceOnUse" x2="943.3706" y1="625.4226" y2="689.4226" id="linearGradient20" spreadMethod="reflect">
        <stop stop-opacity="1" stop-color="white" offset="0%"/>
        <stop stop-opacity="0.8" stop-color="rgb(212,212,212)" offset="100%"/>
      </linearGradient>
      <linearGradient x1="983.8307" gradientUnits="userSpaceOnUse" x2="1104.9263" y1="625.4226" y2="689.4226" id="linearGradient21" spreadMethod="reflect">
        <stop stop-opacity="1" stop-color="white" offset="0%"/>
        <stop stop-opacity="0.8" stop-color="rgb(212,212,212)" offset="100%"/>
      </linearGradient>
      <linearGradient x1="1145.3865" gradientUnits="userSpaceOnUse" x2="1266.4819" y1="625.4226" y2="689.4226" id="linearGradient22" spreadMethod="reflect">
        <stop stop-opacity="1" stop-color="white" offset="0%"/>
        <stop stop-opacity="0.8" stop-color="rgb(212,212,212)" offset="100%"/>
      </linearGradient>
      <linearGradient x1="1306.9421" gradientUnits="userSpaceOnUse" x2="1428.0377" y1="625.4226" y2="689.4226" id="linearGradient23" spreadMethod="reflect">
        <stop stop-opacity="1" stop-color="white" offset="0%"/>
        <stop stop-opacity="0.8" stop-color="rgb(212,212,212)" offset="100%"/>
      </linearGradient>
      <linearGradient x1="660.9825" gradientUnits="userSpaceOnUse" x2="782.0781" y1="741.1505" y2="805.1505" id="linearGradient24" spreadMethod="reflect">
        <stop stop-opacity="1" stop-color="white" offset="0%"/>
        <stop stop-opacity="0.8" stop-color="rgb(212,212,212)" offset="100%"/>
      </linearGradient>
      <linearGradient x1="822.747" gradientUnits="userSpaceOnUse" x2="943.8426" y1="743.7719" y2="807.7719" id="linearGradient25" spreadMethod="reflect">
        <stop stop-opacity="1" stop-color="white" offset="0%"/>
        <stop stop-opacity="0.8" stop-color="rgb(212,212,212)" offset="100%"/>
      </linearGradient>
      <linearGradient x1="663.1528" gradientUnits="userSpaceOnUse" x2="784.2484" y1="856.8784" y2="920.8784" id="linearGradient26" spreadMethod="reflect">
        <stop stop-opacity="1" stop-color="white" offset="0%"/>
        <stop stop-opacity="0.8" stop-color="rgb(212,212,212)" offset="100%"/>
      </linearGradient>
      <linearGradient x1="826.542" gradientUnits="userSpaceOnUse" x2="947.6376" y1="856.8784" y2="920.8784" id="linearGradient27" spreadMethod="reflect">
        <stop stop-opacity="1" stop-color="white" offset="0%"/>
        <stop stop-opacity="0.8" stop-color="rgb(212,212,212)" offset="100%"/>
      </linearGradient>
      <linearGradient x1="663.2501" gradientUnits="userSpaceOnUse" x2="784.3456" y1="972.6063" y2="1036.6063" id="linearGradient28" spreadMethod="reflect">
        <stop stop-opacity="1" stop-color="white" offset="0%"/>
        <stop stop-opacity="0.8" stop-color="rgb(212,212,212)" offset="100%"/>
      </linearGradient>
      <linearGradient x1="826.0568" gradientUnits="userSpaceOnUse" x2="947.1523" y1="972.6063" y2="1036.6063" id="linearGradient29" spreadMethod="reflect">
        <stop stop-opacity="1" stop-color="white" offset="0%"/>
        <stop stop-opacity="0.8" stop-color="rgb(212,212,212)" offset="100%"/>
      </linearGradient>
      <linearGradient x1="988.8635" gradientUnits="userSpaceOnUse" x2="1109.9591" y1="972.6063" y2="1036.6063" id="linearGradient30" spreadMethod="reflect">
        <stop stop-opacity="1" stop-color="white" offset="0%"/>
        <stop stop-opacity="0.8" stop-color="rgb(212,212,212)" offset="100%"/>
      </linearGradient>
      <linearGradient x1="1151.6703" gradientUnits="userSpaceOnUse" x2="1272.7659" y1="972.6063" y2="1036.6063" id="linearGradient31" spreadMethod="reflect">
        <stop stop-opacity="1" stop-color="white" offset="0%"/>
        <stop stop-opacity="0.8" stop-color="rgb(212,212,212)" offset="100%"/>
      </linearGradient>
      <clipPath clipPathUnits="userSpaceOnUse" id="clipPath1">
        <path d="M0 0 L1562 0 L1562 1043 L0 1043 L0 0 Z"/>
      </clipPath>
      <clipPath clipPathUnits="userSpaceOnUse" id="clipPath2">
        <path d="M107 52 L1669 52 L1669 1095 L107 1095 L107 52 Z"/>
      </clipPath>
    </defs>
    <g fill="white" text-rendering="geometricPrecision" shape-rendering="geometricPrecision" transform="translate(-107,-52)" stroke="white">
      <rect x="107" width="1562" height="1043" y="52" clip-path="url(#clipPath2)" stroke="none"/>
    </g>
    <g text-rendering="geometricPrecision" stroke-miterlimit="1.45" shape-rendering="geometricPrecision" transform="matrix(1,0,0,1,-107,-52)" stroke-linecap="butt">
      <rect x="122.2582" y="67.8959" clip-path="url(#clipPath2)" fill="none" width="1531.5726" rx="4" ry="4" height="1011.3293"/>
      <text x="842.2398" font-size="16px" y="89.9819" clip-path="url(#clipPath2)" font-family="sans-serif" stroke="none" xml:space="preserve">Define Study</text>
      <rect x="379.7417" y="958.822" clip-path="url(#clipPath2)" fill="none" width="1077.1648" rx="4" ry="4" height="91.5686" stroke="rgb(204,204,204)"/>
      <text x="385.7417" xml:space="preserve" y="976.8865" clip-path="url(#clipPath2)" font-family="sans-serif" stroke="none">Study Activities</text>
      <rect x="379.7417" y="843.0941" clip-path="url(#clipPath2)" fill="none" width="1077.1648" rx="4" ry="4" height="91.5686" stroke="rgb(204,204,204)"/>
      <text x="385.7417" xml:space="preserve" y="861.1586" clip-path="url(#clipPath2)" font-family="sans-serif" stroke="none">Study Purpose</text>
      <rect x="379.7417" y="727.3662" clip-path="url(#clipPath2)" fill="none" width="1077.1648" rx="4" ry="4" height="91.5686" stroke="rgb(204,204,204)"/>
      <text x="385.7417" xml:space="preserve" y="745.4307" clip-path="url(#clipPath2)" font-family="sans-serif" stroke="none">Study Interventions</text>
      <rect x="379.7417" y="611.6383" clip-path="url(#clipPath2)" fill="none" width="1077.1648" rx="4" ry="4" height="91.5686" stroke="rgb(204,204,204)"/>
      <text x="385.7417" xml:space="preserve" y="629.7028" clip-path="url(#clipPath2)" font-family="sans-serif" stroke="none">Study Criteria</text>
      <rect x="379.7417" y="412.7743" clip-path="url(#clipPath2)" fill="none" width="1236.1648" rx="4" ry="4" height="91.5686" stroke="rgb(204,204,204)"/>
      <text x="385.7417" xml:space="preserve" y="430.8388" clip-path="url(#clipPath2)" font-family="sans-serif" stroke="none">Study Structure</text>
    </g>
    <g fill="url(#linearGradient1)" text-rendering="geometricPrecision" shape-rendering="geometricPrecision" transform="matrix(1,0,0,1,-107,-52)" stroke="url(#linearGradient1)">
      <rect x="379.7417" y="304.99" clip-path="url(#clipPath2)" width="452.6" rx="4" ry="4" height="91.5686" stroke="none"/>
    </g>
    <g stroke-linecap="butt" transform="matrix(1,0,0,1,-107,-52)" fill="rgb(153,153,153)" text-rendering="geometricPrecision" shape-rendering="geometricPrecision" stroke="rgb(153,153,153)" stroke-miterlimit="1.45">
      <rect x="379.7417" y="304.99" clip-path="url(#clipPath2)" fill="none" width="452.6" rx="4" ry="4" height="91.5686"/>
      <text x="385.7417" y="323.0545" clip-path="url(#clipPath2)" fill="black" font-family="sans-serif" stroke="none" xml:space="preserve">Study Properties</text>
    </g>
    <g fill="url(#linearGradient2)" text-rendering="geometricPrecision" shape-rendering="geometricPrecision" transform="matrix(1,0,0,1,-107,-52)" stroke="url(#linearGradient2)">
      <rect x="145.5325" y="119.9146" clip-path="url(#clipPath2)" width="121.0955" rx="32" ry="32" height="64" stroke="none"/>
    </g>
    <g text-rendering="geometricPrecision" stroke-miterlimit="1.45" shape-rendering="geometricPrecision" transform="matrix(1,0,0,1,-107,-52)" stroke-linecap="butt">
      <rect x="145.5325" y="119.9146" clip-path="url(#clipPath2)" fill="none" width="121.0955" rx="32" ry="32" height="64"/>
      <text x="178.009" font-size="10px" y="155.8428" clip-path="url(#clipPath2)" font-family="sans-serif" stroke="none" xml:space="preserve">Select Study</text>
    </g>
    <g text-rendering="geometricPrecision" shape-rendering="geometricPrecision" transform="matrix(1,0,0,1,-107,-52)">
      <rect x="324.3662" width="10.6017" height="941.3442" y="109.0464" clip-path="url(#clipPath2)" stroke="none"/>
      <rect stroke-linecap="butt" x="324.3662" y="109.0464" clip-path="url(#clipPath2)" fill="none" width="10.6017" height="941.3442" stroke-miterlimit="1.45"/>
    </g>
    <g fill="url(#linearGradient3)" text-rendering="geometricPrecision" shape-rendering="geometricPrecision" transform="matrix(1,0,0,1,-107,-52)" stroke="url(#linearGradient3)">
      <rect x="386.921" y="119.9104" clip-path="url(#clipPath2)" width="121.0955" rx="32" ry="32" height="64" stroke="none"/>
    </g>
    <g text-rendering="geometricPrecision" stroke-miterlimit="1.45" shape-rendering="geometricPrecision" transform="matrix(1,0,0,1,-107,-52)" stroke-linecap="butt">
      <rect x="386.921" y="119.9104" clip-path="url(#clipPath2)" fill="none" width="121.0955" rx="32" ry="32" height="64"/>
      <text x="423.8482" font-size="10px" y="155.8386" clip-path="url(#clipPath2)" font-family="sans-serif" stroke="none" xml:space="preserve">Study Title</text>
    </g>
    <g fill="url(#linearGradient4)" text-rendering="geometricPrecision" shape-rendering="geometricPrecision" transform="matrix(1,0,0,1,-107,-52)" stroke="url(#linearGradient4)">
      <rect x="386.921" y="213.9104" clip-path="url(#clipPath2)" width="121.0955" rx="32" ry="32" height="64" stroke="none"/>
    </g>
    <g text-rendering="geometricPrecision" stroke-miterlimit="1.45" shape-rendering="geometricPrecision" transform="matrix(1,0,0,1,-107,-52)" stroke-linecap="butt">
      <rect x="386.921" y="213.9104" clip-path="url(#clipPath2)" fill="none" width="121.0955" rx="32" ry="32" height="64"/>
      <text x="406.065" font-size="10px" y="249.8386" clip-path="url(#clipPath2)" font-family="sans-serif" stroke="none" xml:space="preserve">Registry Identifiers</text>
    </g>
    <g fill="url(#linearGradient5)" text-rendering="geometricPrecision" shape-rendering="geometricPrecision" transform="matrix(1,0,0,1,-107,-52)" stroke="url(#linearGradient5)">
      <rect x="498.5818" y="426.5586" clip-path="url(#clipPath2)" width="121.0955" rx="32" ry="32" height="64" stroke="none"/>
    </g>
    <g text-rendering="geometricPrecision" stroke-miterlimit="1.45" shape-rendering="geometricPrecision" transform="matrix(1,0,0,1,-107,-52)" stroke-linecap="butt">
      <rect x="498.5818" y="426.5586" clip-path="url(#clipPath2)" fill="none" width="121.0955" rx="32" ry="32" height="64"/>
      <text x="533.2897" font-size="10px" y="462.4868" clip-path="url(#clipPath2)" font-family="sans-serif" stroke="none" xml:space="preserve">Study Arms</text>
    </g>
    <g fill="url(#linearGradient6)" text-rendering="geometricPrecision" shape-rendering="geometricPrecision" transform="matrix(1,0,0,1,-107,-52)" stroke="url(#linearGradient6)">
      <rect x="660.1375" y="426.5586" clip-path="url(#clipPath2)" width="121.0955" rx="32" ry="32" height="64" stroke="none"/>
    </g>
    <g text-rendering="geometricPrecision" stroke-miterlimit="1.45" shape-rendering="geometricPrecision" transform="matrix(1,0,0,1,-107,-52)" stroke-linecap="butt">
      <rect x="660.1375" y="426.5586" clip-path="url(#clipPath2)" fill="none" width="121.0955" rx="32" ry="32" height="64"/>
      <text x="685.3875" font-size="10px" y="462.4868" clip-path="url(#clipPath2)" font-family="sans-serif" stroke="none" xml:space="preserve">Study Branches</text>
    </g>
    <g fill="url(#linearGradient7)" text-rendering="geometricPrecision" shape-rendering="geometricPrecision" transform="matrix(1,0,0,1,-107,-52)" stroke="url(#linearGradient7)">
      <rect x="386.921" y="525.9906" clip-path="url(#clipPath2)" width="121.0955" rx="32" ry="32" height="64" stroke="none"/>
    </g>
    <g text-rendering="geometricPrecision" stroke-miterlimit="1.45" shape-rendering="geometricPrecision" transform="matrix(1,0,0,1,-107,-52)" stroke-linecap="butt">
      <rect x="386.921" y="525.9906" clip-path="url(#clipPath2)" fill="none" width="121.0955" rx="32" ry="32" height="64"/>
      <text x="409.6636" font-size="10px" y="561.9188" clip-path="url(#clipPath2)" font-family="sans-serif" stroke="none" xml:space="preserve">Study Population</text>
    </g>
    <g fill="url(#linearGradient8)" text-rendering="geometricPrecision" shape-rendering="geometricPrecision" transform="matrix(1,0,0,1,-107,-52)" stroke="url(#linearGradient8)">
      <rect x="499.218" y="741.1505" clip-path="url(#clipPath2)" width="121.0955" rx="32" ry="32" height="64" stroke="none"/>
    </g>
    <g text-rendering="geometricPrecision" stroke-miterlimit="1.45" shape-rendering="geometricPrecision" transform="matrix(1,0,0,1,-107,-52)" stroke-linecap="butt">
      <rect x="499.218" y="741.1505" clip-path="url(#clipPath2)" fill="none" width="121.0955" rx="32" ry="32" height="64"/>
      <text x="518.6305" font-size="10px" y="777.0787" clip-path="url(#clipPath2)" font-family="sans-serif" stroke="none" xml:space="preserve">Study Compounds</text>
    </g>
    <g fill="url(#linearGradient9)" text-rendering="geometricPrecision" shape-rendering="geometricPrecision" transform="matrix(1,0,0,1,-107,-52)" stroke="url(#linearGradient9)">
      <rect x="499.7636" y="856.8784" clip-path="url(#clipPath2)" width="121.0955" rx="32" ry="32" height="64" stroke="none"/>
    </g>
    <g text-rendering="geometricPrecision" stroke-miterlimit="1.45" shape-rendering="geometricPrecision" transform="matrix(1,0,0,1,-107,-52)" stroke-linecap="butt">
      <rect x="499.7636" y="856.8784" clip-path="url(#clipPath2)" fill="none" width="121.0955" rx="32" ry="32" height="64"/>
      <text x="522.7943" font-size="10px" y="892.8066" clip-path="url(#clipPath2)" font-family="sans-serif" stroke="none" xml:space="preserve">Study Objectives</text>
    </g>
    <g fill="url(#linearGradient10)" text-rendering="geometricPrecision" shape-rendering="geometricPrecision" transform="matrix(1,0,0,1,-107,-52)" stroke="url(#linearGradient10)">
      <rect x="500.4433" y="972.6063" clip-path="url(#clipPath2)" width="121.0955" rx="32" ry="32" height="64" stroke="none"/>
    </g>
    <g text-rendering="geometricPrecision" stroke-miterlimit="1.45" shape-rendering="geometricPrecision" transform="matrix(1,0,0,1,-107,-52)" stroke-linecap="butt">
      <rect x="500.4433" y="972.6063" clip-path="url(#clipPath2)" fill="none" width="121.0955" rx="32" ry="32" height="64"/>
      <text x="527.0897" font-size="10px" y="1008.5345" clip-path="url(#clipPath2)" font-family="sans-serif" stroke="none" xml:space="preserve">Study Activities</text>
    </g>
    <g fill="url(#linearGradient11)" text-rendering="geometricPrecision" shape-rendering="geometricPrecision" transform="matrix(1,0,0,1,-107,-52)" stroke="url(#linearGradient11)">
      <rect x="499.2486" y="318.7743" clip-path="url(#clipPath2)" width="121.0955" rx="32" ry="32" height="64" stroke="none"/>
    </g>
    <g text-rendering="geometricPrecision" stroke-miterlimit="1.45" shape-rendering="geometricPrecision" transform="matrix(1,0,0,1,-107,-52)" stroke-linecap="butt">
      <rect x="499.2486" y="318.7743" clip-path="url(#clipPath2)" fill="none" width="121.0955" rx="32" ry="32" height="64"/>
      <text x="534.5058" font-size="10px" y="354.7025" clip-path="url(#clipPath2)" font-family="sans-serif" stroke="none" xml:space="preserve">Study Type</text>
    </g>
    <g fill="url(#linearGradient12)" text-rendering="geometricPrecision" shape-rendering="geometricPrecision" transform="matrix(1,0,0,1,-107,-52)" stroke="url(#linearGradient12)">
      <rect x="665.0897" y="318.7743" clip-path="url(#clipPath2)" width="121.0955" rx="32" ry="32" height="64" stroke="none"/>
    </g>
    <g text-rendering="geometricPrecision" stroke-miterlimit="1.45" shape-rendering="geometricPrecision" transform="matrix(1,0,0,1,-107,-52)" stroke-linecap="butt">
      <rect x="665.0897" y="318.7743" clip-path="url(#clipPath2)" fill="none" width="121.0955" rx="32" ry="32" height="64"/>
      <text x="691.7312" font-size="10px" y="354.7025" clip-path="url(#clipPath2)" font-family="sans-serif" stroke="none" xml:space="preserve">Study Atributes</text>
    </g>
    <g fill="url(#linearGradient13)" text-rendering="geometricPrecision" shape-rendering="geometricPrecision" transform="matrix(1,0,0,1,-107,-52)" stroke="url(#linearGradient13)">
      <rect x="821.6932" y="426.5586" clip-path="url(#clipPath2)" width="121.0955" rx="32" ry="32" height="64" stroke="none"/>
    </g>
    <g text-rendering="geometricPrecision" stroke-miterlimit="1.45" shape-rendering="geometricPrecision" transform="matrix(1,0,0,1,-107,-52)" stroke-linecap="butt">
      <rect x="821.6932" y="426.5586" clip-path="url(#clipPath2)" fill="none" width="121.0955" rx="32" ry="32" height="64"/>
      <text x="850.5588" font-size="10px" y="462.4868" clip-path="url(#clipPath2)" font-family="sans-serif" stroke="none" xml:space="preserve">Study Cohorts</text>
    </g>
    <g fill="url(#linearGradient14)" text-rendering="geometricPrecision" shape-rendering="geometricPrecision" transform="matrix(1,0,0,1,-107,-52)" stroke="url(#linearGradient14)">
      <rect x="1144.8046" y="426.5586" clip-path="url(#clipPath2)" width="121.0955" rx="32" ry="32" height="64" stroke="none"/>
    </g>
    <g text-rendering="geometricPrecision" stroke-miterlimit="1.45" shape-rendering="geometricPrecision" transform="matrix(1,0,0,1,-107,-52)" stroke-linecap="butt">
      <rect x="1144.8046" y="426.5586" clip-path="url(#clipPath2)" fill="none" width="121.0955" rx="32" ry="32" height="64"/>
      <text x="1174.5004" font-size="10px" y="462.4868" clip-path="url(#clipPath2)" font-family="sans-serif" stroke="none" xml:space="preserve">Study Epochs</text>
    </g>
    <g fill="url(#linearGradient15)" text-rendering="geometricPrecision" shape-rendering="geometricPrecision" transform="matrix(1,0,0,1,-107,-52)" stroke="url(#linearGradient15)">
      <rect x="983.2489" y="426.5586" clip-path="url(#clipPath2)" width="121.0955" rx="32" ry="32" height="64" stroke="none"/>
    </g>
    <g text-rendering="geometricPrecision" stroke-miterlimit="1.45" shape-rendering="geometricPrecision" transform="matrix(1,0,0,1,-107,-52)" stroke-linecap="butt">
      <rect x="983.2489" y="426.5586" clip-path="url(#clipPath2)" fill="none" width="121.0955" rx="32" ry="32" height="64"/>
      <text x="1008.7796" font-size="10px" y="462.4868" clip-path="url(#clipPath2)" font-family="sans-serif" stroke="none" xml:space="preserve">Study Elements</text>
    </g>
    <g fill="url(#linearGradient16)" text-rendering="geometricPrecision" shape-rendering="geometricPrecision" transform="matrix(1,0,0,1,-107,-52)" stroke="url(#linearGradient16)">
      <rect x="1306.3603" y="426.5586" clip-path="url(#clipPath2)" width="121.0955" rx="32" ry="32" height="64" stroke="none"/>
    </g>
    <g text-rendering="geometricPrecision" stroke-miterlimit="1.45" shape-rendering="geometricPrecision" transform="matrix(1,0,0,1,-107,-52)" stroke-linecap="butt">
      <rect x="1306.3603" y="426.5586" clip-path="url(#clipPath2)" fill="none" width="121.0955" rx="32" ry="32" height="64"/>
      <text x="1340.7875" font-size="10px" y="462.4868" clip-path="url(#clipPath2)" font-family="sans-serif" stroke="none" xml:space="preserve">Study Visits</text>
    </g>
    <g fill="url(#linearGradient17)" text-rendering="geometricPrecision" shape-rendering="geometricPrecision" transform="matrix(1,0,0,1,-107,-52)" stroke="url(#linearGradient17)">
      <rect x="1467.916" y="426.5586" clip-path="url(#clipPath2)" width="121.0955" rx="32" ry="32" height="64" stroke="none"/>
    </g>
    <g text-rendering="geometricPrecision" stroke-miterlimit="1.45" shape-rendering="geometricPrecision" transform="matrix(1,0,0,1,-107,-52)" stroke-linecap="butt">
      <rect x="1467.916" y="426.5586" clip-path="url(#clipPath2)" fill="none" width="121.0955" rx="32" ry="32" height="64"/>
      <text x="1497.8999" font-size="10px" y="462.4868" clip-path="url(#clipPath2)" font-family="sans-serif" stroke="none" xml:space="preserve">Design Matrix</text>
    </g>
    <g fill="url(#linearGradient18)" text-rendering="geometricPrecision" shape-rendering="geometricPrecision" transform="matrix(1,0,0,1,-107,-52)" stroke="url(#linearGradient18)">
      <rect x="499.1636" y="625.4226" clip-path="url(#clipPath2)" width="121.0955" rx="32" ry="32" height="64" stroke="none"/>
    </g>
    <g text-rendering="geometricPrecision" stroke-miterlimit="1.45" shape-rendering="geometricPrecision" transform="matrix(1,0,0,1,-107,-52)" stroke-linecap="butt">
      <rect x="499.1636" y="625.4226" clip-path="url(#clipPath2)" fill="none" width="121.0955" rx="32" ry="32" height="64"/>
      <text x="522.4751" font-size="10px" y="661.3508" clip-path="url(#clipPath2)" font-family="sans-serif" stroke="none" xml:space="preserve">Inclusion Criteria</text>
    </g>
    <g fill="url(#linearGradient19)" text-rendering="geometricPrecision" shape-rendering="geometricPrecision" transform="matrix(1,0,0,1,-107,-52)" stroke="url(#linearGradient19)">
      <rect x="660.7193" y="625.4226" clip-path="url(#clipPath2)" width="121.0955" rx="32" ry="32" height="64" stroke="none"/>
    </g>
    <g text-rendering="geometricPrecision" stroke-miterlimit="1.45" shape-rendering="geometricPrecision" transform="matrix(1,0,0,1,-107,-52)" stroke-linecap="butt">
      <rect x="660.7193" y="625.4226" clip-path="url(#clipPath2)" fill="none" width="121.0955" rx="32" ry="32" height="64"/>
      <text x="682.3657" font-size="10px" y="661.3508" clip-path="url(#clipPath2)" font-family="sans-serif" stroke="none" xml:space="preserve">Exclusion Criteria</text>
    </g>
    <g fill="url(#linearGradient20)" text-rendering="geometricPrecision" shape-rendering="geometricPrecision" transform="matrix(1,0,0,1,-107,-52)" stroke="url(#linearGradient20)">
      <rect x="822.275" y="625.4226" clip-path="url(#clipPath2)" width="121.0955" rx="32" ry="32" height="64" stroke="none"/>
    </g>
    <g text-rendering="geometricPrecision" stroke-miterlimit="1.45" shape-rendering="geometricPrecision" transform="matrix(1,0,0,1,-107,-52)" stroke-linecap="butt">
      <rect x="822.275" y="625.4226" clip-path="url(#clipPath2)" fill="none" width="121.0955" rx="32" ry="32" height="64"/>
      <text x="850.5914" font-size="10px" y="661.3508" clip-path="url(#clipPath2)" font-family="sans-serif" stroke="none" xml:space="preserve">Run-in Criteria</text>
    </g>
    <g fill="url(#linearGradient21)" text-rendering="geometricPrecision" shape-rendering="geometricPrecision" transform="matrix(1,0,0,1,-107,-52)" stroke="url(#linearGradient21)">
      <rect x="983.8307" y="625.4226" clip-path="url(#clipPath2)" width="121.0955" rx="32" ry="32" height="64" stroke="none"/>
    </g>
    <g text-rendering="geometricPrecision" stroke-miterlimit="1.45" shape-rendering="geometricPrecision" transform="matrix(1,0,0,1,-107,-52)" stroke-linecap="butt">
      <rect x="983.8307" y="625.4226" clip-path="url(#clipPath2)" fill="none" width="121.0955" rx="32" ry="32" height="64"/>
      <text x="993.524" font-size="10px" y="661.3508" clip-path="url(#clipPath2)" font-family="sans-serif" stroke="none" xml:space="preserve">Randomisation Criteria</text>
    </g>
    <g fill="url(#linearGradient22)" text-rendering="geometricPrecision" shape-rendering="geometricPrecision" transform="matrix(1,0,0,1,-107,-52)" stroke="url(#linearGradient22)">
      <rect x="1145.3864" y="625.4226" clip-path="url(#clipPath2)" width="121.0955" rx="32" ry="32" height="64" stroke="none"/>
    </g>
    <g text-rendering="geometricPrecision" stroke-miterlimit="1.45" shape-rendering="geometricPrecision" transform="matrix(1,0,0,1,-107,-52)" stroke-linecap="butt">
      <rect x="1145.3864" y="625.4226" clip-path="url(#clipPath2)" fill="none" width="121.0955" rx="32" ry="32" height="64"/>
      <text x="1172.8678" font-size="10px" y="661.3508" clip-path="url(#clipPath2)" font-family="sans-serif" stroke="none" xml:space="preserve">Dosing Criteria</text>
    </g>
    <g fill="url(#linearGradient23)" text-rendering="geometricPrecision" shape-rendering="geometricPrecision" transform="matrix(1,0,0,1,-107,-52)" stroke="url(#linearGradient23)">
      <rect x="1306.9421" y="625.4226" clip-path="url(#clipPath2)" width="121.0955" rx="32" ry="32" height="64" stroke="none"/>
    </g>
    <g text-rendering="geometricPrecision" stroke-miterlimit="1.45" shape-rendering="geometricPrecision" transform="matrix(1,0,0,1,-107,-52)" stroke-linecap="butt">
      <rect x="1306.9421" y="625.4226" clip-path="url(#clipPath2)" fill="none" width="121.0955" rx="32" ry="32" height="64"/>
      <text x="1326.3693" font-size="10px" y="661.3508" clip-path="url(#clipPath2)" font-family="sans-serif" stroke="none" xml:space="preserve">Withdraval Criteria</text>
    </g>
    <g fill="url(#linearGradient24)" text-rendering="geometricPrecision" shape-rendering="geometricPrecision" transform="matrix(1,0,0,1,-107,-52)" stroke="url(#linearGradient24)">
      <rect x="660.9825" y="741.1505" clip-path="url(#clipPath2)" width="121.0955" rx="32" ry="32" height="64" stroke="none"/>
    </g>
    <g text-rendering="geometricPrecision" stroke-miterlimit="1.45" shape-rendering="geometricPrecision" transform="matrix(1,0,0,1,-107,-52)" stroke-linecap="butt">
      <rect x="660.9825" y="741.1505" clip-path="url(#clipPath2)" fill="none" width="121.0955" rx="32" ry="32" height="64"/>
      <text x="665.9419" font-size="10px" y="777.0787" clip-path="url(#clipPath2)" font-family="sans-serif" stroke="none" xml:space="preserve">Study Compound Dosing</text>
    </g>
    <g fill="url(#linearGradient25)" text-rendering="geometricPrecision" shape-rendering="geometricPrecision" transform="matrix(1,0,0,1,-107,-52)" stroke="url(#linearGradient25)">
      <rect x="822.747" y="743.7719" clip-path="url(#clipPath2)" width="121.0955" rx="32" ry="32" height="64" stroke="none"/>
    </g>
    <g text-rendering="geometricPrecision" stroke-miterlimit="1.45" shape-rendering="geometricPrecision" transform="matrix(1,0,0,1,-107,-52)" stroke-linecap="butt">
      <rect x="822.747" y="743.7719" clip-path="url(#clipPath2)" fill="none" width="121.0955" rx="32" ry="32" height="64"/>
      <text x="840.7728" font-size="10px" y="779.7001" clip-path="url(#clipPath2)" font-family="sans-serif" stroke="none" xml:space="preserve">Other Interventions</text>
    </g>
    <g fill="url(#linearGradient26)" text-rendering="geometricPrecision" shape-rendering="geometricPrecision" transform="matrix(1,0,0,1,-107,-52)" stroke="url(#linearGradient26)">
      <rect x="663.1528" y="856.8784" clip-path="url(#clipPath2)" width="121.0955" rx="32" ry="32" height="64" stroke="none"/>
    </g>
    <g text-rendering="geometricPrecision" stroke-miterlimit="1.45" shape-rendering="geometricPrecision" transform="matrix(1,0,0,1,-107,-52)" stroke-linecap="butt">
      <rect x="663.1528" y="856.8784" clip-path="url(#clipPath2)" fill="none" width="121.0955" rx="32" ry="32" height="64"/>
      <text x="687.287" font-size="10px" y="892.8066" clip-path="url(#clipPath2)" font-family="sans-serif" stroke="none" xml:space="preserve">Study Endpoints</text>
    </g>
    <g fill="url(#linearGradient27)" text-rendering="geometricPrecision" shape-rendering="geometricPrecision" transform="matrix(1,0,0,1,-107,-52)" stroke="url(#linearGradient27)">
      <rect x="826.542" y="856.8784" clip-path="url(#clipPath2)" width="121.0955" rx="32" ry="32" height="64" stroke="none"/>
    </g>
    <g text-rendering="geometricPrecision" stroke-miterlimit="1.45" shape-rendering="geometricPrecision" transform="matrix(1,0,0,1,-107,-52)" stroke-linecap="butt">
      <rect x="826.542" y="856.8784" clip-path="url(#clipPath2)" fill="none" width="121.0955" rx="32" ry="32" height="64"/>
      <text x="849.5727" font-size="10px" y="892.8066" clip-path="url(#clipPath2)" font-family="sans-serif" stroke="none" xml:space="preserve">Study Estimands</text>
    </g>
    <g fill="url(#linearGradient28)" text-rendering="geometricPrecision" shape-rendering="geometricPrecision" transform="matrix(1,0,0,1,-107,-52)" stroke="url(#linearGradient28)">
      <rect x="663.25" y="972.6063" clip-path="url(#clipPath2)" width="121.0955" rx="32" ry="32" height="64" stroke="none"/>
    </g>
    <g text-rendering="geometricPrecision" stroke-miterlimit="1.45" shape-rendering="geometricPrecision" transform="matrix(1,0,0,1,-107,-52)" stroke-linecap="butt">
      <rect x="663.25" y="972.6063" clip-path="url(#clipPath2)" fill="none" width="121.0955" rx="32" ry="32" height="64"/>
      <text x="670.9975" font-size="10px" y="1008.5345" clip-path="url(#clipPath2)" font-family="sans-serif" stroke="none" xml:space="preserve">Study Activity Instances</text>
    </g>
    <g fill="url(#linearGradient29)" text-rendering="geometricPrecision" shape-rendering="geometricPrecision" transform="matrix(1,0,0,1,-107,-52)" stroke="url(#linearGradient29)">
      <rect x="826.0568" y="972.6063" clip-path="url(#clipPath2)" width="121.0955" rx="32" ry="32" height="64" stroke="none"/>
    </g>
    <g text-rendering="geometricPrecision" stroke-miterlimit="1.45" shape-rendering="geometricPrecision" transform="matrix(1,0,0,1,-107,-52)" stroke-linecap="butt">
      <rect x="826.0568" y="972.6063" clip-path="url(#clipPath2)" fill="none" width="121.0955" rx="32" ry="32" height="64"/>
      <text x="857.42" font-size="10px" y="1008.5345" clip-path="url(#clipPath2)" font-family="sans-serif" stroke="none" xml:space="preserve">Detailed SoA</text>
    </g>
    <g fill="url(#linearGradient30)" text-rendering="geometricPrecision" shape-rendering="geometricPrecision" transform="matrix(1,0,0,1,-107,-52)" stroke="url(#linearGradient30)">
      <rect x="988.8635" y="972.6063" clip-path="url(#clipPath2)" width="121.0955" rx="32" ry="32" height="64" stroke="none"/>
    </g>
    <g text-rendering="geometricPrecision" stroke-miterlimit="1.45" shape-rendering="geometricPrecision" transform="matrix(1,0,0,1,-107,-52)" stroke-linecap="butt">
      <rect x="988.8635" y="972.6063" clip-path="url(#clipPath2)" fill="none" width="121.0955" rx="32" ry="32" height="64"/>
      <text x="1020.2292" font-size="10px" y="1008.5345" clip-path="url(#clipPath2)" font-family="sans-serif" stroke="none" xml:space="preserve">Protocol SoA</text>
    </g>
    <g fill="url(#linearGradient31)" text-rendering="geometricPrecision" shape-rendering="geometricPrecision" transform="matrix(1,0,0,1,-107,-52)" stroke="url(#linearGradient31)">
      <rect x="1151.6703" y="972.6063" clip-path="url(#clipPath2)" width="121.0955" rx="32" ry="32" height="64" stroke="none"/>
    </g>
    <g text-rendering="geometricPrecision" stroke-miterlimit="1.45" shape-rendering="geometricPrecision" transform="matrix(1,0,0,1,-107,-52)" stroke-linecap="butt">
      <rect x="1151.6703" y="972.6063" clip-path="url(#clipPath2)" fill="none" width="121.0955" rx="32" ry="32" height="64"/>
      <text x="1169.4275" font-size="10px" y="1008.5345" clip-path="url(#clipPath2)" font-family="sans-serif" stroke="none" xml:space="preserve">Activity Instructions</text>
    </g>
    <g text-rendering="geometricPrecision" stroke-miterlimit="1.45" shape-rendering="geometricPrecision" transform="matrix(1,0,0,1,-107,-52)" stroke-linecap="butt">
      <path fill="none" d="M266.6301 151.9146 L316.3374 151.9146" clip-path="url(#clipPath2)"/>
      <path d="M324.3374 151.9146 L312.3374 146.9146 L315.3374 151.9146 L312.3374 156.9146 Z" clip-path="url(#clipPath2)" stroke="none"/>
      <path fill="none" d="M334.9763 350.7743 L371.7458 350.7743" clip-path="url(#clipPath2)"/>
      <path d="M379.7458 350.7743 L367.7458 345.7743 L370.7458 350.7743 L367.7458 355.7743 Z" clip-path="url(#clipPath2)" stroke="none"/>
      <path fill="none" d="M334.9766 458.5586 L371.7625 458.5586" clip-path="url(#clipPath2)"/>
      <path d="M379.7625 458.5586 L367.7625 453.5586 L370.7625 458.5586 L367.7625 463.5586 Z" clip-path="url(#clipPath2)" stroke="none"/>
      <path fill="none" d="M334.99 657.4226 L371.7441 657.4226" clip-path="url(#clipPath2)"/>
      <path d="M379.7441 657.4226 L367.7441 652.4226 L370.7441 657.4226 L367.7441 662.4226 Z" clip-path="url(#clipPath2)" stroke="none"/>
      <path fill="none" d="M334.9856 773.1505 L371.74 773.1505" clip-path="url(#clipPath2)"/>
      <path d="M379.74 773.1505 L367.74 768.1505 L370.74 773.1505 L367.74 778.1505 Z" clip-path="url(#clipPath2)" stroke="none"/>
      <path fill="none" d="M334.9856 888.8784 L371.74 888.8784" clip-path="url(#clipPath2)"/>
      <path d="M379.74 888.8784 L367.74 883.8784 L370.74 888.8784 L367.74 893.8784 Z" clip-path="url(#clipPath2)" stroke="none"/>
      <path fill="none" d="M335.01 1004.6063 L371.7625 1004.6063" clip-path="url(#clipPath2)"/>
      <path d="M379.7625 1004.6063 L367.7625 999.6063 L370.7625 1004.6063 L367.7625 1009.6063 Z" clip-path="url(#clipPath2)" stroke="none"/>
      <path fill="none" d="M334.9405 151.9104 L378.9464 151.9104" clip-path="url(#clipPath2)"/>
      <path d="M386.9464 151.9104 L374.9464 146.9104 L377.9464 151.9104 L374.9464 156.9104 Z" clip-path="url(#clipPath2)" stroke="none"/>
      <path fill="none" d="M334.9458 245.9104 L378.8943 245.9104" clip-path="url(#clipPath2)"/>
      <path d="M386.8943 245.9104 L374.8943 240.9104 L377.8943 245.9104 L374.8943 250.9104 Z" clip-path="url(#clipPath2)" stroke="none"/>
      <path fill="none" d="M619.6735 458.5586 L652.167 458.5586" clip-path="url(#clipPath2)"/>
      <path d="M660.167 458.5586 L648.167 453.5586 L651.167 458.5586 L648.167 463.5586 Z" clip-path="url(#clipPath2)" stroke="none"/>
      <path fill="none" d="M334.9572 557.9906 L378.9004 557.9906" clip-path="url(#clipPath2)"/>
      <path d="M386.9004 557.9906 L374.9004 552.9906 L377.9004 557.9906 L374.9004 562.9906 Z" clip-path="url(#clipPath2)" stroke="none"/>
      <path fill="none" stroke-dasharray="6,2" d="M781.2292 458.5586 L813.7227 458.5586" clip-path="url(#clipPath2)"/>
      <path stroke-dasharray="6,2" d="M821.7227 458.5586 L809.7227 453.5586 L812.7227 458.5586 L809.7227 463.5586 Z" clip-path="url(#clipPath2)" stroke="none"/>
      <path fill="none" stroke-dasharray="6,2" d="M614.0797 440.4639 L674.8496 420.4528 L779.2976 420.4528 L821.0803 435.9192" clip-path="url(#clipPath2)"/>
      <path stroke-dasharray="6,2" d="M828.5828 438.6964 L819.0648 429.8416 L820.1425 435.5721 L815.5933 439.2197 Z" clip-path="url(#clipPath2)" stroke="none"/>
      <path fill="none" d="M1265.8964 458.5586 L1298.3899 458.5586" clip-path="url(#clipPath2)"/>
      <path d="M1306.3899 458.5586 L1294.3899 453.5586 L1297.3899 458.5586 L1294.3899 463.5586 Z" clip-path="url(#clipPath2)" stroke="none"/>
      <path fill="none" d="M1095.0491 481.0546 L1131.4866 497.048 L1398.1969 497.048 L1464.8495 477.3545" clip-path="url(#clipPath2)"/>
      <path d="M1472.5216 475.0876 L1459.5967 473.6928 L1463.8905 477.6378 L1462.4302 483.283 Z" clip-path="url(#clipPath2)" stroke="none"/>
      <path fill="none" d="M1256.5165 481.205 L1292.3101 497.048 L1427.9869 497.2016 L1467.8395 481.8745" clip-path="url(#clipPath2)"/>
      <path d="M1475.3063 479.0028 L1462.3113 478.6436 L1466.9061 482.2335 L1465.9009 487.9771 Z" clip-path="url(#clipPath2)" stroke="none"/>
      <path fill="none" stroke-dasharray="6,2" d="M771.7757 481.2576 L807.6622 497.2016 L1470.0099 497.2016 L1478.6633 491.4809" clip-path="url(#clipPath2)"/>
      <path stroke-dasharray="6,2" d="M1485.3369 487.0692 L1472.5692 489.5158 L1477.8291 492.0324 L1478.0839 497.8578 Z" clip-path="url(#clipPath2)" stroke="none"/>
      <path fill="none" d="M610.6067 480.8817 L646.7648 496.5616 L807.341 497.2016 L1447.9014 497.2016 L1472.2666 486.51" clip-path="url(#clipPath2)"/>
      <path d="M1479.5924 483.2954 L1466.5947 483.5387 L1471.351 486.9118 L1470.6129 492.6959 Z" clip-path="url(#clipPath2)" stroke="none"/>
      <path fill="none" d="M620.309 773.1505 L652.9853 773.1505" clip-path="url(#clipPath2)"/>
      <path d="M660.9853 773.1505 L648.9853 768.1505 L651.9853 773.1505 L648.9853 778.1505 Z" clip-path="url(#clipPath2)" stroke="none"/>
      <path fill="none" d="M1043.7968 490.5439 L1043.7968 594.041 L800.9741 594.041 L800.9741 715.1511 L774.4708 741.5171" clip-path="url(#clipPath2)"/>
      <path d="M768.7992 747.1592 L780.8328 742.2408 L775.1797 740.8118 L773.7802 735.1514 Z" clip-path="url(#clipPath2)" stroke="none"/>
      <path fill="none" d="M620.8244 888.8784 L655.1453 888.8784" clip-path="url(#clipPath2)"/>
      <path d="M663.1453 888.8784 L651.1453 883.8784 L654.1453 888.8784 L651.1453 893.8784 Z" clip-path="url(#clipPath2)" stroke="none"/>
      <path fill="none" d="M784.2136 888.8784 L818.5345 888.8784" clip-path="url(#clipPath2)"/>
      <path d="M826.5345 888.8784 L814.5345 883.8784 L817.5345 888.8784 L814.5345 893.8784 Z" clip-path="url(#clipPath2)" stroke="none"/>
      <path fill="none" d="M621.5269 1004.6063 L655.2242 1004.6063" clip-path="url(#clipPath2)"/>
      <path d="M663.2242 1004.6063 L651.2242 999.6063 L654.2242 1004.6063 L651.2242 1009.6063 Z" clip-path="url(#clipPath2)" stroke="none"/>
      <path fill="none" d="M614.7374 1024.3394 L661.8362 1041.6318 L794.7402 1042.2476 L826.8554 1029.0884" clip-path="url(#clipPath2)"/>
      <path d="M834.2581 1026.0552 L821.2583 1025.9783 L825.9301 1029.4675 L825.0498 1035.2317 Z" clip-path="url(#clipPath2)" stroke="none"/>
      <path fill="none" d="M1391.5829 490.5824 L1484.84 611.6153 L1484.84 946.3353 L886.6046 950.1753 L886.6046 964.5803" clip-path="url(#clipPath2)"/>
      <path d="M886.6046 972.5803 L891.6046 960.5803 L886.6046 963.5803 L881.6046 960.5803 Z" clip-path="url(#clipPath2)" stroke="none"/>
      <path fill="none" d="M947.1404 1004.6063 L980.8378 1004.6063" clip-path="url(#clipPath2)"/>
      <path d="M988.8378 1004.6063 L976.8378 999.6063 L979.8378 1004.6063 L976.8378 1009.6063 Z" clip-path="url(#clipPath2)" stroke="none"/>
      <path fill="none" d="M614.7374 1024.3394 L661.8362 1041.6318 L1120.6031 1043.9255 L1153.199 1029.9362" clip-path="url(#clipPath2)"/>
      <path d="M1160.5505 1026.781 L1147.5513 1026.9189 L1152.28 1030.3306 L1151.4952 1036.1084 Z" clip-path="url(#clipPath2)" stroke="none"/>
    </g>
  </g>
</svg>
