<?xml version="1.0" encoding="UTF-8"?><svg xmlns="http://www.w3.org/2000/svg" xmlns:xlink="http://www.w3.org/1999/xlink" fill-opacity="1" color-rendering="auto" color-interpolation="auto" text-rendering="auto" stroke="black" stroke-linecap="square" width="583" stroke-miterlimit="10" shape-rendering="auto" stroke-opacity="1" fill="black" stroke-dasharray="none" font-weight="normal" stroke-width="1" height="378" font-family="'Dialog'" font-style="normal" stroke-linejoin="miter" font-size="12px" stroke-dashoffset="0" image-rendering="auto">
  <!--Generated by ySVG 2.5-->
  <defs id="genericDefs"/>
  <g>
    <defs id="defs1">
      <clipPath clipPathUnits="userSpaceOnUse" id="clipPath1">
        <path d="M0 0 L583 0 L583 378 L0 378 L0 0 Z"/>
      </clipPath>
      <clipPath clipPathUnits="userSpaceOnUse" id="clipPath2">
        <path d="M168 224 L751 224 L751 602 L168 602 L168 224 Z"/>
      </clipPath>
    </defs>
    <g fill="white" text-rendering="geometricPrecision" shape-rendering="geometricPrecision" transform="translate(-168,-224)" stroke="white">
      <rect x="168" width="583" height="378" y="224" clip-path="url(#clipPath2)" stroke="none"/>
    </g>
    <g fill="white" text-rendering="geometricPrecision" shape-rendering="geometricPrecision" transform="matrix(1,0,0,1,-168,-224)" stroke="white">
      <rect x="217.5" width="227" height="98" y="288.5" clip-path="url(#clipPath2)" stroke="none"/>
    </g>
    <g text-rendering="geometricPrecision" stroke-miterlimit="1.45" shape-rendering="geometricPrecision" transform="matrix(1,0,0,1,-168,-224)" stroke-linecap="butt">
      <rect fill="none" x="217.5" width="227" height="98" y="288.5" clip-path="url(#clipPath2)"/>
      <text x="258.3145" font-size="24px" y="346.9277" clip-path="url(#clipPath2)" font-family="sans-serif" stroke="none" font-weight="bold" xml:space="preserve">Logical View</text>
    </g>
    <g fill="white" text-rendering="geometricPrecision" shape-rendering="geometricPrecision" transform="matrix(1,0,0,1,-168,-224)" stroke="white">
      <rect x="480" width="227" height="98" y="288.5" clip-path="url(#clipPath2)" stroke="none"/>
    </g>
    <g text-rendering="geometricPrecision" stroke-miterlimit="1.45" shape-rendering="geometricPrecision" transform="matrix(1,0,0,1,-168,-224)" stroke-linecap="butt">
      <rect fill="none" x="480" width="227" height="98" y="288.5" clip-path="url(#clipPath2)"/>
      <text x="518.1484" font-size="24px" y="332.2266" clip-path="url(#clipPath2)" font-family="sans-serif" stroke="none" font-weight="bold" xml:space="preserve">Development</text>
      <text x="566.1543" font-size="24px" y="361.6289" clip-path="url(#clipPath2)" font-family="sans-serif" stroke="none" font-weight="bold" xml:space="preserve">View</text>
    </g>
    <g fill="white" text-rendering="geometricPrecision" shape-rendering="geometricPrecision" transform="matrix(1,0,0,1,-168,-224)" stroke="white">
      <rect x="217.5" width="227" height="98" y="422.5" clip-path="url(#clipPath2)" stroke="none"/>
    </g>
    <g text-rendering="geometricPrecision" stroke-miterlimit="1.45" shape-rendering="geometricPrecision" transform="matrix(1,0,0,1,-168,-224)" stroke-linecap="butt">
      <rect fill="none" x="217.5" width="227" height="98" y="422.5" clip-path="url(#clipPath2)"/>
      <text x="253.6211" font-size="24px" y="480.9277" clip-path="url(#clipPath2)" font-family="sans-serif" stroke="none" font-weight="bold" xml:space="preserve">Process View</text>
    </g>
    <g fill="white" text-rendering="geometricPrecision" shape-rendering="geometricPrecision" transform="matrix(1,0,0,1,-168,-224)" stroke="white">
      <rect x="480" width="227" height="98" y="422.5" clip-path="url(#clipPath2)" stroke="none"/>
    </g>
    <g text-rendering="geometricPrecision" stroke-miterlimit="1.45" shape-rendering="geometricPrecision" transform="matrix(1,0,0,1,-168,-224)" stroke-linecap="butt">
      <rect fill="none" x="480" width="227" height="98" y="422.5" clip-path="url(#clipPath2)"/>
      <text x="514.123" font-size="24px" y="480.9277" clip-path="url(#clipPath2)" font-family="sans-serif" stroke="none" font-weight="bold" xml:space="preserve">Physical View</text>
    </g>
    <g fill="white" text-rendering="geometricPrecision" shape-rendering="geometricPrecision" transform="matrix(1,0,0,1,-168,-224)" stroke="white">
      <ellipse rx="107" ry="40.5" clip-path="url(#clipPath2)" cx="462.25" cy="404.5" stroke="none"/>
    </g>
    <g text-rendering="geometricPrecision" stroke-miterlimit="1.45" shape-rendering="geometricPrecision" transform="matrix(1,0,0,1,-168,-224)" stroke-linecap="butt">
      <ellipse rx="107" fill="none" ry="40.5" clip-path="url(#clipPath2)" cx="462.25" cy="404.5"/>
      <text x="377.5352" font-size="24px" y="413.9277" clip-path="url(#clipPath2)" font-family="sans-serif" stroke="none" font-weight="bold" xml:space="preserve">Use Case View</text>
    </g>
    <g fill="white" text-rendering="geometricPrecision" shape-rendering="geometricPrecision" transform="matrix(1,0,0,1,-168,-224)" stroke="white">
      <rect x="183.5" width="29" height="31" y="246" clip-path="url(#clipPath2)" stroke="none"/>
    </g>
    <g font-size="16px" stroke-linecap="butt" transform="matrix(1,0,0,1,-168,-224)" text-rendering="geometricPrecision" font-family="sans-serif" shape-rendering="geometricPrecision" stroke-miterlimit="1.45">
      <text x="218.5" xml:space="preserve" y="257.9844" clip-path="url(#clipPath2)" stroke="none">End-user</text>
      <text x="218.5" xml:space="preserve" y="277.5859" clip-path="url(#clipPath2)" stroke="none">Functionality</text>
    </g>
    <g fill="white" text-rendering="geometricPrecision" shape-rendering="geometricPrecision" transform="matrix(1,0,0,1,-168,-224)" stroke="white">
      <rect x="183.5" width="29" height="31" y="540" clip-path="url(#clipPath2)" stroke="none"/>
    </g>
    <g font-size="16px" stroke-linecap="butt" transform="matrix(1,0,0,1,-168,-224)" text-rendering="geometricPrecision" font-family="sans-serif" shape-rendering="geometricPrecision" stroke-miterlimit="1.45">
      <text x="218.5" xml:space="preserve" y="542.1836" clip-path="url(#clipPath2)" stroke="none">Integrators</text>
      <text x="218.5" xml:space="preserve" y="561.7852" clip-path="url(#clipPath2)" stroke="none">Performance</text>
      <text x="218.5" xml:space="preserve" y="581.3867" clip-path="url(#clipPath2)" stroke="none">Scalability</text>
    </g>
    <g fill="white" text-rendering="geometricPrecision" shape-rendering="geometricPrecision" transform="matrix(1,0,0,1,-168,-224)" stroke="white">
      <rect x="707" width="29" height="31" y="246" clip-path="url(#clipPath2)" stroke="none"/>
    </g>
    <g font-size="16px" stroke-linecap="butt" transform="matrix(1,0,0,1,-168,-224)" text-rendering="geometricPrecision" font-family="sans-serif" shape-rendering="geometricPrecision" stroke-miterlimit="1.45">
      <text x="604.0938" xml:space="preserve" y="257.9844" clip-path="url(#clipPath2)" stroke="none">Programmers</text>
      <text x="540.0234" xml:space="preserve" y="277.5859" clip-path="url(#clipPath2)" stroke="none">Software Management</text>
    </g>
    <g fill="white" text-rendering="geometricPrecision" shape-rendering="geometricPrecision" transform="matrix(1,0,0,1,-168,-224)" stroke="white">
      <rect x="707" width="29" height="31" y="540" clip-path="url(#clipPath2)" stroke="none"/>
    </g>
    <g font-size="16px" stroke-linecap="butt" transform="matrix(1,0,0,1,-168,-224)" text-rendering="geometricPrecision" font-family="sans-serif" shape-rendering="geometricPrecision" stroke-miterlimit="1.45">
      <text x="571.1641" xml:space="preserve" y="542.1836" clip-path="url(#clipPath2)" stroke="none">System Engineers</text>
      <text x="635.1797" xml:space="preserve" y="561.7852" clip-path="url(#clipPath2)" stroke="none">Topology</text>
      <text x="581.8438" xml:space="preserve" y="581.3867" clip-path="url(#clipPath2)" stroke="none">Communications</text>
    </g>
    <g text-rendering="geometricPrecision" stroke-miterlimit="1.45" shape-rendering="geometricPrecision" transform="matrix(1,0,0,1,-168,-224)" stroke-linecap="butt">
      <path fill="none" d="M444.53 337.5 L471.9904 337.5" clip-path="url(#clipPath2)"/>
    </g>
    <g text-rendering="geometricPrecision" stroke-miterlimit="1.45" shape-rendering="geometricPrecision" transform="matrix(1,0,0,1,-168,-224)" stroke-linecap="butt">
      <path d="M479.9904 337.5 L467.9904 332.5 L470.9904 337.5 L467.9904 342.5 Z" stroke="none" clip-path="url(#clipPath2)"/>
      <path fill="none" d="M331 386.4741 L331 414.469" clip-path="url(#clipPath2)"/>
      <path d="M331 422.469 L336 410.469 L331 413.469 L326 410.469 Z" clip-path="url(#clipPath2)" stroke="none"/>
      <path fill="none" d="M593.5 386.4741 L593.5 414.469" clip-path="url(#clipPath2)"/>
      <path d="M593.5 422.469 L598.5 410.469 L593.5 413.469 L588.5 410.469 Z" clip-path="url(#clipPath2)" stroke="none"/>
      <path fill="none" d="M444.53 471.5 L471.9904 471.5" clip-path="url(#clipPath2)"/>
      <path d="M479.9904 471.5 L467.9904 466.5 L470.9904 471.5 L467.9904 476.5 Z" clip-path="url(#clipPath2)" stroke="none"/>
    </g>
  </g>
</svg>
