<?xml version="1.0" encoding="UTF-8"?><svg xmlns="http://www.w3.org/2000/svg" xmlns:xlink="http://www.w3.org/1999/xlink" fill-opacity="1" color-rendering="auto" color-interpolation="auto" text-rendering="auto" stroke="black" stroke-linecap="square" width="1246" stroke-miterlimit="10" shape-rendering="auto" stroke-opacity="1" fill="black" stroke-dasharray="none" font-weight="normal" stroke-width="1" height="766" font-family="'Dialog'" font-style="normal" stroke-linejoin="miter" font-size="12px" stroke-dashoffset="0" image-rendering="auto">
  <!--Generated by ySVG 2.5-->
  <defs id="genericDefs"/>
  <g>
    <defs id="defs1">
      <linearGradient x1="323" gradientUnits="userSpaceOnUse" x2="1022" y1="285" y2="310" id="linearGradient1" spreadMethod="reflect">
        <stop stop-opacity="1" stop-color="rgb(232,238,247)" offset="0%"/>
        <stop stop-opacity="1" stop-color="rgb(183,201,227)" offset="100%"/>
      </linearGradient>
      <linearGradient x1="351" gradientUnits="userSpaceOnUse" x2="431" y1="175" y2="215" id="linearGradient2" spreadMethod="reflect">
        <stop stop-opacity="1" stop-color="rgb(232,238,247)" offset="0%"/>
        <stop stop-opacity="1" stop-color="rgb(183,201,227)" offset="100%"/>
      </linearGradient>
      <linearGradient x1="533.5" gradientUnits="userSpaceOnUse" x2="613.5" y1="174" y2="214" id="linearGradient3" spreadMethod="reflect">
        <stop stop-opacity="1" stop-color="rgb(232,238,247)" offset="0%"/>
        <stop stop-opacity="1" stop-color="rgb(183,201,227)" offset="100%"/>
      </linearGradient>
      <linearGradient x1="745" gradientUnits="userSpaceOnUse" x2="825" y1="174" y2="214" id="linearGradient4" spreadMethod="reflect">
        <stop stop-opacity="1" stop-color="rgb(232,238,247)" offset="0%"/>
        <stop stop-opacity="1" stop-color="rgb(183,201,227)" offset="100%"/>
      </linearGradient>
      <linearGradient x1="106" gradientUnits="userSpaceOnUse" x2="219" y1="438" y2="478" id="linearGradient5" spreadMethod="reflect">
        <stop stop-opacity="1" stop-color="rgb(232,238,247)" offset="0%"/>
        <stop stop-opacity="1" stop-color="rgb(183,201,227)" offset="100%"/>
      </linearGradient>
      <linearGradient x1="106" gradientUnits="userSpaceOnUse" x2="219" y1="586" y2="626" id="linearGradient6" spreadMethod="reflect">
        <stop stop-opacity="1" stop-color="rgb(232,238,247)" offset="0%"/>
        <stop stop-opacity="1" stop-color="rgb(183,201,227)" offset="100%"/>
      </linearGradient>
      <linearGradient x1="162" gradientUnits="userSpaceOnUse" x2="234" y1="699" y2="739" id="linearGradient7" spreadMethod="reflect">
        <stop stop-opacity="1" stop-color="rgb(232,238,247)" offset="0%"/>
        <stop stop-opacity="1" stop-color="rgb(183,201,227)" offset="100%"/>
      </linearGradient>
      <linearGradient x1="49" gradientUnits="userSpaceOnUse" x2="121" y1="699" y2="739" id="linearGradient8" spreadMethod="reflect">
        <stop stop-opacity="1" stop-color="rgb(232,238,247)" offset="0%"/>
        <stop stop-opacity="1" stop-color="rgb(183,201,227)" offset="100%"/>
      </linearGradient>
      <linearGradient x1="610.5" gradientUnits="userSpaceOnUse" x2="690.5" y1="536" y2="594" id="linearGradient9" spreadMethod="reflect">
        <stop stop-opacity="1" stop-color="rgb(232,238,247)" offset="0%"/>
        <stop stop-opacity="1" stop-color="rgb(183,201,227)" offset="100%"/>
      </linearGradient>
      <linearGradient x1="406" gradientUnits="userSpaceOnUse" x2="466" y1="517.7819" y2="565.7819" id="linearGradient10" spreadMethod="reflect">
        <stop stop-opacity="1" stop-color="rgb(232,238,247)" offset="0%"/>
        <stop stop-opacity="1" stop-color="rgb(183,201,227)" offset="100%"/>
      </linearGradient>
      <linearGradient x1="312.5" gradientUnits="userSpaceOnUse" x2="384.5" y1="517.7819" y2="565.7819" id="linearGradient11" spreadMethod="reflect">
        <stop stop-opacity="1" stop-color="rgb(232,238,247)" offset="0%"/>
        <stop stop-opacity="1" stop-color="rgb(183,201,227)" offset="100%"/>
      </linearGradient>
      <linearGradient x1="312.5" gradientUnits="userSpaceOnUse" x2="384.5" y1="696" y2="744" id="linearGradient12" spreadMethod="reflect">
        <stop stop-opacity="1" stop-color="rgb(232,238,247)" offset="0%"/>
        <stop stop-opacity="1" stop-color="rgb(183,201,227)" offset="100%"/>
      </linearGradient>
      <linearGradient x1="486" gradientUnits="userSpaceOnUse" x2="558" y1="700" y2="740" id="linearGradient13" spreadMethod="reflect">
        <stop stop-opacity="1" stop-color="rgb(232,238,247)" offset="0%"/>
        <stop stop-opacity="1" stop-color="rgb(183,201,227)" offset="100%"/>
      </linearGradient>
      <linearGradient x1="312.5" gradientUnits="userSpaceOnUse" x2="399.5" y1="438" y2="478" id="linearGradient14" spreadMethod="reflect">
        <stop stop-opacity="1" stop-color="rgb(232,238,247)" offset="0%"/>
        <stop stop-opacity="1" stop-color="rgb(183,201,227)" offset="100%"/>
      </linearGradient>
      <linearGradient x1="457" gradientUnits="userSpaceOnUse" x2="844" y1="453" y2="501" id="linearGradient15" spreadMethod="reflect">
        <stop stop-opacity="1" stop-color="rgb(232,238,247)" offset="0%"/>
        <stop stop-opacity="1" stop-color="rgb(183,201,227)" offset="100%"/>
      </linearGradient>
      <linearGradient x1="478" gradientUnits="userSpaceOnUse" x2="623" y1="376" y2="416" id="linearGradient16" spreadMethod="reflect">
        <stop stop-opacity="1" stop-color="rgb(232,238,247)" offset="0%"/>
        <stop stop-opacity="1" stop-color="rgb(183,201,227)" offset="100%"/>
      </linearGradient>
      <linearGradient x1="1117" gradientUnits="userSpaceOnUse" x2="1197" y1="276" y2="316" id="linearGradient17" spreadMethod="reflect">
        <stop stop-opacity="1" stop-color="rgb(232,238,247)" offset="0%"/>
        <stop stop-opacity="1" stop-color="rgb(183,201,227)" offset="100%"/>
      </linearGradient>
      <linearGradient x1="1121.4823" gradientUnits="userSpaceOnUse" x2="1201.4823" y1="490" y2="530" id="linearGradient18" spreadMethod="reflect">
        <stop stop-opacity="1" stop-color="rgb(232,238,247)" offset="0%"/>
        <stop stop-opacity="1" stop-color="rgb(183,201,227)" offset="100%"/>
      </linearGradient>
      <linearGradient x1="1121.4823" gradientUnits="userSpaceOnUse" x2="1201.4823" y1="173" y2="213" id="linearGradient19" spreadMethod="reflect">
        <stop stop-opacity="1" stop-color="rgb(232,238,247)" offset="0%"/>
        <stop stop-opacity="1" stop-color="rgb(183,201,227)" offset="100%"/>
      </linearGradient>
      <linearGradient x1="1088.4823" gradientUnits="userSpaceOnUse" x2="1240.4823" y1="602" y2="642" id="linearGradient20" spreadMethod="reflect">
        <stop stop-opacity="1" stop-color="rgb(232,238,247)" offset="0%"/>
        <stop stop-opacity="1" stop-color="rgb(183,201,227)" offset="100%"/>
      </linearGradient>
      <linearGradient x1="1088.4823" gradientUnits="userSpaceOnUse" x2="1240.4823" y1="661.5" y2="701.5" id="linearGradient21" spreadMethod="reflect">
        <stop stop-opacity="1" stop-color="rgb(232,238,247)" offset="0%"/>
        <stop stop-opacity="1" stop-color="rgb(183,201,227)" offset="100%"/>
      </linearGradient>
      <linearGradient x1="1088.4823" gradientUnits="userSpaceOnUse" x2="1240.4823" y1="721" y2="761" id="linearGradient22" spreadMethod="reflect">
        <stop stop-opacity="1" stop-color="rgb(232,238,247)" offset="0%"/>
        <stop stop-opacity="1" stop-color="rgb(183,201,227)" offset="100%"/>
      </linearGradient>
      <linearGradient x1="106" gradientUnits="userSpaceOnUse" x2="219" y1="290" y2="330" id="linearGradient23" spreadMethod="reflect">
        <stop stop-opacity="1" stop-color="rgb(232,238,247)" offset="0%"/>
        <stop stop-opacity="1" stop-color="rgb(183,201,227)" offset="100%"/>
      </linearGradient>
      <linearGradient x1="312.5" gradientUnits="userSpaceOnUse" x2="384.5" y1="586" y2="626" id="linearGradient24" spreadMethod="reflect">
        <stop stop-opacity="1" stop-color="rgb(232,238,247)" offset="0%"/>
        <stop stop-opacity="1" stop-color="rgb(183,201,227)" offset="100%"/>
      </linearGradient>
      <linearGradient x1="934" gradientUnits="userSpaceOnUse" x2="1014" y1="174" y2="214" id="linearGradient25" spreadMethod="reflect">
        <stop stop-opacity="1" stop-color="rgb(232,238,247)" offset="0%"/>
        <stop stop-opacity="1" stop-color="rgb(183,201,227)" offset="100%"/>
      </linearGradient>
      <clipPath clipPathUnits="userSpaceOnUse" id="clipPath1">
        <path d="M0 0 L1246 0 L1246 766 L0 766 L0 0 Z"/>
      </clipPath>
      <clipPath clipPathUnits="userSpaceOnUse" id="clipPath2">
        <path d="M20 22 L1266 22 L1266 788 L20 788 L20 22 Z"/>
      </clipPath>
    </defs>
    <g fill="white" text-rendering="geometricPrecision" shape-rendering="geometricPrecision" transform="translate(-20,-22)" stroke="white">
      <rect x="20" width="1246" height="766" y="22" clip-path="url(#clipPath2)" stroke="none"/>
    </g>
    <g text-rendering="geometricPrecision" stroke-miterlimit="1.45" shape-rendering="geometricPrecision" transform="matrix(1,0,0,1,-20,-22)" stroke-linecap="butt">
      <rect fill="none" x="287" width="754.9823" height="408" y="365" clip-path="url(#clipPath2)"/>
      <text x="293" xml:space="preserve" y="383.0645" clip-path="url(#clipPath2)" font-family="sans-serif" stroke="none">StudyBuilder System</text>
    </g>
    <g fill="rgb(239,239,239)" text-rendering="geometricPrecision" shape-rendering="geometricPrecision" transform="matrix(1,0,0,1,-20,-22)" stroke="rgb(239,239,239)">
      <rect x="287" width="754.9823" height="97" y="249" clip-path="url(#clipPath2)" stroke="none"/>
    </g>
    <g text-rendering="geometricPrecision" stroke-miterlimit="1.45" shape-rendering="geometricPrecision" transform="matrix(1,0,0,1,-20,-22)" stroke-linecap="butt">
      <rect fill="none" x="287" width="754.9823" height="97" y="249" clip-path="url(#clipPath2)"/>
      <text x="293" xml:space="preserve" y="267.0645" clip-path="url(#clipPath2)" font-family="sans-serif" stroke="none">MAP</text>
    </g>
    <g fill="rgb(239,239,239)" text-rendering="geometricPrecision" shape-rendering="geometricPrecision" transform="matrix(1,0,0,1,-20,-22)" stroke="rgb(239,239,239)">
      <rect x="287" width="179" height="97" y="133" clip-path="url(#clipPath2)" stroke="none"/>
    </g>
    <g text-rendering="geometricPrecision" stroke-miterlimit="1.45" shape-rendering="geometricPrecision" transform="matrix(1,0,0,1,-20,-22)" stroke-linecap="butt">
      <rect fill="none" x="287" width="179" height="97" y="133" clip-path="url(#clipPath2)"/>
      <text x="293" xml:space="preserve" y="151.0645" clip-path="url(#clipPath2)" font-family="sans-serif" stroke="none">System X *</text>
    </g>
    <g fill="rgb(239,239,239)" text-rendering="geometricPrecision" shape-rendering="geometricPrecision" transform="matrix(1,0,0,1,-20,-22)" stroke="rgb(239,239,239)">
      <rect x="484" width="179" height="97" y="133" clip-path="url(#clipPath2)" stroke="none"/>
    </g>
    <g text-rendering="geometricPrecision" stroke-miterlimit="1.45" shape-rendering="geometricPrecision" transform="matrix(1,0,0,1,-20,-22)" stroke-linecap="butt">
      <rect fill="none" x="484" width="179" height="97" y="133" clip-path="url(#clipPath2)"/>
      <text x="490" xml:space="preserve" y="151.0645" clip-path="url(#clipPath2)" font-family="sans-serif" stroke="none">System Y *</text>
    </g>
    <g fill="rgb(239,239,239)" text-rendering="geometricPrecision" shape-rendering="geometricPrecision" transform="matrix(1,0,0,1,-20,-22)" stroke="rgb(239,239,239)">
      <rect x="681" width="179" height="97" y="133" clip-path="url(#clipPath2)" stroke="none"/>
    </g>
    <g text-rendering="geometricPrecision" stroke-miterlimit="1.45" shape-rendering="geometricPrecision" transform="matrix(1,0,0,1,-20,-22)" stroke-linecap="butt">
      <rect fill="none" x="681" width="179" height="97" y="133" clip-path="url(#clipPath2)"/>
      <text x="687" xml:space="preserve" y="151.0645" clip-path="url(#clipPath2)" font-family="sans-serif" stroke="none">New SCE</text>
    </g>
    <g text-rendering="geometricPrecision" stroke-miterlimit="1.45" shape-rendering="geometricPrecision" transform="matrix(1,0,0,1,-20,-22)" stroke-linecap="butt">
      <rect fill="none" x="36" width="1214.9823" height="40" y="37.2181" clip-path="url(#clipPath2)"/>
      <path fill="none" d="M46 37.2181 L46 77.2181 M1240.9823 37.2181 L1240.9823 77.2181 M46 37.2181 Z" clip-path="url(#clipPath2)"/>
      <text x="460.1274" font-size="22px" y="65.8602" clip-path="url(#clipPath2)" font-family="sans-serif" stroke="none" font-weight="bold" xml:space="preserve">StudyBuilder: System Integrations </text>
    </g>
    <g fill="url(#linearGradient1)" text-rendering="geometricPrecision" shape-rendering="geometricPrecision" transform="matrix(1,0,0,1,-20,-22)" stroke="url(#linearGradient1)">
      <rect x="323" width="699" height="25" y="285" clip-path="url(#clipPath2)" stroke="none"/>
    </g>
    <g text-rendering="geometricPrecision" stroke-miterlimit="1.45" shape-rendering="geometricPrecision" transform="matrix(1,0,0,1,-20,-22)" stroke-linecap="butt">
      <rect fill="none" x="323" width="699" height="25" y="285" clip-path="url(#clipPath2)"/>
      <path fill="none" d="M333 285 L333 310 M1012 285 L1012 310 M333 285 Z" clip-path="url(#clipPath2)"/>
      <text x="614.1436" xml:space="preserve" y="302.2139" clip-path="url(#clipPath2)" font-family="sans-serif" stroke="none">Mule Soft API Proxies</text>
    </g>
    <g fill="url(#linearGradient2)" text-rendering="geometricPrecision" shape-rendering="geometricPrecision" transform="matrix(1,0,0,1,-20,-22)" stroke="url(#linearGradient2)">
      <rect x="351" width="80" height="40" y="175" clip-path="url(#clipPath2)" stroke="none"/>
    </g>
    <g text-rendering="geometricPrecision" stroke-miterlimit="1.45" shape-rendering="geometricPrecision" transform="matrix(1,0,0,1,-20,-22)" stroke-linecap="butt">
      <rect fill="none" x="351" width="80" height="40" y="175" clip-path="url(#clipPath2)"/>
      <path fill="none" d="M361 175 L361 215 M421 175 L421 215 M361 175 Z" clip-path="url(#clipPath2)"/>
    </g>
    <g fill="url(#linearGradient3)" text-rendering="geometricPrecision" shape-rendering="geometricPrecision" transform="matrix(1,0,0,1,-20,-22)" stroke="url(#linearGradient3)">
      <rect x="533.5" width="80" height="40" y="174" clip-path="url(#clipPath2)" stroke="none"/>
    </g>
    <g text-rendering="geometricPrecision" stroke-miterlimit="1.45" shape-rendering="geometricPrecision" transform="matrix(1,0,0,1,-20,-22)" stroke-linecap="butt">
      <rect fill="none" x="533.5" width="80" height="40" y="174" clip-path="url(#clipPath2)"/>
      <path fill="none" d="M543.5 174 L543.5 214 M603.5 174 L603.5 214 M543.5 174 Z" clip-path="url(#clipPath2)"/>
    </g>
    <g fill="url(#linearGradient4)" text-rendering="geometricPrecision" shape-rendering="geometricPrecision" transform="matrix(1,0,0,1,-20,-22)" stroke="url(#linearGradient4)">
      <rect x="745" width="80" height="40" y="174" clip-path="url(#clipPath2)" stroke="none"/>
    </g>
    <g text-rendering="geometricPrecision" stroke-miterlimit="1.45" shape-rendering="geometricPrecision" transform="matrix(1,0,0,1,-20,-22)" stroke-linecap="butt">
      <rect fill="none" x="745" width="80" height="40" y="174" clip-path="url(#clipPath2)"/>
      <path fill="none" d="M755 174 L755 214 M815 174 L815 214 M755 174 Z" clip-path="url(#clipPath2)"/>
    </g>
    <g text-rendering="geometricPrecision" stroke-miterlimit="1.45" shape-rendering="geometricPrecision" transform="matrix(1,0,0,1,-20,-22)" stroke-linecap="butt">
      <rect fill="none" x="36" width="221.8333" height="126" y="365" clip-path="url(#clipPath2)"/>
      <text x="42" xml:space="preserve" y="383.0645" clip-path="url(#clipPath2)" font-family="sans-serif" stroke="none">CDISC Library</text>
    </g>
    <g fill="url(#linearGradient5)" text-rendering="geometricPrecision" shape-rendering="geometricPrecision" transform="matrix(1,0,0,1,-20,-22)" stroke="url(#linearGradient5)">
      <rect x="106" width="113" height="40" y="438" clip-path="url(#clipPath2)" stroke="none"/>
    </g>
    <g text-rendering="geometricPrecision" stroke-miterlimit="1.45" shape-rendering="geometricPrecision" transform="matrix(1,0,0,1,-20,-22)" stroke-linecap="butt">
      <rect fill="none" x="106" width="113" height="40" y="438" clip-path="url(#clipPath2)"/>
      <path fill="none" d="M116 438 L116 478 M209 438 L209 478 M116 438 Z" clip-path="url(#clipPath2)"/>
      <text x="123.8252" xml:space="preserve" y="455.3633" clip-path="url(#clipPath2)" font-family="sans-serif" stroke="none">CDISC Library</text>
      <text x="152.8291" xml:space="preserve" y="470.0645" clip-path="url(#clipPath2)" font-family="sans-serif" stroke="none">API</text>
    </g>
    <g text-rendering="geometricPrecision" stroke-miterlimit="1.45" shape-rendering="geometricPrecision" transform="matrix(1,0,0,1,-20,-22)" stroke-linecap="butt">
      <rect fill="none" x="36" width="221.8333" height="134" y="508" clip-path="url(#clipPath2)"/>
      <text x="42" xml:space="preserve" y="526.0645" clip-path="url(#clipPath2)" font-family="sans-serif" stroke="none">Other External sources</text>
    </g>
    <g fill="url(#linearGradient6)" text-rendering="geometricPrecision" shape-rendering="geometricPrecision" transform="matrix(1,0,0,1,-20,-22)" stroke="url(#linearGradient6)">
      <rect x="106" width="113" height="40" y="586" clip-path="url(#clipPath2)" stroke="none"/>
    </g>
    <g text-rendering="geometricPrecision" stroke-miterlimit="1.45" shape-rendering="geometricPrecision" transform="matrix(1,0,0,1,-20,-22)" stroke-linecap="butt">
      <rect fill="none" x="106" width="113" height="40" y="586" clip-path="url(#clipPath2)"/>
      <path fill="none" d="M116 586 L116 626 M106 596 L219 596 M116 586 Z" clip-path="url(#clipPath2)"/>
      <text x="131.1553" xml:space="preserve" y="610.7139" clip-path="url(#clipPath2)" font-family="sans-serif" stroke="none">Dictionaries</text>
    </g>
    <g fill="silver" text-rendering="geometricPrecision" shape-rendering="geometricPrecision" transform="matrix(1,0,0,1,-20,-22)" stroke="silver">
      <rect x="36" width="221.8333" height="115" y="658" clip-path="url(#clipPath2)" stroke="none"/>
    </g>
    <g text-rendering="geometricPrecision" stroke-miterlimit="1.45" shape-rendering="geometricPrecision" transform="matrix(1,0,0,1,-20,-22)" stroke-linecap="butt">
      <rect fill="none" x="36" width="221.8333" height="115" y="658" clip-path="url(#clipPath2)"/>
      <text x="42" xml:space="preserve" y="676.0645" clip-path="url(#clipPath2)" font-family="sans-serif" stroke="none">UNIX SCE &amp; CDW (in transition period)</text>
    </g>
    <g fill="url(#linearGradient7)" text-rendering="geometricPrecision" shape-rendering="geometricPrecision" transform="matrix(1,0,0,1,-20,-22)" stroke="url(#linearGradient7)">
      <rect x="162" width="72" height="40" y="699" clip-path="url(#clipPath2)" stroke="none"/>
    </g>
    <g text-rendering="geometricPrecision" stroke-miterlimit="1.45" shape-rendering="geometricPrecision" transform="matrix(1,0,0,1,-20,-22)" stroke-linecap="butt">
      <rect fill="none" x="162" width="72" height="40" y="699" clip-path="url(#clipPath2)"/>
      <path fill="none" d="M172 699 L172 739 M162 709 L234 709 M172 699 Z" clip-path="url(#clipPath2)"/>
      <text x="174.9961" xml:space="preserve" y="723.7139" clip-path="url(#clipPath2)" font-family="sans-serif" stroke="none">.csv files</text>
    </g>
    <g fill="url(#linearGradient8)" text-rendering="geometricPrecision" shape-rendering="geometricPrecision" transform="matrix(1,0,0,1,-20,-22)" stroke="url(#linearGradient8)">
      <path d="M49 699 L121 699 L121 739 L49 739 Z" stroke="none" clip-path="url(#clipPath2)"/>
    </g>
    <g text-rendering="geometricPrecision" stroke-miterlimit="1.45" shape-rendering="geometricPrecision" transform="matrix(1,0,0,1,-20,-22)" stroke-linecap="butt">
      <path fill="none" d="M49 699 L121 699 L121 739 L49 739 Z" clip-path="url(#clipPath2)"/>
      <text x="60.3232" xml:space="preserve" y="716.3633" clip-path="url(#clipPath2)" font-family="sans-serif" stroke="none">Migration</text>
      <text x="67.6592" xml:space="preserve" y="731.0645" clip-path="url(#clipPath2)" font-family="sans-serif" stroke="none">Export</text>
    </g>
    <g fill="url(#linearGradient9)" text-rendering="geometricPrecision" shape-rendering="geometricPrecision" transform="matrix(1,0,0,1,-20,-22)" stroke="url(#linearGradient9)">
      <path d="M610.5 547.6 C612.9 536 688.1 536 690.5 547.6 L690.5 582.4 C688.1 594 612.9 594 610.5 582.4 Z" stroke="none" clip-path="url(#clipPath2)"/>
    </g>
    <g text-rendering="geometricPrecision" stroke-miterlimit="1.45" shape-rendering="geometricPrecision" transform="matrix(1,0,0,1,-20,-22)" stroke-linecap="butt">
      <path fill="none" d="M610.5 547.6 C612.9 536 688.1 536 690.5 547.6 L690.5 582.4 C688.1 594 612.9 594 610.5 582.4 Z" clip-path="url(#clipPath2)"/>
      <path fill="none" d="M690.5 547.6 C688.1 559.2 612.9 559.2 610.5 547.6" clip-path="url(#clipPath2)"/>
      <text x="636.8359" xml:space="preserve" y="569.7139" clip-path="url(#clipPath2)" font-family="sans-serif" stroke="none">MDR</text>
    </g>
    <g fill="url(#linearGradient10)" text-rendering="geometricPrecision" shape-rendering="geometricPrecision" transform="matrix(1,0,0,1,-20,-22)" stroke="url(#linearGradient10)">
      <path d="M406 527.3818 C407.8 517.7819 464.2 517.7819 466 527.3818 L466 556.1819 C464.2 565.7819 407.8 565.7819 406 556.1819 Z" stroke="none" clip-path="url(#clipPath2)"/>
    </g>
    <g text-rendering="geometricPrecision" stroke-miterlimit="1.45" shape-rendering="geometricPrecision" transform="matrix(1,0,0,1,-20,-22)" stroke-linecap="butt">
      <path fill="none" d="M406 527.3818 C407.8 517.7819 464.2 517.7819 466 527.3818 L466 556.1819 C464.2 565.7819 407.8 565.7819 406 556.1819 Z" clip-path="url(#clipPath2)"/>
      <path fill="none" d="M466 527.3818 C464.2 536.9819 407.8 536.9819 406 527.3818" clip-path="url(#clipPath2)"/>
      <text x="415.6504" xml:space="preserve" y="546.4957" clip-path="url(#clipPath2)" font-family="sans-serif" stroke="none">Staging</text>
    </g>
    <g fill="url(#linearGradient11)" text-rendering="geometricPrecision" shape-rendering="geometricPrecision" transform="matrix(1,0,0,1,-20,-22)" stroke="url(#linearGradient11)">
      <rect x="312.5" width="72" height="48" y="517.7819" clip-path="url(#clipPath2)" stroke="none"/>
    </g>
    <g text-rendering="geometricPrecision" stroke-miterlimit="1.45" shape-rendering="geometricPrecision" transform="matrix(1,0,0,1,-20,-22)" stroke-linecap="butt">
      <rect fill="none" x="312.5" width="72" height="48" y="517.7819" clip-path="url(#clipPath2)"/>
      <path fill="none" d="M322.5 517.7819 L322.5 565.7819 M312.5 527.7819 L384.5 527.7819 M322.5 517.7819 Z" clip-path="url(#clipPath2)"/>
      <text x="331.4961" xml:space="preserve" y="539.1451" clip-path="url(#clipPath2)" font-family="sans-serif" stroke="none">Import</text>
      <text x="335.832" xml:space="preserve" y="553.8463" clip-path="url(#clipPath2)" font-family="sans-serif" stroke="none">Files</text>
    </g>
    <g fill="url(#linearGradient12)" text-rendering="geometricPrecision" shape-rendering="geometricPrecision" transform="matrix(1,0,0,1,-20,-22)" stroke="url(#linearGradient12)">
      <rect x="312.5" width="72" height="48" y="696" clip-path="url(#clipPath2)" stroke="none"/>
    </g>
    <g text-rendering="geometricPrecision" stroke-miterlimit="1.45" shape-rendering="geometricPrecision" transform="matrix(1,0,0,1,-20,-22)" stroke-linecap="butt">
      <rect fill="none" x="312.5" width="72" height="48" y="696" clip-path="url(#clipPath2)"/>
      <path fill="none" d="M322.5 696 L322.5 744 M312.5 706 L384.5 706 M322.5 696 Z" clip-path="url(#clipPath2)"/>
      <text x="323.8232" xml:space="preserve" y="717.3633" clip-path="url(#clipPath2)" font-family="sans-serif" stroke="none">Migration</text>
      <text x="335.832" xml:space="preserve" y="732.0645" clip-path="url(#clipPath2)" font-family="sans-serif" stroke="none">Files</text>
    </g>
    <g fill="url(#linearGradient13)" text-rendering="geometricPrecision" shape-rendering="geometricPrecision" transform="matrix(1,0,0,1,-20,-22)" stroke="url(#linearGradient13)">
      <path d="M486 700 L558 700 L558 740 L486 740 Z" stroke="none" clip-path="url(#clipPath2)"/>
    </g>
    <g text-rendering="geometricPrecision" stroke-miterlimit="1.45" shape-rendering="geometricPrecision" transform="matrix(1,0,0,1,-20,-22)" stroke-linecap="butt">
      <path fill="none" d="M486 700 L558 700 L558 740 L486 740 Z" clip-path="url(#clipPath2)"/>
      <text x="509.3262" xml:space="preserve" y="717.3633" clip-path="url(#clipPath2)" font-family="sans-serif" stroke="none">Data</text>
      <text x="497.3232" xml:space="preserve" y="732.0645" clip-path="url(#clipPath2)" font-family="sans-serif" stroke="none">Migration</text>
    </g>
    <g fill="url(#linearGradient14)" text-rendering="geometricPrecision" shape-rendering="geometricPrecision" transform="matrix(1,0,0,1,-20,-22)" stroke="url(#linearGradient14)">
      <path d="M312.5 438 L399.5 438 L399.5 478 L312.5 478 Z" stroke="none" clip-path="url(#clipPath2)"/>
    </g>
    <g text-rendering="geometricPrecision" stroke-miterlimit="1.45" shape-rendering="geometricPrecision" transform="matrix(1,0,0,1,-20,-22)" stroke-linecap="butt">
      <path fill="none" d="M312.5 438 L399.5 438 L399.5 478 L312.5 478 Z" clip-path="url(#clipPath2)"/>
      <text x="337.332" xml:space="preserve" y="455.3633" clip-path="url(#clipPath2)" font-family="sans-serif" stroke="none">CDISC</text>
      <text x="338.9961" xml:space="preserve" y="470.0645" clip-path="url(#clipPath2)" font-family="sans-serif" stroke="none">Import</text>
    </g>
    <g fill="url(#linearGradient15)" text-rendering="geometricPrecision" shape-rendering="geometricPrecision" transform="matrix(1,0,0,1,-20,-22)" stroke="url(#linearGradient15)">
      <rect x="457" width="387" height="48" y="453" clip-path="url(#clipPath2)" stroke="none"/>
    </g>
    <g text-rendering="geometricPrecision" stroke-miterlimit="1.45" shape-rendering="geometricPrecision" transform="matrix(1,0,0,1,-20,-22)" stroke-linecap="butt">
      <rect fill="none" x="457" width="387" height="48" y="453" clip-path="url(#clipPath2)"/>
      <path fill="none" d="M467 453 L467 501 M834 453 L834 501 M467 453 Z" clip-path="url(#clipPath2)"/>
      <text x="604.4922" xml:space="preserve" y="481.7139" clip-path="url(#clipPath2)" font-family="sans-serif" stroke="none">Clinical MDR API</text>
    </g>
    <g fill="url(#linearGradient16)" text-rendering="geometricPrecision" shape-rendering="geometricPrecision" transform="matrix(1,0,0,1,-20,-22)" stroke="url(#linearGradient16)">
      <rect x="478" y="376" clip-path="url(#clipPath2)" width="145" rx="20" ry="20" height="40" stroke="none"/>
    </g>
    <g text-rendering="geometricPrecision" stroke-miterlimit="1.45" shape-rendering="geometricPrecision" transform="matrix(1,0,0,1,-20,-22)" stroke-linecap="butt">
      <rect x="478" y="376" clip-path="url(#clipPath2)" fill="none" width="145" rx="20" ry="20" height="40"/>
      <text x="504.1377" xml:space="preserve" y="400.7139" clip-path="url(#clipPath2)" font-family="sans-serif" stroke="none">StudyBuilder App</text>
    </g>
    <g text-rendering="geometricPrecision" stroke-miterlimit="1.45" shape-rendering="geometricPrecision" transform="matrix(1,0,0,1,-20,-22)" stroke-linecap="butt">
      <rect fill="none" x="1071.9823" width="179" height="86" y="241" clip-path="url(#clipPath2)"/>
      <text x="1077.9823" xml:space="preserve" y="259.0645" clip-path="url(#clipPath2)" font-family="sans-serif" stroke="none">Clinical Trial Supplies</text>
    </g>
    <g fill="url(#linearGradient17)" text-rendering="geometricPrecision" shape-rendering="geometricPrecision" transform="matrix(1,0,0,1,-20,-22)" stroke="url(#linearGradient17)">
      <rect x="1117" width="80" height="40" y="276" clip-path="url(#clipPath2)" stroke="none"/>
    </g>
    <g text-rendering="geometricPrecision" stroke-miterlimit="1.45" shape-rendering="geometricPrecision" transform="matrix(1,0,0,1,-20,-22)" stroke-linecap="butt">
      <rect fill="none" x="1117" width="80" height="40" y="276" clip-path="url(#clipPath2)"/>
      <path fill="none" d="M1127 276 L1127 316 M1187 276 L1187 316 M1127 276 Z" clip-path="url(#clipPath2)"/>
    </g>
    <g text-rendering="geometricPrecision" stroke-miterlimit="1.45" shape-rendering="geometricPrecision" transform="matrix(1,0,0,1,-20,-22)" stroke-linecap="butt">
      <rect fill="none" x="1071.9823" width="179" height="86" y="462" clip-path="url(#clipPath2)"/>
      <text x="1077.9823" xml:space="preserve" y="480.0645" clip-path="url(#clipPath2)" font-family="sans-serif" stroke="none">Word add-in</text>
    </g>
    <g fill="url(#linearGradient18)" text-rendering="geometricPrecision" shape-rendering="geometricPrecision" transform="matrix(1,0,0,1,-20,-22)" stroke="url(#linearGradient18)">
      <rect x="1121.4823" width="80" height="40" y="490" clip-path="url(#clipPath2)" stroke="none"/>
    </g>
    <g text-rendering="geometricPrecision" stroke-miterlimit="1.45" shape-rendering="geometricPrecision" transform="matrix(1,0,0,1,-20,-22)" stroke-linecap="butt">
      <rect fill="none" x="1121.4823" width="80" height="40" y="490" clip-path="url(#clipPath2)"/>
      <path fill="none" d="M1131.4823 490 L1131.4823 530 M1191.4823 490 L1191.4823 530 M1131.4823 490 Z" clip-path="url(#clipPath2)"/>
      <text x="1139.4716" xml:space="preserve" y="507.3633" clip-path="url(#clipPath2)" font-family="sans-serif" stroke="none">Protocol</text>
      <text x="1136.4716" xml:space="preserve" y="522.0645" clip-path="url(#clipPath2)" font-family="sans-serif" stroke="none">Template</text>
    </g>
    <g text-rendering="geometricPrecision" stroke-miterlimit="1.45" shape-rendering="geometricPrecision" transform="matrix(1,0,0,1,-20,-22)" stroke-linecap="butt">
      <rect fill="none" x="1071.9823" width="179" height="213" y="560" clip-path="url(#clipPath2)"/>
      <text x="1077.9823" xml:space="preserve" y="578.0645" clip-path="url(#clipPath2)" font-family="sans-serif" stroke="none">UNIX SCE</text>
      <rect fill="none" x="1071.9823" width="179" height="97" y="133" clip-path="url(#clipPath2)"/>
      <text x="1077.9823" xml:space="preserve" y="151.0645" clip-path="url(#clipPath2)" font-family="sans-serif" stroke="none">SmartChart</text>
    </g>
    <g fill="url(#linearGradient19)" text-rendering="geometricPrecision" shape-rendering="geometricPrecision" transform="matrix(1,0,0,1,-20,-22)" stroke="url(#linearGradient19)">
      <rect x="1121.4823" width="80" height="40" y="173" clip-path="url(#clipPath2)" stroke="none"/>
    </g>
    <g text-rendering="geometricPrecision" stroke-miterlimit="1.45" shape-rendering="geometricPrecision" transform="matrix(1,0,0,1,-20,-22)" stroke-linecap="butt">
      <rect fill="none" x="1121.4823" width="80" height="40" y="173" clip-path="url(#clipPath2)"/>
      <path fill="none" d="M1131.4823 173 L1131.4823 213 M1191.4823 173 L1191.4823 213 M1131.4823 173 Z" clip-path="url(#clipPath2)"/>
    </g>
    <g fill="url(#linearGradient20)" text-rendering="geometricPrecision" shape-rendering="geometricPrecision" transform="matrix(1,0,0,1,-20,-22)" stroke="url(#linearGradient20)">
      <rect x="1088.4823" width="152" height="40" y="602" clip-path="url(#clipPath2)" stroke="none"/>
    </g>
    <g text-rendering="geometricPrecision" stroke-miterlimit="1.45" shape-rendering="geometricPrecision" transform="matrix(1,0,0,1,-20,-22)" stroke-linecap="butt">
      <rect fill="none" x="1088.4823" width="152" height="40" y="602" clip-path="url(#clipPath2)"/>
      <path fill="none" d="M1098.4823 602 L1098.4823 642 M1230.4823 602 L1230.4823 642 M1098.4823 602 Z" clip-path="url(#clipPath2)"/>
      <text x="1117.8094" xml:space="preserve" y="618.6621" clip-path="url(#clipPath2)" font-family="sans-serif" stroke="none">System MDR API</text>
      <text x="1104.4471" xml:space="preserve" y="633.3633" clip-path="url(#clipPath2)" font-family="sans-serif" stroke="none">Trusted Authentication</text>
    </g>
    <g fill="url(#linearGradient21)" text-rendering="geometricPrecision" shape-rendering="geometricPrecision" transform="matrix(1,0,0,1,-20,-22)" stroke="url(#linearGradient21)">
      <rect x="1088.4823" width="152" height="40" y="661.5" clip-path="url(#clipPath2)" stroke="none"/>
    </g>
    <g text-rendering="geometricPrecision" stroke-miterlimit="1.45" shape-rendering="geometricPrecision" transform="matrix(1,0,0,1,-20,-22)" stroke-linecap="butt">
      <rect fill="none" x="1088.4823" width="152" height="40" y="661.5" clip-path="url(#clipPath2)"/>
      <path fill="none" d="M1098.4823 661.5 L1098.4823 701.5 M1230.4823 661.5 L1230.4823 701.5 M1098.4823 661.5 Z" clip-path="url(#clipPath2)"/>
      <text x="1109.1259" xml:space="preserve" y="678.1621" clip-path="url(#clipPath2)" font-family="sans-serif" stroke="none">MDR to SAS dataset</text>
      <text x="1101.787" xml:space="preserve" y="692.8633" clip-path="url(#clipPath2)" font-family="sans-serif" stroke="none">standard program utility</text>
    </g>
    <g fill="url(#linearGradient22)" text-rendering="geometricPrecision" shape-rendering="geometricPrecision" transform="matrix(1,0,0,1,-20,-22)" stroke="url(#linearGradient22)">
      <rect x="1088.4823" width="152" height="40" y="721" clip-path="url(#clipPath2)" stroke="none"/>
    </g>
    <g text-rendering="geometricPrecision" stroke-miterlimit="1.45" shape-rendering="geometricPrecision" transform="matrix(1,0,0,1,-20,-22)" stroke-linecap="butt">
      <rect fill="none" x="1088.4823" width="152" height="40" y="721" clip-path="url(#clipPath2)"/>
      <path fill="none" d="M1098.4823 721 L1098.4823 761 M1230.4823 721 L1230.4823 761 M1098.4823 721 Z" clip-path="url(#clipPath2)"/>
      <text x="1108.1298" xml:space="preserve" y="737.6621" clip-path="url(#clipPath2)" font-family="sans-serif" stroke="none">MDR to SAS Dataset</text>
      <text x="1100.454" xml:space="preserve" y="752.3633" clip-path="url(#clipPath2)" font-family="sans-serif" stroke="none">Package driver program</text>
    </g>
    <g fill="rgb(239,239,239)" text-rendering="geometricPrecision" shape-rendering="geometricPrecision" transform="matrix(1,0,0,1,-20,-22)" stroke="rgb(239,239,239)">
      <rect x="36" width="221.8333" height="97" y="249" clip-path="url(#clipPath2)" stroke="none"/>
    </g>
    <g text-rendering="geometricPrecision" stroke-miterlimit="1.45" shape-rendering="geometricPrecision" transform="matrix(1,0,0,1,-20,-22)" stroke-linecap="butt">
      <rect fill="none" x="36" width="221.8333" height="97" y="249" clip-path="url(#clipPath2)"/>
      <text x="42" xml:space="preserve" y="267.0645" clip-path="url(#clipPath2)" font-family="sans-serif" stroke="none">Internal Master Data Systems *</text>
    </g>
    <g fill="url(#linearGradient23)" text-rendering="geometricPrecision" shape-rendering="geometricPrecision" transform="matrix(1,0,0,1,-20,-22)" stroke="url(#linearGradient23)">
      <rect x="106" width="113" height="40" y="290" clip-path="url(#clipPath2)" stroke="none"/>
    </g>
    <g text-rendering="geometricPrecision" stroke-miterlimit="1.45" shape-rendering="geometricPrecision" transform="matrix(1,0,0,1,-20,-22)" stroke-linecap="butt">
      <rect fill="none" x="106" width="113" height="40" y="290" clip-path="url(#clipPath2)"/>
      <path fill="none" d="M116 290 L116 330 M209 290 L209 330 M116 290 Z" clip-path="url(#clipPath2)"/>
    </g>
    <g fill="rgb(239,239,239)" text-rendering="geometricPrecision" shape-rendering="geometricPrecision" transform="matrix(1,0,0,1,-20,-22)" stroke="rgb(239,239,239)">
      <rect x="36" width="198" height="25" y="133" clip-path="url(#clipPath2)" stroke="none"/>
    </g>
    <g text-rendering="geometricPrecision" stroke-miterlimit="1.45" shape-rendering="geometricPrecision" font-family="sans-serif" transform="matrix(1,0,0,1,-20,-22)" stroke-linecap="butt">
      <text x="42" xml:space="preserve" y="151.0645" clip-path="url(#clipPath2)" stroke="none"> * Maybe in scope for later releases</text>
    </g>
    <g fill="url(#linearGradient24)" text-rendering="geometricPrecision" shape-rendering="geometricPrecision" transform="matrix(1,0,0,1,-20,-22)" stroke="url(#linearGradient24)">
      <path d="M312.5 586 L384.5 586 L384.5 626 L312.5 626 Z" stroke="none" clip-path="url(#clipPath2)"/>
    </g>
    <g text-rendering="geometricPrecision" stroke-miterlimit="1.45" shape-rendering="geometricPrecision" transform="matrix(1,0,0,1,-20,-22)" stroke-linecap="butt">
      <path fill="none" d="M312.5 586 L384.5 586 L384.5 626 L312.5 626 Z" clip-path="url(#clipPath2)"/>
      <text x="333.4941" xml:space="preserve" y="603.3633" clip-path="url(#clipPath2)" font-family="sans-serif" stroke="none">Other</text>
      <text x="331.4961" xml:space="preserve" y="618.0645" clip-path="url(#clipPath2)" font-family="sans-serif" stroke="none">Import</text>
    </g>
    <g fill="rgb(239,239,239)" text-rendering="geometricPrecision" shape-rendering="geometricPrecision" transform="matrix(1,0,0,1,-20,-22)" stroke="rgb(239,239,239)">
      <rect x="870" width="179" height="97" y="133" clip-path="url(#clipPath2)" stroke="none"/>
    </g>
    <g text-rendering="geometricPrecision" stroke-miterlimit="1.45" shape-rendering="geometricPrecision" transform="matrix(1,0,0,1,-20,-22)" stroke-linecap="butt">
      <rect fill="none" x="870" width="179" height="97" y="133" clip-path="url(#clipPath2)"/>
      <text x="876" xml:space="preserve" y="151.0645" clip-path="url(#clipPath2)" font-family="sans-serif" stroke="none">Clinical Data Repository (CDR)*</text>
    </g>
    <g fill="url(#linearGradient25)" text-rendering="geometricPrecision" shape-rendering="geometricPrecision" transform="matrix(1,0,0,1,-20,-22)" stroke="url(#linearGradient25)">
      <rect x="934" width="80" height="40" y="174" clip-path="url(#clipPath2)" stroke="none"/>
    </g>
    <g text-rendering="geometricPrecision" stroke-miterlimit="1.45" shape-rendering="geometricPrecision" transform="matrix(1,0,0,1,-20,-22)" stroke-linecap="butt">
      <rect fill="none" x="934" width="80" height="40" y="174" clip-path="url(#clipPath2)"/>
      <path fill="none" d="M944 174 L944 214 M1004 174 L1004 214 M944 174 Z" clip-path="url(#clipPath2)"/>
    </g>
    <g text-rendering="geometricPrecision" stroke-miterlimit="1.45" shape-rendering="geometricPrecision" transform="matrix(1,0,0,1,-20,-22)" stroke-linecap="butt">
      <path fill="none" d="M391 285.0128 L391 222.998" clip-path="url(#clipPath2)"/>
      <path d="M391 214.998 L386 226.998 L391 223.998 L396 226.998 Z" clip-path="url(#clipPath2)" stroke="none"/>
      <path fill="none" d="M573.5 284.9921 L573.5 222.0378" clip-path="url(#clipPath2)"/>
      <path d="M573.5 214.0378 L568.5 226.0378 L573.5 223.0378 L578.5 226.0378 Z" clip-path="url(#clipPath2)" stroke="none"/>
      <path fill="none" d="M785 284.9841 L785 222.0361" clip-path="url(#clipPath2)"/>
      <path d="M785 214.0361 L780 226.0361 L785 223.0361 L790 226.0361 Z" clip-path="url(#clipPath2)" stroke="none"/>
      <path fill="none" d="M121.0022 719 L154.0201 719" clip-path="url(#clipPath2)"/>
      <path d="M162.0201 719 L150.0201 714 L153.0201 719 L150.0201 724 Z" clip-path="url(#clipPath2)" stroke="none"/>
      <path fill="none" d="M233.9716 719.239 L304.5143 719.7078" clip-path="url(#clipPath2)"/>
      <path d="M312.5141 719.7609 L300.5476 714.6813 L303.5143 719.7011 L300.4812 724.6811 Z" clip-path="url(#clipPath2)" stroke="none"/>
      <path fill="none" d="M384.4623 720 L477.9702 720" clip-path="url(#clipPath2)"/>
      <path d="M485.9702 720 L473.9702 715 L476.9702 720 L473.9702 725 Z" clip-path="url(#clipPath2)" stroke="none"/>
      <path fill="none" d="M218.9532 458 L304.4702 458" clip-path="url(#clipPath2)"/>
      <path d="M312.4702 458 L300.4702 453 L303.4702 458 L300.4702 463 Z" clip-path="url(#clipPath2)" stroke="none"/>
      <path fill="none" d="M353.4959 485.9727 L351.3626 509.8038" clip-path="url(#clipPath2)"/>
      <path d="M354.2092 478.0045 L348.1592 489.511 L353.4068 486.9687 L358.1194 490.4026 Z" clip-path="url(#clipPath2)" stroke="none"/>
      <path d="M350.6493 517.7719 L356.6993 506.2655 L351.4518 508.8078 L346.7392 505.3739 Z" clip-path="url(#clipPath2)" stroke="none"/>
      <path fill="none" d="M395.3581 484.5066 L416.6704 514.5414" clip-path="url(#clipPath2)"/>
      <path d="M390.7285 477.9823 L393.5952 490.6623 L395.9368 485.3221 L401.7506 484.8753 Z" clip-path="url(#clipPath2)" stroke="none"/>
      <path d="M421.3 521.0657 L418.4333 508.3857 L416.0917 513.7259 L410.278 514.1727 Z" clip-path="url(#clipPath2)" stroke="none"/>
      <path fill="none" d="M407.543 465.6196 L449.0013 465.8232" clip-path="url(#clipPath2)"/>
      <path d="M399.5431 465.5803 L411.5184 470.6392 L408.543 465.6245 L411.5675 460.6393 Z" clip-path="url(#clipPath2)" stroke="none"/>
      <path d="M457.0012 465.8625 L445.0259 460.8036 L448.0013 465.8183 L444.9768 470.8035 Z" clip-path="url(#clipPath2)" stroke="none"/>
      <path fill="none" d="M522 699.9774 L522 508.9799" clip-path="url(#clipPath2)"/>
      <path d="M522 500.9799 L517 512.9799 L522 509.9799 L527 512.9799 Z" clip-path="url(#clipPath2)" stroke="none"/>
      <path fill="none" d="M650.5 509.0469 L650.5 530.9254" clip-path="url(#clipPath2)"/>
      <path d="M650.5 501.0469 L645.5 513.0469 L650.5 510.0469 L655.5 513.0469 Z" clip-path="url(#clipPath2)" stroke="none"/>
      <path d="M650.5 538.9254 L655.5 526.9254 L650.5 529.9254 L645.5 526.9254 Z" clip-path="url(#clipPath2)" stroke="none"/>
      <path fill="none" d="M650.5 445.0225 L650.5 318.0232" clip-path="url(#clipPath2)"/>
      <path d="M650.5 453.0225 L655.5 441.0225 L650.5 444.0225 L645.5 441.0225 Z" clip-path="url(#clipPath2)" stroke="none"/>
      <path d="M650.5 310.0232 L645.5 322.0232 L650.5 319.0232 L655.5 322.0232 Z" clip-path="url(#clipPath2)" stroke="none"/>
      <path fill="none" d="M550.5 445.0207 L550.5 424.0185" clip-path="url(#clipPath2)"/>
      <path d="M550.5 453.0207 L555.5 441.0207 L550.5 444.0207 L545.5 441.0207 Z" clip-path="url(#clipPath2)" stroke="none"/>
      <path d="M550.5 416.0185 L545.5 428.0185 L550.5 425.0185 L555.5 428.0185 Z" clip-path="url(#clipPath2)" stroke="none"/>
      <path fill="none" stroke-dasharray="6,2" d="M819 444.9531 L819 420 L1157 420 L1157 324.0107" clip-path="url(#clipPath2)"/>
      <path stroke-dasharray="6,2" d="M819 452.9531 L824 440.9531 L819 443.9531 L814 440.9531 Z" clip-path="url(#clipPath2)" stroke="none"/>
      <path stroke-dasharray="6,2" d="M1157 316.0107 L1152 328.0107 L1157 325.0107 L1162 328.0107 Z" clip-path="url(#clipPath2)" stroke="none"/>
      <path fill="none" d="M1109.0366 296.3791 L1021.9861 296.3791" clip-path="url(#clipPath2)"/>
      <path d="M1117.0366 296.3791 L1105.0366 291.3791 L1108.0366 296.3791 L1105.0366 301.3791 Z" clip-path="url(#clipPath2)" stroke="none"/>
      <path fill="none" d="M843.9531 477 L1058 477 L1058 510 L1113.489 510" clip-path="url(#clipPath2)"/>
      <path d="M1121.489 510 L1109.489 505 L1112.489 510 L1109.489 515 Z" clip-path="url(#clipPath2)" stroke="none"/>
      <path fill="none" d="M1021.9648 292.4938 L1056 292.4938 L1056 193 L1113.4886 193" clip-path="url(#clipPath2)"/>
      <path d="M1121.4886 193 L1109.4886 188 L1112.4886 193 L1109.4886 198 Z" clip-path="url(#clipPath2)" stroke="none"/>
      <path fill="none" stroke-dasharray="6,2" d="M807 445.0288 L807 397 L1061 397 L1061 205 L1113.4497 205" clip-path="url(#clipPath2)"/>
      <path stroke-dasharray="6,2" d="M807 453.0288 L812 441.0288 L807 444.0288 L802 441.0288 Z" clip-path="url(#clipPath2)" stroke="none"/>
      <path stroke-dasharray="6,2" d="M1121.4497 205 L1109.4497 200 L1112.4497 205 L1109.4497 210 Z" clip-path="url(#clipPath2)" stroke="none"/>
      <path fill="none" d="M1164.4823 642.0173 L1164.4823 653.4888" clip-path="url(#clipPath2)"/>
      <path d="M1164.4823 661.4888 L1169.4823 649.4888 L1164.4823 652.4888 L1159.4823 649.4888 Z" clip-path="url(#clipPath2)" stroke="none"/>
      <path fill="none" d="M843.9763 492 L1013 492 L1013 678 L1080.4844 679.5592" clip-path="url(#clipPath2)"/>
      <path d="M1088.4823 679.744 L1076.601 674.4681 L1079.4847 679.5361 L1076.37 684.4655 Z" clip-path="url(#clipPath2)" stroke="none"/>
      <path fill="none" d="M1164.4823 701.5173 L1164.4823 712.9888" clip-path="url(#clipPath2)"/>
      <path d="M1164.4823 720.9888 L1169.4823 708.9888 L1164.4823 711.9888 L1159.4823 708.9888 Z" clip-path="url(#clipPath2)" stroke="none"/>
      <path fill="none" d="M226.9851 303.0981 L314.9813 301.9924" clip-path="url(#clipPath2)"/>
      <path d="M218.9857 303.1986 L231.0476 308.0474 L227.985 303.0855 L230.922 298.0482 Z" clip-path="url(#clipPath2)" stroke="none"/>
      <path d="M322.9807 301.8919 L310.9188 297.043 L313.9814 302.0049 L311.0444 307.0422 Z" clip-path="url(#clipPath2)" stroke="none"/>
      <path fill="none" d="M219.0356 606 L304.4991 606" clip-path="url(#clipPath2)"/>
      <path d="M312.4991 606 L300.4991 601 L303.4991 606 L300.4991 611 Z" clip-path="url(#clipPath2)" stroke="none"/>
      <path fill="none" d="M348.5 586.0259 L348.5 573.7618" clip-path="url(#clipPath2)"/>
      <path d="M348.5 565.7618 L343.5 577.7618 L348.5 574.7618 L353.5 577.7618 Z" clip-path="url(#clipPath2)" stroke="none"/>
      <path fill="none" d="M974 284.9921 L974 222.0378" clip-path="url(#clipPath2)"/>
      <path d="M974 214.0378 L969 226.0378 L974 223.0378 L979 226.0378 Z" clip-path="url(#clipPath2)" stroke="none"/>
    </g>
  </g>
</svg>
